<?xml version="1.0" encoding="utf-8"?>
<!-- Generator: Adobe Illustrator 23.0.3, SVG Export Plug-In . SVG Version: 6.00 Build 0)  -->
<svg version="1.1" id="Capa_1" xmlns="http://www.w3.org/2000/svg" xmlns:xlink="http://www.w3.org/1999/xlink" x="0px" y="0px"
	 viewBox="-40 0 360 281.2" style="enable-background:new 0 0 281.2 281.2;" xml:space="preserve">
<style type="text/css">
	.st0{fill:#B27694;}
</style>
<path class="st0" d="M132,186.4c-9.8,3-20,4.5-30.2,4.5c-19,0-38-5.2-54.6-15.7c-7-4.4-9.1-13.7-4.7-20.7s13.7-9.1,20.7-4.7
	c19.6,12.4,44.1,14.4,65.3,6.1"/>
<path class="st0" d="M143,155.9l5.9-53.7c-1.4,0.1-2.8,0.1-4.2,0.1c-21.6,0-42.6-8.1-58.9-23.2l-1-0.9c-1.2,0.2-2.5,0.3-3.8,0.3
	c-14.5,0-26.3-11.8-26.3-26.3S66.4,25.9,81,25.9s26.3,11.8,26.3,26.3c0,1.9-0.2,3.7-0.6,5.4c14.4,12.9,34.1,17.7,52.8,12.7l8.9-2.4
	c0.1,0,0.2,0,0.3-0.1c0.3-0.1,0.5-0.1,0.8-0.2c0.2,0,0.5-0.1,0.7-0.1s0.5-0.1,0.7-0.1c0.3,0,0.5,0,0.8-0.1c0.2,0,0.5,0,0.7,0
	c0.3,0,0.5,0,0.8,0c0.2,0,0.5,0,0.7,0.1c0.2,0,0.5,0,0.7,0.1c0.3,0,0.5,0.1,0.8,0.1c0.2,0,0.4,0.1,0.6,0.1c0.3,0.1,0.6,0.2,0.8,0.2
	c0.2,0.1,0.4,0.1,0.5,0.2c0.3,0.1,0.6,0.2,0.8,0.3c0.2,0.1,0.4,0.1,0.5,0.2c0.3,0.1,0.5,0.3,0.8,0.4c0.2,0.1,0.4,0.2,0.6,0.3
	c0.2,0.1,0.4,0.3,0.6,0.4c0.2,0.1,0.4,0.3,0.6,0.4c0.1,0.1,0.2,0.1,0.3,0.2l15,11.8c20.8,16.3,39.9,34.9,56.9,55.2l4.5,5.4
	c5.3,6.4,4.5,15.8-1.9,21.1c-2.8,2.3-6.2,3.5-9.6,3.5c-4.3,0-8.6-1.8-11.5-5.4l-4.5-5.4c-11.6-13.9-24.3-26.9-38-38.9
	c0,0,2.4,95-59.7,151.8l-7.4,7.2c-2.9,2.8-6.7,4.3-10.5,4.3c-3.9,0-7.8-1.5-10.7-4.5c-5.8-5.9-5.7-15.4,0.3-21.2l7.4-7.2
	c17.4-16.9,29.4-38.5,34.8-61.9"/>
<path class="st0" d="M195.7,64.2c16.9,0,30.7-13.7,30.7-30.7c0-16.9-13.7-30.7-30.7-30.7S165,16.6,165,33.5
	C165,50.5,178.7,64.2,195.7,64.2z"/>
</svg>
