<?xml version="1.0" encoding="UTF-8" standalone="no"?>
<!-- Created with Inkscape (http://www.inkscape.org/) -->

<svg
   xmlns:dc="http://purl.org/dc/elements/1.1/"
   xmlns:cc="http://creativecommons.org/ns#"
   xmlns:rdf="http://www.w3.org/1999/02/22-rdf-syntax-ns#"
   xmlns:svg="http://www.w3.org/2000/svg"
   xmlns="http://www.w3.org/2000/svg"
   xmlns:sodipodi="http://sodipodi.sourceforge.net/DTD/sodipodi-0.dtd"
   xmlns:inkscape="http://www.inkscape.org/namespaces/inkscape"
   width="80.675758mm"
   height="80.675758mm"
   viewBox="0 0 80.675758 80.675758"
   version="1.1"
   id="svg8"
   inkscape:version="0.92.1 r15371"
   sodipodi:docname="balonmano.svg">
  <defs
     id="defs2" />
  <sodipodi:namedview
     id="base"
     pagecolor="#ffffff"
     bordercolor="#666666"
     borderopacity="1.0"
     inkscape:pageopacity="0.0"
     inkscape:pageshadow="2"
     inkscape:zoom="0.35"
     inkscape:cx="-188.97045"
     inkscape:cy="127.07679"
     inkscape:document-units="mm"
     inkscape:current-layer="layer1"
     showgrid="false"
     fit-margin-top="0"
     fit-margin-left="0"
     fit-margin-right="0"
     fit-margin-bottom="0"
     inkscape:window-width="1366"
     inkscape:window-height="705"
     inkscape:window-x="-8"
     inkscape:window-y="-8"
     inkscape:window-maximized="1" />
  <metadata
     id="metadata5">
    <rdf:RDF>
      <cc:Work
         rdf:about="">
        <dc:format>image/svg+xml</dc:format>
        <dc:type
           rdf:resource="http://purl.org/dc/dcmitype/StillImage" />
        <dc:title></dc:title>
      </cc:Work>
    </rdf:RDF>
  </metadata>
  <g
     inkscape:label="Layer 1"
     inkscape:groupmode="layer"
     id="layer1"
     transform="translate(-29.965693,-117.56688)">
    <rect
       style="opacity:1;vector-effect:none;fill:none;fill-opacity:1;fill-rule:evenodd;stroke:none;stroke-width:0.1;stroke-linecap:butt;stroke-linejoin:miter;stroke-miterlimit:4;stroke-dasharray:none;stroke-dashoffset:0;stroke-opacity:1"
       id="rect5477-8-8"
       width="80.675758"
       height="80.675758"
       x="30.44924"
       y="117.08333"
       rx="0"
       ry="0"
       inkscape:export-filename="C:\Users\Pablo\Desktop\CARTOMETRICS\9 PROYECTOS\ANTIGUOS\10 Webgis MalagaActiva\logosUlt\balonmano.png"
       inkscape:export-xdpi="11.019427"
       inkscape:export-ydpi="11.019427" />
    <g
       id="g4902"
       transform="matrix(0.27850732,0,0,0.27850732,29.758093,118.6487)"
       style="fill:#b27694;fill-opacity:1;stroke-width:0.95000494"
       inkscape:export-filename="C:\Users\Pablo\Desktop\CARTOMETRICS\9 PROYECTOS\ANTIGUOS\10 Webgis MalagaActiva\logosUlt\balonmano.png"
       inkscape:export-xdpi="11.019427"
       inkscape:export-ydpi="11.019427">
      <path
         id="path4885"
         d="m 132,186.4 c -9.8,3 -20,4.5 -30.2,4.5 -19,0 -38,-5.2 -54.6,-15.7 -7,-4.4 -9.1,-13.7 -4.7,-20.7 4.4,-7 13.7,-9.1 20.7,-4.7 19.6,12.4 44.1,14.4 65.3,6.1"
         class="st0"
         inkscape:connector-curvature="0"
         style="fill:#b27694;fill-opacity:1;stroke-width:0.95000494" />
      <path
         id="path4887"
         d="m 143,155.9 5.9,-53.7 c -1.4,0.1 -2.8,0.1 -4.2,0.1 -21.6,0 -42.6,-8.1 -58.9,-23.2 l -1,-0.9 C 83.6,78.4 82.3,78.5 81,78.5 66.5,78.5 54.7,66.7 54.7,52.2 54.7,37.7 66.4,25.9 81,25.9 c 14.6,0 26.3,11.8 26.3,26.3 0,1.9 -0.2,3.7 -0.6,5.4 14.4,12.9 34.1,17.7 52.8,12.7 l 8.9,-2.4 c 0.1,0 0.2,0 0.3,-0.1 0.3,-0.1 0.5,-0.1 0.8,-0.2 0.2,0 0.5,-0.1 0.7,-0.1 0.2,0 0.5,-0.1 0.7,-0.1 0.3,0 0.5,0 0.8,-0.1 0.2,0 0.5,0 0.7,0 0.3,0 0.5,0 0.8,0 0.2,0 0.5,0 0.7,0.1 0.2,0 0.5,0 0.7,0.1 0.3,0 0.5,0.1 0.8,0.1 0.2,0 0.4,0.1 0.6,0.1 0.3,0.1 0.6,0.2 0.8,0.2 0.2,0.1 0.4,0.1 0.5,0.2 0.3,0.1 0.6,0.2 0.8,0.3 0.2,0.1 0.4,0.1 0.5,0.2 0.3,0.1 0.5,0.3 0.8,0.4 0.2,0.1 0.4,0.2 0.6,0.3 0.2,0.1 0.4,0.3 0.6,0.4 0.2,0.1 0.4,0.3 0.6,0.4 0.1,0.1 0.2,0.1 0.3,0.2 l 15,11.8 c 20.8,16.3 39.9,34.9 56.9,55.2 l 4.5,5.4 c 5.3,6.4 4.5,15.8 -1.9,21.1 -2.8,2.3 -6.2,3.5 -9.6,3.5 -4.3,0 -8.6,-1.8 -11.5,-5.4 l -4.5,-5.4 c -11.6,-13.9 -24.3,-26.9 -38,-38.9 0,0 2.4,95 -59.7,151.8 l -7.4,7.2 c -2.9,2.8 -6.7,4.3 -10.5,4.3 -3.9,0 -7.8,-1.5 -10.7,-4.5 -5.8,-5.9 -5.7,-15.4 0.3,-21.2 l 7.4,-7.2 c 17.4,-16.9 29.4,-38.5 34.8,-61.9"
         class="st0"
         inkscape:connector-curvature="0"
         style="fill:#b27694;fill-opacity:1;stroke-width:0.95000494" />
      <path
         id="path4889"
         d="m 195.7,64.2 c 16.9,0 30.7,-13.7 30.7,-30.7 0,-16.9 -13.7,-30.7 -30.7,-30.7 -17,0 -30.7,13.8 -30.7,30.7 0,17 13.7,30.7 30.7,30.7 z"
         class="st0"
         inkscape:connector-curvature="0"
         style="fill:#b27694;fill-opacity:1;stroke-width:0.95000494" />
    </g>
  </g>
</svg>
