<?xml version="1.0" encoding="utf-8"?>
<!-- Generator: Adobe Illustrator 23.0.3, SVG Export Plug-In . SVG Version: 6.00 Build 0)  -->
<svg version="1.1" id="Capa_1" xmlns="http://www.w3.org/2000/svg" xmlns:xlink="http://www.w3.org/1999/xlink" x="0px" y="0px"
	 viewBox="20 30 80 20" style="enable-background:new 0 0 100 125;" xml:space="preserve">
<style type="text/css">
	.st0{fill:#D57642;}
	.st1{fill:none;}
	.st2{fill:#D57642;stroke:#D57642;stroke-width:2;stroke-miterlimit:10;}
</style>
<g>
	<polygon class="st0" points="36.3,36.9 34.4,36.9 35.4,37.6 	"/>
	<polygon class="st0" points="43.5,36.9 41.5,36.9 42.5,37.6 	"/>
	<polygon class="st0" points="27.4,38 25.9,36.9 25.4,36.9 25.7,39.1 	"/>
	<polygon class="st0" points="28.9,36.9 27.4,36.9 28.1,37.5 	"/>
	<path class="st0" d="M72,51.2l0.1,0.2c0,0-0.2,0,0,0.2c0.5,0.7,4.3,4.5,5.7,5.2c2,1.2,10.2,2.5,14.9,3.2c0.3,0.2,0.7,0.2,0.8,0.2
		c1.5-0.2,2.8-1.3,3-2.8c0.3-1.8-1-3.5-2.7-3.8c-5.4-0.8-11.7-2-13-2.5c-0.7-0.5-4.8-4.7-4.8-4.7"/>
	<path class="st0" d="M74.4,44.8l-3.2-11.5c3.5,0.7,4.7,2.8,6.2,6.9c0.5,1.2,1.5,1.8,2.7,1.7c0.2,0,0.5,0,0.7-0.2
		c1.3-0.5,2-1.8,1.5-3.2C77.7,24.7,63.2,28.1,63,28.1c-5.2,0.8-9.7,0-10.2-0.7c-0.3-0.5-0.8-4-2.7-8c0-0.2-6.2-10-5.3,1.2
		c0.8,6.2,3.5,9.5,4.3,10.5c1.5,1.7,5.4,2.3,9.4,2.5L63,48.3c0,0,0,8.4,0.5,10.5c0.2,0.8,0.7,3.2,10.9,11.4c0.7,0.5,1.7,0.8,2.5,0.7
		c0.8,0,1.7-0.5,2.2-1.2c1.2-1.5,1-3.5-0.5-4.7c-3.5-2.8-8.7-8-8.7-8s0-3.7,0-6.5"/>
	<path class="st0" d="M22.2,38.4h1.8 M48,39.3v-3.7H22.2v0.8h-2.2v2h2.2v0.8 M46.1,38.4H48 M46.1,38.4 M42.8,58.2 M27.6,58.3h0.8"/>
	<path class="st0" d="M36.3,30.8c2.7,0,5-2.3,5-5.2c0-2.7-2.3-5-5-5c-2.8,0-5.2,2.3-5.2,5C31.1,28.4,33.4,30.8,36.3,30.8z"/>
	<path class="st0" d="M66,25.6c3.5-1.2,5.3-4.8,4.3-8.4c-1.2-3.5-4.8-5.4-8.2-4.3c-3.5,1.2-5.5,4.8-4.3,8.4
		C58.9,24.6,62.5,26.6,66,25.6z"/>
</g>
<line class="st1" x1="27.5" y1="59.4" x2="27.5" y2="59.4"/>
<line class="st1" x1="37" y1="50.9" x2="32.3" y2="71.6"/>
<line class="st1" x1="35.2" y1="58.5" x2="37.4" y2="54.8"/>
<line class="st2" x1="46.8" y1="38.3" x2="39.5" y2="58.1"/>
<line class="st2" x1="23.6" y1="38.6" x2="29.9" y2="57.9"/>
</svg>
