<?xml version="1.0" encoding="utf-8"?>
<!-- Generator: Adobe Illustrator 23.0.3, SVG Export Plug-In . SVG Version: 6.00 Build 0)  -->
<svg version="1.1" id="Capa_1" xmlns="http://www.w3.org/2000/svg" xmlns:xlink="http://www.w3.org/1999/xlink" x="0px" y="0px"
	 viewBox="-12 0 60 57" style="enable-background:new 0 0 52 65;" xml:space="preserve">
<style type="text/css">
	.st0{fill:#B2B234;}
</style>
<g>
	<g>
		<path class="st0" d="M13.6,34.7L8,41.2c-0.1,0.1-0.2,0.2-0.2,0.4l-2.1,7.5c-0.4,1.6,0.7,3.2,2.3,3.6c0.2,0.1,0.4,0.1,0.6,0.1
			c0.6,0,1.1-0.2,1.6-0.5c0.7-0.4,1.1-1.1,1.3-1.8l1.8-6.3l3.3-3.8"/>
		<path class="st0" d="M18.3,39.3c0.7,0.3,1.5,0.5,2.3,0.4l0.9,3.2c0,0.1,0.1,0.2,0.2,0.3l5.2,7.3c0.5,0.6,1.2,1.1,2,1.2
			c0.8,0.1,1.6-0.1,2.2-0.6c1.3-1,1.6-2.9,0.6-4.2l-4.7-6.6l-1.7-6.3V21.9c0-2.6-2-4.9-4.5-5.1c-1.2-0.1-2.9,0.5-3.2,0.6
			c-0.1,0.1-0.3,0.1-0.4,0.2l-4.3,4.3l-1.7-1l0.6-2l0.2-0.7l0.4-1.1l0.1-0.5L16.3,5l-1.9-0.6l-3.9,12.3l0,0c0,0,0,0-0.3,0.8
			c0.1,0,0,0,0,0c-0.1,0.5,0,0-0.1,0.5l-0.6,1.9c-0.5-0.2-1.1-0.3-1.7-0.2C7,19.9,6.3,20.4,5.8,21c-0.5,0.7-0.6,1.5-0.5,2.3
			c0.1,0.8,0.6,1.5,1.3,1.9l6.3,3.9c0.4,0.3,0.9,0.2,1.2-0.1l1.1-1.1v5.7"/>
		<circle class="st0" cx="5.3" cy="8.6" r="1.5"/>
	</g>
</g>
<circle class="st0" cx="23.5" cy="11.2" r="4.6"/>
<image style="overflow:visible;" width="919" height="518" xlink:href="D2AD2AB0.jpg"  transform="matrix(1 0 0 1 -402.0323 193.922)">
</image>
</svg>
