<?xml version="1.0" encoding="UTF-8" standalone="no"?>
<!-- Created with Inkscape (http://www.inkscape.org/) -->

<svg
   xmlns:dc="http://purl.org/dc/elements/1.1/"
   xmlns:cc="http://creativecommons.org/ns#"
   xmlns:rdf="http://www.w3.org/1999/02/22-rdf-syntax-ns#"
   xmlns:svg="http://www.w3.org/2000/svg"
   xmlns="http://www.w3.org/2000/svg"
   xmlns:sodipodi="http://sodipodi.sourceforge.net/DTD/sodipodi-0.dtd"
   xmlns:inkscape="http://www.inkscape.org/namespaces/inkscape"
   width="80.675758mm"
   height="80.675758mm"
   viewBox="0 0 80.675758 80.675758"
   version="1.1"
   id="svg8"
   inkscape:version="0.92.1 r15371"
   sodipodi:docname="beisbol.svg">
  <defs
     id="defs2" />
  <sodipodi:namedview
     id="base"
     pagecolor="#ffffff"
     bordercolor="#666666"
     borderopacity="1.0"
     inkscape:pageopacity="0.0"
     inkscape:pageshadow="2"
     inkscape:zoom="0.35"
     inkscape:cx="-188.97045"
     inkscape:cy="127.07679"
     inkscape:document-units="mm"
     inkscape:current-layer="layer1"
     showgrid="false"
     fit-margin-top="0"
     fit-margin-left="0"
     fit-margin-right="0"
     fit-margin-bottom="0"
     inkscape:window-width="1366"
     inkscape:window-height="705"
     inkscape:window-x="-8"
     inkscape:window-y="-8"
     inkscape:window-maximized="1" />
  <metadata
     id="metadata5">
    <rdf:RDF>
      <cc:Work
         rdf:about="">
        <dc:format>image/svg+xml</dc:format>
        <dc:type
           rdf:resource="http://purl.org/dc/dcmitype/StillImage" />
        <dc:title></dc:title>
      </cc:Work>
    </rdf:RDF>
  </metadata>
  <g
     inkscape:label="Layer 1"
     inkscape:groupmode="layer"
     id="layer1"
     transform="translate(-29.965693,-117.56688)">
    <rect
       style="opacity:1;vector-effect:none;fill:none;fill-opacity:1;fill-rule:evenodd;stroke:none;stroke-width:0.1;stroke-linecap:butt;stroke-linejoin:miter;stroke-miterlimit:4;stroke-dasharray:none;stroke-dashoffset:0;stroke-opacity:1"
       id="rect5477-8-67"
       width="80.675758"
       height="80.675758"
       x="31.961147"
       y="117.08334"
       rx="0"
       ry="0"
       inkscape:export-filename="C:\Users\Pablo\Desktop\CARTOMETRICS\9 PROYECTOS\ANTIGUOS\10 Webgis MalagaActiva\logosUlt\beisbol.png"
       inkscape:export-xdpi="11.019427"
       inkscape:export-ydpi="11.019427" />
    <g
       id="g5422"
       transform="matrix(0.3511786,0,0,0.3511786,-59.655239,42.098142)"
       style="fill:#b2b234;fill-opacity:1;stroke-width:2.84755397"
       inkscape:export-filename="C:\Users\Pablo\Desktop\CARTOMETRICS\9 PROYECTOS\ANTIGUOS\10 Webgis MalagaActiva\logosUlt\beisbol.png"
       inkscape:export-xdpi="11.019427"
       inkscape:export-ydpi="11.019427">
      <path
         id="path4963"
         d="m 365.01339,358.40353 -25.47849,29.57325 c -0.45497,0.45497 -0.90995,0.90995 -0.90995,1.81989 l -9.55443,34.12299 c -1.8199,7.27957 3.18481,14.55914 10.46438,16.37903 0.90995,0.45497 1.81989,0.45497 2.72984,0.45497 2.72984,0 5.0047,-0.90994 7.27957,-2.27486 3.18481,-1.8199 5.0047,-5.00471 5.91465,-8.18952 l 8.18951,-28.66331 15.01412,-17.28897"
         class="st0"
         inkscape:connector-curvature="0"
         style="fill:#b2b234;fill-opacity:1;stroke-width:0.75341535" />
      <path
         id="path4965"
         d="m 386.39713,379.33229 c 3.18481,1.36492 6.8246,2.27487 10.46438,1.81989 l 4.09476,14.55914 c 0,0.45498 0.45497,0.90995 0.90994,1.36492 l 23.65861,33.21304 c 2.27486,2.72984 5.45967,5.0047 9.09946,5.45968 3.63978,0.45497 7.27957,-0.45498 10.00941,-2.72984 5.91465,-4.54973 7.27957,-13.19422 2.72984,-19.10887 l -21.38374,-30.02823 -7.73454,-28.6633 v -55.05175 c 0,-11.8293 -9.09947,-22.29368 -20.47379,-23.20363 -5.45968,-0.45497 -13.19422,2.27487 -14.55914,2.72984 -0.45498,0.45497 -1.36492,0.45497 -1.8199,0.90995 l -19.56384,19.56384 -7.73454,-4.54973 2.72984,-9.09946 0.90994,-3.18481 1.8199,-5.00471 0.45497,-2.27486 17.28898,-52.77688 -8.64449,-2.72984 -17.74395,55.96169 v 0 c 0,0 0,0 -1.36492,3.63978 0.45497,0 0,0 0,0 -0.45498,2.27487 0,0 -0.45498,2.27487 l -2.72983,8.64449 c -2.27487,-0.90995 -5.00471,-1.36492 -7.73455,-0.90995 -3.63978,0.90995 -6.82459,3.18481 -9.09946,5.91465 -2.27487,3.18481 -2.72984,6.8246 -2.27487,10.46438 0.45498,3.63979 2.72984,6.8246 5.91466,8.64449 l 28.6633,17.74396 c 1.81989,1.36491 4.09476,0.90994 5.45968,-0.45498 l 5.0047,-5.0047 v 25.93346"
         class="st0"
         inkscape:connector-curvature="0"
         style="fill:#b2b234;fill-opacity:1;stroke-width:0.75341535" />
      <circle
         id="circle4967"
         r="6.8245969"
         cy="239.65555"
         cx="327.25064"
         class="st0"
         style="fill:#b2b234;fill-opacity:1;stroke-width:0.75341535" />
      <circle
         id="circle4973"
         r="20.928762"
         cy="251.48476"
         cx="410.05542"
         class="st0"
         style="fill:#b2b234;fill-opacity:1;stroke-width:0.75341535" />
    </g>
  </g>
</svg>
