<?xml version="1.0" encoding="utf-8"?>
<!-- Generator: Adobe Illustrator 23.0.3, SVG Export Plug-In . SVG Version: 6.00 Build 0)  -->
<svg version="1.1" id="Capa_1" xmlns="http://www.w3.org/2000/svg" xmlns:xlink="http://www.w3.org/1999/xlink" x="0px" y="0px"
	 viewBox="0 0 100 105" style="enable-background:new 0 0 100 125;" xml:space="preserve">
<style type="text/css">
	.st0{fill:#565624;}
	.st1{fill:none;}
</style>
<path class="st0" d="M89.3,65c0,6.2-5,11.2-11.2,11.2s-11.2-5-11.2-11.2s5-11.2,11.2-11.2S89.3,58.8,89.3,65L89.3,65z M93.5,65
	c0-8.5-6.9-15.4-15.4-15.4c-8.5,0-15.4,6.9-15.4,15.4s6.9,15.4,15.4,15.4S93.5,73.5,93.5,65L93.5,65z"/>
<g>
	<path class="st0" d="M68.2,15.4c0-4-3.3-7.3-7.3-7.3s-7.3,3.3-7.3,7.3s3.3,7.3,7.3,7.3S68.2,19.4,68.2,15.4L68.2,15.4z"/>
</g>
<path class="st0" d="M36,75.9c0,6.2-5,11.2-11.2,11.2c-6.2,0-11.2-5-11.2-11.2c0-6.2,5-11.2,11.2-11.2C31,64.7,36,69.7,36,75.9
	L36,75.9z M56.9,37.9l2.9,5.9c1.7,3.3,5.1,5.4,8.8,5.4l7.5-0.1l5.1-0.1l-0.1-5.1c0-2.8-2.4-5.1-5.2-5l-6,0.1c-0.7,0-1.3-0.4-1.6-1
	l-3.5-7.1 M63.4,29c-2.4-4.8-8.2-6.7-13-4.4c-0.5,0.3-1,0.6-1.5,0.9l-10.2,7.7c-3.7,2.8-4.9,7.8-2.8,12l5.5,11
	c0.3,0.6,0.2,1.3-0.2,1.9l-5.3,7C29.9,59,20.1,59,14,64.9c-6.1,6-6.2,15.7-0.2,21.8c6,6.1,15.7,6.2,21.8,0.2
	c2.9-2.8,4.5-6.6,4.6-10.6l9.9-13.1c2.2-2.9,2.6-6.9,1-10.1l-5.2-10.5c-0.4-0.8-0.2-1.7,0.5-2.2l6.4-4.8c0.1-0.1,0.2-0.1,0.3-0.2
	c0.9-0.4,2-0.1,2.4,0.8"/>
<line class="st1" x1="78.1" y1="64.7" x2="78.1" y2="64.7"/>
<rect x="23.3" y="69.8" transform="matrix(0.9746 -0.224 0.224 0.9746 -14.5518 13.4593)" class="st0" width="57.4" height="2"/>
</svg>
