<?xml version="1.0" encoding="UTF-8" standalone="no"?>
<!-- Created with Inkscape (http://www.inkscape.org/) -->

<svg
   xmlns:dc="http://purl.org/dc/elements/1.1/"
   xmlns:cc="http://creativecommons.org/ns#"
   xmlns:rdf="http://www.w3.org/1999/02/22-rdf-syntax-ns#"
   xmlns:svg="http://www.w3.org/2000/svg"
   xmlns="http://www.w3.org/2000/svg"
   xmlns:sodipodi="http://sodipodi.sourceforge.net/DTD/sodipodi-0.dtd"
   xmlns:inkscape="http://www.inkscape.org/namespaces/inkscape"
   width="80.675758mm"
   height="80.675758mm"
   viewBox="0 0 80.675758 80.675758"
   version="1.1"
   id="svg8"
   inkscape:version="0.92.1 r15371"
   sodipodi:docname="bmx.svg">
  <defs
     id="defs2" />
  <sodipodi:namedview
     id="base"
     pagecolor="#ffffff"
     bordercolor="#666666"
     borderopacity="1.0"
     inkscape:pageopacity="0.0"
     inkscape:pageshadow="2"
     inkscape:zoom="0.35"
     inkscape:cx="-188.97045"
     inkscape:cy="127.07679"
     inkscape:document-units="mm"
     inkscape:current-layer="layer1"
     showgrid="false"
     fit-margin-top="0"
     fit-margin-left="0"
     fit-margin-right="0"
     fit-margin-bottom="0"
     inkscape:window-width="1366"
     inkscape:window-height="705"
     inkscape:window-x="-8"
     inkscape:window-y="-8"
     inkscape:window-maximized="1" />
  <metadata
     id="metadata5">
    <rdf:RDF>
      <cc:Work
         rdf:about="">
        <dc:format>image/svg+xml</dc:format>
        <dc:type
           rdf:resource="http://purl.org/dc/dcmitype/StillImage" />
        <dc:title></dc:title>
      </cc:Work>
    </rdf:RDF>
  </metadata>
  <g
     inkscape:label="Layer 1"
     inkscape:groupmode="layer"
     id="layer1"
     transform="translate(-29.965693,-117.56688)">
    <rect
       style="opacity:1;vector-effect:none;fill:none;fill-opacity:1;fill-rule:evenodd;stroke:none;stroke-width:0.1;stroke-linecap:butt;stroke-linejoin:miter;stroke-miterlimit:4;stroke-dasharray:none;stroke-dashoffset:0;stroke-opacity:1"
       id="rect5477-8-4"
       width="80.675758"
       height="80.675758"
       x="29.693291"
       y="117.08334"
       rx="0"
       ry="0"
       inkscape:export-filename="C:\Users\Pablo\Desktop\CARTOMETRICS\9 PROYECTOS\ANTIGUOS\10 Webgis MalagaActiva\logosUlt\bmx.png"
       inkscape:export-xdpi="11.019427"
       inkscape:export-ydpi="11.019427" />
    <g
       id="g5022"
       transform="matrix(0.9387564,0,0,0.9387564,22.286878,111.1371)"
       style="fill:#565624;fill-opacity:1;stroke-width:0.2818445"
       inkscape:export-filename="C:\Users\Pablo\Desktop\CARTOMETRICS\9 PROYECTOS\ANTIGUOS\10 Webgis MalagaActiva\logosUlt\bmx.png"
       inkscape:export-xdpi="11.019427"
       inkscape:export-ydpi="11.019427">
      <path
         id="path4996"
         d="m 89.3,65 c 0,6.2 -5,11.2 -11.2,11.2 -6.2,0 -11.2,-5 -11.2,-11.2 0,-6.2 5,-11.2 11.2,-11.2 6.2,0 11.2,5 11.2,11.2 z m 4.2,0 c 0,-8.5 -6.9,-15.4 -15.4,-15.4 -8.5,0 -15.4,6.9 -15.4,15.4 0,8.5 6.9,15.4 15.4,15.4 8.5,0 15.4,-6.9 15.4,-15.4 z"
         class="st0"
         inkscape:connector-curvature="0"
         style="fill:#565624;fill-opacity:1;stroke-width:0.2818445" />
      <g
         id="g5000"
         style="fill:#565624;fill-opacity:1;stroke-width:0.2818445">
        <path
           id="path4998"
           d="m 68.2,15.4 c 0,-4 -3.3,-7.3 -7.3,-7.3 -4,0 -7.3,3.3 -7.3,7.3 0,4 3.3,7.3 7.3,7.3 4,0 7.3,-3.3 7.3,-7.3 z"
           class="st0"
           inkscape:connector-curvature="0"
           style="fill:#565624;fill-opacity:1;stroke-width:0.2818445" />
      </g>
      <path
         id="path5002"
         d="m 36,75.9 c 0,6.2 -5,11.2 -11.2,11.2 -6.2,0 -11.2,-5 -11.2,-11.2 0,-6.2 5,-11.2 11.2,-11.2 6.2,0 11.2,5 11.2,11.2 z m 20.9,-38 2.9,5.9 c 1.7,3.3 5.1,5.4 8.8,5.4 l 7.5,-0.1 5.1,-0.1 -0.1,-5.1 c 0,-2.8 -2.4,-5.1 -5.2,-5 l -6,0.1 c -0.7,0 -1.3,-0.4 -1.6,-1 L 64.8,30.9 M 63.4,29 c -2.4,-4.8 -8.2,-6.7 -13,-4.4 -0.5,0.3 -1,0.6 -1.5,0.9 L 38.7,33.2 C 35,36 33.8,41 35.9,45.2 l 5.5,11 c 0.3,0.6 0.2,1.3 -0.2,1.9 l -5.3,7 C 29.9,59 20.1,59 14,64.9 c -6.1,6 -6.2,15.7 -0.2,21.8 6,6.1 15.7,6.2 21.8,0.2 2.9,-2.8 4.5,-6.6 4.6,-10.6 l 9.9,-13.1 c 2.2,-2.9 2.6,-6.9 1,-10.1 L 45.9,42.6 c -0.4,-0.8 -0.2,-1.7 0.5,-2.2 l 6.4,-4.8 c 0.1,-0.1 0.2,-0.1 0.3,-0.2 0.9,-0.4 2,-0.1 2.4,0.8"
         class="st0"
         inkscape:connector-curvature="0"
         style="fill:#565624;fill-opacity:1;stroke-width:0.2818445" />
      <line
         id="line5004"
         y2="64.699997"
         x2="78.099998"
         y1="64.699997"
         x1="78.099998"
         class="st1"
         style="clip-rule:evenodd;fill:#565624;fill-opacity:1;fill-rule:evenodd;stroke-width:0.2818445" />
      <rect
         id="rect5006"
         height="2"
         width="57.400002"
         class="st0"
         transform="matrix(0.9746,-0.224,0.224,0.9746,-14.5518,13.4593)"
         y="69.800003"
         x="23.299999"
         style="fill:#565624;fill-opacity:1;stroke-width:0.2818445" />
    </g>
  </g>
</svg>
