<?xml version="1.0" encoding="UTF-8" standalone="no"?>
<!-- Created with Inkscape (http://www.inkscape.org/) -->

<svg
   xmlns:dc="http://purl.org/dc/elements/1.1/"
   xmlns:cc="http://creativecommons.org/ns#"
   xmlns:rdf="http://www.w3.org/1999/02/22-rdf-syntax-ns#"
   xmlns:svg="http://www.w3.org/2000/svg"
   xmlns="http://www.w3.org/2000/svg"
   xmlns:sodipodi="http://sodipodi.sourceforge.net/DTD/sodipodi-0.dtd"
   xmlns:inkscape="http://www.inkscape.org/namespaces/inkscape"
   width="80.675758mm"
   height="80.675758mm"
   viewBox="0 0 80.675758 80.675758"
   version="1.1"
   id="svg8"
   inkscape:version="0.92.1 r15371"
   sodipodi:docname="calistenia.svg">
  <defs
     id="defs2" />
  <sodipodi:namedview
     id="base"
     pagecolor="#ffffff"
     bordercolor="#666666"
     borderopacity="1.0"
     inkscape:pageopacity="0.0"
     inkscape:pageshadow="2"
     inkscape:zoom="0.35"
     inkscape:cx="-188.97045"
     inkscape:cy="127.07679"
     inkscape:document-units="mm"
     inkscape:current-layer="layer1"
     showgrid="false"
     fit-margin-top="0"
     fit-margin-left="0"
     fit-margin-right="0"
     fit-margin-bottom="0"
     inkscape:window-width="1366"
     inkscape:window-height="705"
     inkscape:window-x="-8"
     inkscape:window-y="-8"
     inkscape:window-maximized="1" />
  <metadata
     id="metadata5">
    <rdf:RDF>
      <cc:Work
         rdf:about="">
        <dc:format>image/svg+xml</dc:format>
        <dc:type
           rdf:resource="http://purl.org/dc/dcmitype/StillImage" />
        <dc:title></dc:title>
      </cc:Work>
    </rdf:RDF>
  </metadata>
  <g
     inkscape:label="Layer 1"
     inkscape:groupmode="layer"
     id="layer1"
     transform="translate(-29.965693,-117.56688)">
    <rect
       style="opacity:1;vector-effect:none;fill:none;fill-opacity:1;fill-rule:evenodd;stroke:none;stroke-width:0.1;stroke-linecap:butt;stroke-linejoin:miter;stroke-miterlimit:4;stroke-dasharray:none;stroke-dashoffset:0;stroke-opacity:1"
       id="rect5477-8-2"
       width="80.675758"
       height="80.675758"
       x="28.937338"
       y="117.08334"
       rx="0"
       ry="0"
       inkscape:export-filename="C:\Users\Pablo\Desktop\CARTOMETRICS\9 PROYECTOS\ANTIGUOS\10 Webgis MalagaActiva\logosUlt\calistenia.png"
       inkscape:export-xdpi="11.019427"
       inkscape:export-ydpi="11.019427" />
    <g
       id="g5036"
       transform="matrix(1.6138781,0,0,1.6138781,27.391842,116.05721)"
       style="fill:#7e452a;fill-opacity:1;stroke-width:0.16394258"
       inkscape:export-filename="C:\Users\Pablo\Desktop\CARTOMETRICS\9 PROYECTOS\ANTIGUOS\10 Webgis MalagaActiva\logosUlt\calistenia.png"
       inkscape:export-xdpi="11.019427"
       inkscape:export-ydpi="11.019427">
      <circle
         id="circle5026"
         r="5"
         cy="6.5"
         cx="27"
         class="st0"
         style="fill:#7e452a;fill-opacity:1;stroke-width:0.16394258" />
      <rect
         id="rect5028"
         height="11.1"
         width="2"
         class="st0"
         y="1.1"
         x="45"
         style="fill:#7e452a;fill-opacity:1;stroke-width:0.16394258" />
      <rect
         id="rect5030"
         height="11.1"
         width="2"
         class="st0"
         y="1.1"
         x="7"
         style="fill:#7e452a;fill-opacity:1;stroke-width:0.16394258" />
      <path
         id="path5032"
         d="m 47,13.7 h -3.4 c -0.1,0 -0.2,0 -0.2,0 -0.1,0 -0.2,0.1 -0.3,0.1 -0.1,0.1 -0.2,0.1 -0.4,0.2 -0.2,0.1 -0.4,0.1 -0.6,0.1 0,0 0,0 0,0 H 12 c 0,0 0,0 0,0 0,0 -0.1,0 -0.1,0 -0.1,0 -0.1,0 -0.2,0 -0.2,0 -0.3,0 -0.4,0 0,0 -0.1,0 -0.1,0 0,0 0,0 -0.1,0 0,0 0,0 -0.1,0 -0.5,0 -0.9,-0.1 -1.1,-0.4 H 7 c -2.6,0.5 -4.5,3.1 -3.9,5.9 0.3,1.5 1.4,2.9 2.8,3.5 2.3,1 4.7,0.3 6.1,-1.5 h 8 v 25.9 c 0,1.5 1.1,2.8 2.5,3.1 0.9,0.1 1.8,-0.1 2.4,-0.7 0.7,-0.6 1,-1.4 1,-2.3 v -11 c 0,-0.5 0.5,-1 1,-1 0.5,0 1,0.5 1,1 v 10.9 c 0,1.5 1.1,2.8 2.5,3.1 0.2,0 0.3,0 0.5,0 1.1,0 2.1,-0.6 2.7,-1.6 0.2,-0.4 0.3,-0.9 0.3,-1.4 v -26 h 8 c 1.4,1.8 3.8,2.6 6.1,1.5 1.4,-0.6 2.5,-2 2.8,-3.5 0.7,-2.9 -1.2,-5.4 -3.8,-5.9 z M 8,21.6 c -1.7,0 -3,-1.3 -3,-3 0,-1.7 1.3,-3 3,-3 0.5,0 1.1,0.1 1.5,0.4 -0.3,0.2 -0.6,0.4 -0.8,0.6 -0.5,0.7 -0.8,1.6 -0.7,2.4 0.1,0.9 0.7,1.7 1.5,2.1 -0.4,0.3 -1,0.5 -1.5,0.5 z m 38,0 c -0.5,0 -1.1,-0.1 -1.5,-0.4 0.3,-0.2 0.6,-0.4 0.8,-0.6 0.5,-0.6 0.7,-1.2 0.7,-1.9 0,-0.2 0,-0.3 0,-0.5 -0.1,-0.9 -0.7,-1.6 -1.5,-2.1 0.5,-0.3 1,-0.4 1.5,-0.4 1.7,0 3,1.3 3,3 0,1.7 -1.3,2.9 -3,2.9 z"
         class="st0"
         inkscape:connector-curvature="0"
         style="fill:#7e452a;fill-opacity:1;stroke-width:0.16394258" />
      <rect
         id="rect5034"
         height="1.1"
         width="8.6999998"
         class="st1"
         y="35.599998"
         x="18.299999"
         style="clip-rule:evenodd;fill:#7e452a;fill-opacity:1;fill-rule:evenodd;stroke-width:0.16394258" />
    </g>
  </g>
</svg>
