<?xml version="1.0" encoding="utf-8"?>
<!-- Generator: Adobe Illustrator 23.0.3, SVG Export Plug-In . SVG Version: 6.00 Build 0)  -->
<svg version="1.1" id="Capa_1" xmlns="http://www.w3.org/2000/svg" xmlns:xlink="http://www.w3.org/1999/xlink" x="0px" y="0px"
	 viewBox="0 0 52 55" style="enable-background:new 0 0 52 65;" xml:space="preserve">
<style type="text/css">
	.st0{fill:#7E452A;}
	.st1{fill:#FFFFFF;}
</style>
<g>
	<circle class="st0" cx="27" cy="6.5" r="5"/>
	<rect x="45" y="1.1" class="st0" width="2" height="11.1"/>
	<rect x="7" y="1.1" class="st0" width="2" height="11.1"/>
	<path class="st0" d="M47,13.7h-3.4c-0.1,0-0.2,0-0.2,0c-0.1,0-0.2,0.1-0.3,0.1c-0.1,0.1-0.2,0.1-0.4,0.2c-0.2,0.1-0.4,0.1-0.6,0.1
		c0,0,0,0,0,0H12c0,0,0,0,0,0c0,0-0.1,0-0.1,0c-0.1,0-0.1,0-0.2,0c-0.2,0-0.3,0-0.4,0c0,0-0.1,0-0.1,0c0,0,0,0-0.1,0c0,0,0,0-0.1,0
		c-0.5,0-0.9-0.1-1.1-0.4H7c-2.6,0.5-4.5,3.1-3.9,5.9c0.3,1.5,1.4,2.9,2.8,3.5c2.3,1,4.7,0.3,6.1-1.5h8v25.9c0,1.5,1.1,2.8,2.5,3.1
		c0.9,0.1,1.8-0.1,2.4-0.7c0.7-0.6,1-1.4,1-2.3v-11c0-0.5,0.5-1,1-1s1,0.5,1,1v10.9c0,1.5,1.1,2.8,2.5,3.1c0.2,0,0.3,0,0.5,0
		c1.1,0,2.1-0.6,2.7-1.6c0.2-0.4,0.3-0.9,0.3-1.4V21.6h8c1.4,1.8,3.8,2.6,6.1,1.5c1.4-0.6,2.5-2,2.8-3.5
		C51.5,16.7,49.6,14.2,47,13.7z M8,21.6c-1.7,0-3-1.3-3-3s1.3-3,3-3c0.5,0,1.1,0.1,1.5,0.4c-0.3,0.2-0.6,0.4-0.8,0.6
		C8.2,17.3,7.9,18.2,8,19c0.1,0.9,0.7,1.7,1.5,2.1C9.1,21.4,8.5,21.6,8,21.6z M46,21.6c-0.5,0-1.1-0.1-1.5-0.4
		c0.3-0.2,0.6-0.4,0.8-0.6c0.5-0.6,0.7-1.2,0.7-1.9c0-0.2,0-0.3,0-0.5c-0.1-0.9-0.7-1.6-1.5-2.1c0.5-0.3,1-0.4,1.5-0.4
		c1.7,0,3,1.3,3,3S47.7,21.6,46,21.6z"/>
	<rect x="18.3" y="35.6" class="st1" width="8.7" height="1.1"/>
</g>
</svg>
