<?xml version="1.0" encoding="utf-8"?>
<!-- Generator: Adobe Illustrator 23.0.3, SVG Export Plug-In . SVG Version: 6.00 Build 0)  -->
<svg version="1.1" id="Capa_1" xmlns="http://www.w3.org/2000/svg" xmlns:xlink="http://www.w3.org/1999/xlink" x="0px" y="0px"
	 viewBox="0 0 72.7 80" style="enable-background:new 0 0 72.7 89.8;" xml:space="preserve">
<style type="text/css">
	.st0{fill:#CA8673;}
</style>
<path class="st0" d="M16.2,41.2c-7.7,0-14,6.3-14,14s6.3,14,14,14s14-6.3,14-14S23.9,41.2,16.2,41.2z M16.2,66.2
	c-6.1,0-11-4.9-11-11s4.9-11,11-11s11,4.9,11,11S22.3,66.2,16.2,66.2z"/>
<path class="st0" d="M57.2,41.2c-7.7,0-14,6.3-14,14s6.3,14,14,14s14-6.3,14-14S64.9,41.2,57.2,41.2z M57.2,66.2
	c-6.1,0-11-4.9-11-11s4.9-11,11-11s11,4.9,11,11S63.3,66.2,57.2,66.2z"/>
<path class="st0" d="M33.5,24.8l11.1,10c0.6,0.5,1.3,0.8,2,0.8c0.8,0,1.6-0.3,2.2-1c1.1-1.2,1-3.1-0.2-4.2L34.1,17.3"/>
<path class="st0" d="M31.7,15.5c-0.3-0.3-0.5-0.6-0.9-0.8c-2.3-1.6-5.4-1.1-7,1.2L13.6,30.4c-1.6,2.3-1.1,5.4,1.2,7
	c0.9,0.6,1.9,0.9,2.9,0.9c0.1,0,0.3,0,0.4,0c0.1,0,0.2,0,0.2,0c7.7,0,14.4,7.3,14.4,15.7c0,1.9,1.6,3.5,3.5,3.5s3.5-1.6,3.5-3.5
	c0-10-6.5-18.8-15.3-21.7l6.6-9.3"/>
<circle class="st0" cx="33.7" cy="8.5" r="5.8"/>
<path class="st0" d="M49.2,27c3,0,5.5,4,5.5,8.7c0,0.8,0.7,1.5,1.5,1.5s1.5-0.7,1.5-1.5c0-6.6-3.7-11.8-8.5-11.8
	c-0.8,0-1.5,0.7-1.5,1.5C47.7,26.3,48.4,27,49.2,27z"/>
<circle class="st0" cx="57.4" cy="55.2" r="1.6"/>
<circle class="st0" cx="16.2" cy="55.2" r="1.6"/>
<image style="overflow:visible;" width="919" height="518" xlink:href="EF1AD612.jpg"  transform="matrix(0.3639 0 0 0.3639 -405 101.3739)">
</image>
</svg>
