<?xml version="1.0" encoding="UTF-8" standalone="no"?>
<!-- Created with Inkscape (http://www.inkscape.org/) -->

<svg
   xmlns:dc="http://purl.org/dc/elements/1.1/"
   xmlns:cc="http://creativecommons.org/ns#"
   xmlns:rdf="http://www.w3.org/1999/02/22-rdf-syntax-ns#"
   xmlns:svg="http://www.w3.org/2000/svg"
   xmlns="http://www.w3.org/2000/svg"
   xmlns:sodipodi="http://sodipodi.sourceforge.net/DTD/sodipodi-0.dtd"
   xmlns:inkscape="http://www.inkscape.org/namespaces/inkscape"
   width="80.675758mm"
   height="80.675758mm"
   viewBox="0 0 80.675758 80.675758"
   version="1.1"
   id="svg8"
   inkscape:version="0.92.1 r15371"
   sodipodi:docname="ciclismo.svg">
  <defs
     id="defs2" />
  <sodipodi:namedview
     id="base"
     pagecolor="#ffffff"
     bordercolor="#666666"
     borderopacity="1.0"
     inkscape:pageopacity="0.0"
     inkscape:pageshadow="2"
     inkscape:zoom="0.35"
     inkscape:cx="-188.97045"
     inkscape:cy="127.07679"
     inkscape:document-units="mm"
     inkscape:current-layer="layer1"
     showgrid="false"
     fit-margin-top="0"
     fit-margin-left="0"
     fit-margin-right="0"
     fit-margin-bottom="0"
     inkscape:window-width="1366"
     inkscape:window-height="705"
     inkscape:window-x="-8"
     inkscape:window-y="-8"
     inkscape:window-maximized="1" />
  <metadata
     id="metadata5">
    <rdf:RDF>
      <cc:Work
         rdf:about="">
        <dc:format>image/svg+xml</dc:format>
        <dc:type
           rdf:resource="http://purl.org/dc/dcmitype/StillImage" />
        <dc:title></dc:title>
      </cc:Work>
    </rdf:RDF>
  </metadata>
  <g
     inkscape:label="Layer 1"
     inkscape:groupmode="layer"
     id="layer1"
     transform="translate(-29.965693,-117.56688)">
    <rect
       style="opacity:1;vector-effect:none;fill:none;fill-opacity:1;fill-rule:evenodd;stroke:none;stroke-width:0.1;stroke-linecap:butt;stroke-linejoin:miter;stroke-miterlimit:4;stroke-dasharray:none;stroke-dashoffset:0;stroke-opacity:1"
       id="rect5477-8-1"
       width="80.675758"
       height="80.675758"
       x="28.937338"
       y="117.08333"
       rx="0"
       ry="0"
       inkscape:export-filename="C:\Users\Pablo\Desktop\CARTOMETRICS\9 PROYECTOS\ANTIGUOS\10 Webgis MalagaActiva\logosUlt\ciclismo.png"
       inkscape:export-xdpi="11.019427"
       inkscape:export-ydpi="11.019427" />
    <g
       id="g5465"
       transform="matrix(1.7118477,0,0,1.7118477,-1327.6411,-74.568373)"
       style="fill:#ca8673;fill-opacity:1;stroke-width:0.58416408"
       inkscape:export-filename="C:\Users\Pablo\Desktop\CARTOMETRICS\9 PROYECTOS\ANTIGUOS\10 Webgis MalagaActiva\logosUlt\ciclismo.png"
       inkscape:export-xdpi="11.019427"
       inkscape:export-ydpi="11.019427">
      <path
         id="path5054"
         d="m 803.63821,139.52894 c -4.87231,0 -8.85873,3.98643 -8.85873,8.85873 0,4.8723 3.98642,8.85873 8.85873,8.85873 4.8723,0 8.85873,-3.98643 8.85873,-8.85873 0,-4.8723 -3.98643,-8.85873 -8.85873,-8.85873 z m 0,15.81916 c -3.85988,0 -6.96043,-3.10056 -6.96043,-6.96043 0,-3.85988 3.10055,-6.96043 6.96043,-6.96043 3.85987,0 6.96043,3.10055 6.96043,6.96043 0,3.85987 -3.10056,6.96043 -6.96043,6.96043 z"
         class="st0"
         inkscape:connector-curvature="0"
         style="fill:#ca8673;fill-opacity:1;stroke-width:0.15456007" />
      <path
         id="path5056"
         d="m 829.58163,139.52894 c -4.8723,0 -8.85873,3.98643 -8.85873,8.85873 0,4.8723 3.98643,8.85873 8.85873,8.85873 4.8723,0 8.85873,-3.98643 8.85873,-8.85873 0,-4.8723 -3.98643,-8.85873 -8.85873,-8.85873 z m 0,15.81916 c -3.85987,0 -6.96043,-3.10056 -6.96043,-6.96043 0,-3.85988 3.10056,-6.96043 6.96043,-6.96043 3.85988,0 6.96043,3.10055 6.96043,6.96043 0,3.85987 -3.10055,6.96043 -6.96043,6.96043 z"
         class="st0"
         inkscape:connector-curvature="0"
         style="fill:#ca8673;fill-opacity:1;stroke-width:0.15456007" />
      <path
         id="path5058"
         d="m 814.58507,129.15157 7.0237,6.32766 c 0.37966,0.31639 0.8226,0.50622 1.26554,0.50622 0.50621,0 1.01242,-0.18983 1.39208,-0.63277 0.69605,-0.75932 0.63277,-1.96158 -0.12655,-2.65762 l -9.17511,-8.28924"
         class="st0"
         inkscape:connector-curvature="0"
         style="fill:#ca8673;fill-opacity:1;stroke-width:0.15456007" />
      <path
         id="path5060"
         d="m 813.44609,123.26684 c -0.18983,-0.18983 -0.31639,-0.37966 -0.56949,-0.50621 -1.45537,-1.01243 -3.41694,-0.69605 -4.42937,0.75932 l -6.45422,9.17511 c -1.01242,1.45536 -0.69604,3.41694 0.75932,4.42937 0.56949,0.37966 1.20226,0.56949 1.83503,0.56949 0.0633,0 0.18983,0 0.2531,0 0.0633,0 0.12656,0 0.12656,0 4.8723,0 9.11183,4.61919 9.11183,9.93443 0,1.20226 1.01243,2.21468 2.21469,2.21468 1.20225,0 2.21468,-1.01242 2.21468,-2.21468 0,-6.32767 -4.11298,-11.89601 -9.68133,-13.73103 l 4.17626,-5.88473"
         class="st0"
         inkscape:connector-curvature="0"
         style="fill:#ca8673;fill-opacity:1;stroke-width:0.15456007" />
      <circle
         id="circle5062"
         r="3.6700456"
         cy="118.83748"
         cx="814.71161"
         class="st0"
         style="fill:#ca8673;fill-opacity:1;stroke-width:0.15456007" />
      <path
         id="path5064"
         d="m 824.5195,130.54365 c 1.8983,0 3.48022,2.53107 3.48022,5.50507 0,0.50622 0.44293,0.94915 0.94915,0.94915 0.50621,0 0.94915,-0.44293 0.94915,-0.94915 0,-4.17626 -2.34124,-7.46664 -5.37852,-7.46664 -0.50621,0 -0.94915,0.44294 -0.94915,0.94915 0,0.56949 0.44294,1.01242 0.94915,1.01242 z"
         class="st0"
         inkscape:connector-curvature="0"
         style="fill:#ca8673;fill-opacity:1;stroke-width:0.15456007" />
      <circle
         id="circle5066"
         r="1.0124264"
         cy="148.38766"
         cx="829.70819"
         class="st0"
         style="fill:#ca8673;fill-opacity:1;stroke-width:0.15456007" />
      <circle
         id="circle5068"
         r="1.0124264"
         cy="148.38766"
         cx="803.63818"
         class="st0"
         style="fill:#ca8673;fill-opacity:1;stroke-width:0.15456007" />
    </g>
  </g>
</svg>
