<?xml version="1.0" encoding="UTF-8" standalone="no"?>
<!-- Created with Inkscape (http://www.inkscape.org/) -->

<svg
   xmlns:dc="http://purl.org/dc/elements/1.1/"
   xmlns:cc="http://creativecommons.org/ns#"
   xmlns:rdf="http://www.w3.org/1999/02/22-rdf-syntax-ns#"
   xmlns:svg="http://www.w3.org/2000/svg"
   xmlns="http://www.w3.org/2000/svg"
   xmlns:sodipodi="http://sodipodi.sourceforge.net/DTD/sodipodi-0.dtd"
   xmlns:inkscape="http://www.inkscape.org/namespaces/inkscape"
   width="80.675758mm"
   height="80.675758mm"
   viewBox="0 0 80.675758 80.675758"
   version="1.1"
   id="svg8"
   inkscape:version="0.92.1 r15371"
   sodipodi:docname="drones.svg">
  <defs
     id="defs2" />
  <sodipodi:namedview
     id="base"
     pagecolor="#ffffff"
     bordercolor="#666666"
     borderopacity="1.0"
     inkscape:pageopacity="0.0"
     inkscape:pageshadow="2"
     inkscape:zoom="0.35"
     inkscape:cx="-188.97045"
     inkscape:cy="185.80694"
     inkscape:document-units="mm"
     inkscape:current-layer="layer1"
     showgrid="false"
     fit-margin-top="0"
     fit-margin-left="0"
     fit-margin-right="0"
     fit-margin-bottom="0"
     inkscape:window-width="1366"
     inkscape:window-height="705"
     inkscape:window-x="-8"
     inkscape:window-y="-8"
     inkscape:window-maximized="1" />
  <metadata
     id="metadata5">
    <rdf:RDF>
      <cc:Work
         rdf:about="">
        <dc:format>image/svg+xml</dc:format>
        <dc:type
           rdf:resource="http://purl.org/dc/dcmitype/StillImage" />
        <dc:title></dc:title>
      </cc:Work>
    </rdf:RDF>
  </metadata>
  <g
     inkscape:label="Layer 1"
     inkscape:groupmode="layer"
     id="layer1"
     transform="translate(-29.965693,-117.56688)">
    <rect
       style="opacity:1;vector-effect:none;fill:none;fill-opacity:1;fill-rule:evenodd;stroke:none;stroke-width:0.1;stroke-linecap:butt;stroke-linejoin:miter;stroke-miterlimit:4;stroke-dasharray:none;stroke-dashoffset:0;stroke-opacity:1"
       id="rect5477-75"
       width="80.675758"
       height="80.675758"
       x="30.449242"
       y="117.83929"
       rx="0"
       ry="0"
       inkscape:export-filename="C:\Users\Pablo\Desktop\CARTOMETRICS\9 PROYECTOS\ANTIGUOS\10 Webgis MalagaActiva\logosUlt\drones.png"
       inkscape:export-xdpi="11.019427"
       inkscape:export-ydpi="11.019427" />
    <path
       id="path5692"
       d="m 94.531742,152.70106 c 0,-1.23748 -13.956083,-4.79525 -13.956083,0 0,4.00465 9.736587,2.1828 12.942014,0.75625 -0.03429,0.10312 -0.05159,0.20625 -0.05159,0.31796 v 5.83509 c -1.727332,0.33515 -3.153859,1.46952 -3.910118,2.99919 0,0 -13.672476,-6.19603 -18.53647,-6.19603 -4.87262,0 -20.504468,6.19603 -20.504468,6.19603 -0.756258,-1.52967 -2.191385,-2.66404 -3.910092,-2.99919 v -5.83509 c 0,-0.11171 -0.02566,-0.21484 -0.05165,-0.31796 3.20548,1.43514 12.942067,3.25699 12.942067,-0.75625 0,-4.79525 -13.956109,-1.23748 -13.956109,0 0,-1.23748 -13.956083,-4.79525 -13.956083,0 0,4.00465 9.73664,2.1828 12.942067,0.75625 -0.0344,0.10312 -0.05159,0.20625 -0.05159,0.31796 v 5.83509 c -2.552329,0.49844 -4.485878,2.74997 -4.485878,5.44837 0,3.06794 2.483538,5.55151 5.551488,5.55151 2.191358,0 4.073366,-1.27186 4.975701,-3.11091 h 13.208423 c 1.022668,3.05075 3.90152,5.25931 7.296018,5.25931 3.394472,0 6.273377,-2.19997 7.296018,-5.25931 h 11.23188 c 0.902335,1.83905 2.792941,3.11091 4.975754,3.11091 3.06795,0 5.551509,-2.48357 5.551509,-5.55151 0,-2.6984 -1.924971,-4.94993 -4.485873,-5.44837 v -5.83509 c 0,-0.11171 -0.02593,-0.21484 -0.05162,-0.31796 3.205427,1.43514 12.942033,3.25699 12.942033,-0.75625 0,-4.79525 -13.947477,-1.23748 -13.947477,0 z"
       class="st0"
       inkscape:connector-curvature="0"
       style="fill:#2b0000;stroke-width:0.26458332"
       inkscape:export-filename="C:\Users\Pablo\Desktop\CARTOMETRICS\9 PROYECTOS\ANTIGUOS\10 Webgis MalagaActiva\logosUlt\drones.png"
       inkscape:export-xdpi="11.019427"
       inkscape:export-ydpi="11.019427" />
  </g>
</svg>
