<?xml version="1.0" encoding="utf-8"?>
<!-- Generator: Adobe Illustrator 23.0.3, SVG Export Plug-In . SVG Version: 6.00 Build 0)  -->
<svg version="1.1" id="Capa_1" xmlns="http://www.w3.org/2000/svg" xmlns:xlink="http://www.w3.org/1999/xlink" x="0px" y="0px"
	 viewBox="0 0 61.9 61.9" style="enable-background:new 0 0 61.9 61.9;" xml:space="preserve">
<style type="text/css">
	.st0{fill:#6C6E1D;}
</style>
<g>
	<g>
		<path class="st0" d="M26.3,15.3c-2.6,3.2-7.7,13-9.5,18.1c-3.4,6.4-6.3,14-8.6,20.8c-1.4,4.2,4.9,6.9,6.3,2.7
			c1.7-5.1,3.8-10.7,6.2-15.8c2.3,5.2,4.7,10.4,7.2,15.5c2,4,7.9,0.5,5.9-3.5c-2.6-5.3-5.1-10.6-7.5-16c0-0.1,0.1-0.2,0.1-0.3
			c0.4,0.1,0.8,0.1,1.3,0.1c3.7-0.7,7.3-1.4,11-2.1c1.6-0.3,2.2-2,1.9-3.4c-0.7-4.1-3.1-7-6-9.7c-0.4-1.5-1.9-2.8-3.5-4.1
			 M33.1,15.9c3.3-5.3,8.6-8.1,15.5-8.7c3.5-0.3,2.4-5.7-1.1-5.4C38.6,2.6,32,7,28.2,13.4 M36,26.1c1,1.1,1.9,2.2,2.5,3.4
			c-2,0.4-4,0.7-5.9,1.1C33.6,29.1,34.7,27.6,36,26.1z"/>
		<ellipse class="st0" cx="40" cy="16.6" rx="4.5" ry="4.4"/>
	</g>
</g>
</svg>
