<?xml version="1.0" encoding="UTF-8" standalone="no"?>
<!-- Created with Inkscape (http://www.inkscape.org/) -->

<svg
   xmlns:dc="http://purl.org/dc/elements/1.1/"
   xmlns:cc="http://creativecommons.org/ns#"
   xmlns:rdf="http://www.w3.org/1999/02/22-rdf-syntax-ns#"
   xmlns:svg="http://www.w3.org/2000/svg"
   xmlns="http://www.w3.org/2000/svg"
   xmlns:sodipodi="http://sodipodi.sourceforge.net/DTD/sodipodi-0.dtd"
   xmlns:inkscape="http://www.inkscape.org/namespaces/inkscape"
   width="80.675758mm"
   height="80.675758mm"
   viewBox="0 0 80.675758 80.675758"
   version="1.1"
   id="svg8"
   inkscape:version="0.92.1 r15371"
   sodipodi:docname="estiramientos.svg">
  <defs
     id="defs2" />
  <sodipodi:namedview
     id="base"
     pagecolor="#ffffff"
     bordercolor="#666666"
     borderopacity="1.0"
     inkscape:pageopacity="0.0"
     inkscape:pageshadow="2"
     inkscape:zoom="0.35"
     inkscape:cx="-188.97045"
     inkscape:cy="127.07679"
     inkscape:document-units="mm"
     inkscape:current-layer="layer1"
     showgrid="false"
     fit-margin-top="0"
     fit-margin-left="0"
     fit-margin-right="0"
     fit-margin-bottom="0"
     inkscape:window-width="1366"
     inkscape:window-height="705"
     inkscape:window-x="-8"
     inkscape:window-y="-8"
     inkscape:window-maximized="1" />
  <metadata
     id="metadata5">
    <rdf:RDF>
      <cc:Work
         rdf:about="">
        <dc:format>image/svg+xml</dc:format>
        <dc:type
           rdf:resource="http://purl.org/dc/dcmitype/StillImage" />
        <dc:title></dc:title>
      </cc:Work>
    </rdf:RDF>
  </metadata>
  <g
     inkscape:label="Layer 1"
     inkscape:groupmode="layer"
     id="layer1"
     transform="translate(-29.965693,-117.56688)">
    <rect
       style="opacity:1;vector-effect:none;fill:none;fill-opacity:1;fill-rule:evenodd;stroke:none;stroke-width:0.1;stroke-linecap:butt;stroke-linejoin:miter;stroke-miterlimit:4;stroke-dasharray:none;stroke-dashoffset:0;stroke-opacity:1"
       id="rect5477-8-43"
       width="80.675758"
       height="80.675758"
       x="29.693291"
       y="117.83929"
       rx="0"
       ry="0"
       inkscape:export-filename="C:\Users\Pablo\Desktop\CARTOMETRICS\9 PROYECTOS\ANTIGUOS\10 Webgis MalagaActiva\logosUlt\estiramientos.png"
       inkscape:export-xdpi="11.019427"
       inkscape:export-ydpi="11.019427" />
    <g
       id="g5099"
       transform="matrix(1.3943395,0,0,1.3943395,32.237707,115.36306)"
       style="fill:#6c6e1d;fill-opacity:1;stroke-width:0.18975532"
       inkscape:export-filename="C:\Users\Pablo\Desktop\CARTOMETRICS\9 PROYECTOS\ANTIGUOS\10 Webgis MalagaActiva\logosUlt\estiramientos.png"
       inkscape:export-xdpi="11.019427"
       inkscape:export-ydpi="11.019427">
      <g
         id="g5097"
         style="fill:#6c6e1d;fill-opacity:1;stroke-width:0.18975532">
        <path
           id="path5093"
           d="m 26.3,15.3 c -2.6,3.2 -7.7,13 -9.5,18.1 -3.4,6.4 -6.3,14 -8.6,20.8 -1.4,4.2 4.9,6.9 6.3,2.7 1.7,-5.1 3.8,-10.7 6.2,-15.8 2.3,5.2 4.7,10.4 7.2,15.5 2,4 7.9,0.5 5.9,-3.5 -2.6,-5.3 -5.1,-10.6 -7.5,-16 0,-0.1 0.1,-0.2 0.1,-0.3 0.4,0.1 0.8,0.1 1.3,0.1 3.7,-0.7 7.3,-1.4 11,-2.1 1.6,-0.3 2.2,-2 1.9,-3.4 -0.7,-4.1 -3.1,-7 -6,-9.7 -0.4,-1.5 -1.9,-2.8 -3.5,-4.1 m 2,-1.7 C 36.4,10.6 41.7,7.8 48.6,7.2 52.1,6.9 51,1.5 47.5,1.8 38.6,2.6 32,7 28.2,13.4 M 36,26.1 c 1,1.1 1.9,2.2 2.5,3.4 -2,0.4 -4,0.7 -5.9,1.1 1,-1.5 2.1,-3 3.4,-4.5 z"
           class="st0"
           inkscape:connector-curvature="0"
           style="fill:#6c6e1d;fill-opacity:1;stroke-width:0.18975532" />
        <ellipse
           id="ellipse5095"
           ry="4.4000001"
           rx="4.5"
           cy="16.6"
           cx="40"
           class="st0"
           style="fill:#6c6e1d;fill-opacity:1;stroke-width:0.18975532" />
      </g>
    </g>
  </g>
</svg>
