<?xml version="1.0" encoding="UTF-8" standalone="no"?>
<!-- Created with Inkscape (http://www.inkscape.org/) -->

<svg
   xmlns:dc="http://purl.org/dc/elements/1.1/"
   xmlns:cc="http://creativecommons.org/ns#"
   xmlns:rdf="http://www.w3.org/1999/02/22-rdf-syntax-ns#"
   xmlns:svg="http://www.w3.org/2000/svg"
   xmlns="http://www.w3.org/2000/svg"
   xmlns:sodipodi="http://sodipodi.sourceforge.net/DTD/sodipodi-0.dtd"
   xmlns:inkscape="http://www.inkscape.org/namespaces/inkscape"
   width="80.675758mm"
   height="80.675758mm"
   viewBox="0 0 80.675758 80.675758"
   version="1.1"
   id="svg8"
   inkscape:version="0.92.1 r15371"
   sodipodi:docname="futbol.svg">
  <defs
     id="defs2" />
  <sodipodi:namedview
     id="base"
     pagecolor="#ffffff"
     bordercolor="#666666"
     borderopacity="1.0"
     inkscape:pageopacity="0.0"
     inkscape:pageshadow="2"
     inkscape:zoom="0.35"
     inkscape:cx="-188.97045"
     inkscape:cy="127.07679"
     inkscape:document-units="mm"
     inkscape:current-layer="layer1"
     showgrid="false"
     fit-margin-top="0"
     fit-margin-left="0"
     fit-margin-right="0"
     fit-margin-bottom="0"
     inkscape:window-width="1366"
     inkscape:window-height="705"
     inkscape:window-x="-8"
     inkscape:window-y="-8"
     inkscape:window-maximized="1" />
  <metadata
     id="metadata5">
    <rdf:RDF>
      <cc:Work
         rdf:about="">
        <dc:format>image/svg+xml</dc:format>
        <dc:type
           rdf:resource="http://purl.org/dc/dcmitype/StillImage" />
        <dc:title></dc:title>
      </cc:Work>
    </rdf:RDF>
  </metadata>
  <g
     inkscape:label="Layer 1"
     inkscape:groupmode="layer"
     id="layer1"
     transform="translate(-29.965693,-117.56688)">
    <rect
       style="opacity:1;vector-effect:none;fill:none;fill-opacity:1;fill-rule:evenodd;stroke:none;stroke-width:0.1;stroke-linecap:butt;stroke-linejoin:miter;stroke-miterlimit:4;stroke-dasharray:none;stroke-dashoffset:0;stroke-opacity:1"
       id="rect5477-8-91"
       width="80.675758"
       height="80.675758"
       x="30.449242"
       y="116.32737"
       rx="0"
       ry="0"
       inkscape:export-filename="C:\Users\Pablo\Desktop\CARTOMETRICS\9 PROYECTOS\ANTIGUOS\10 Webgis MalagaActiva\logosUlt\futbol.png"
       inkscape:export-xdpi="11.019427"
       inkscape:export-ydpi="11.019427" />
    <g
       id="g5150"
       transform="matrix(0.20581048,0,0,0.20581048,24.525379,115.46833)"
       style="fill:#b59243;fill-opacity:1;stroke-width:1.28556776"
       inkscape:export-filename="C:\Users\Pablo\Desktop\CARTOMETRICS\9 PROYECTOS\ANTIGUOS\10 Webgis MalagaActiva\logosUlt\futbol.png"
       inkscape:export-xdpi="11.019427"
       inkscape:export-ydpi="11.019427">
      <g
         id="g5125"
         style="fill:#b59243;fill-opacity:1;stroke-width:1.28556776">
        <path
           id="path5115"
           d="m 85.9,303.3 c -24.4,0 -44.3,19.9 -44.3,44.3 0,24.4 19.9,44.3 44.3,44.3 24.4,0 44.2,-19.9 44.3,-44.3 0,-24.4 -19.9,-44.3 -44.3,-44.3 z"
           class="st0"
           inkscape:connector-curvature="0"
           style="fill:#b59243;fill-opacity:1;stroke-width:1.28556776" />
        <circle
           id="ellipse5117"
           cy="64.900002"
           cx="286.79999"
           class="st0"
           r="40.900002"
           style="fill:#b59243;fill-opacity:1;stroke-width:1.28556776" />
        <path
           id="path5119"
           d="m 395.8,167.1 h -95.4 c -3.8,0 -6.8,-3 -6.8,-6.8 0,-3.8 3,-6.8 6.8,-6.8 h 95.4 c 3.8,0 6.8,-3.1 6.8,-6.8 0,-3.8 -3.1,-6.8 -6.8,-6.8 h -95.4 c -3.8,0 -6.8,-3 -6.8,-6.8 0,-3.8 3,-6.8 6.8,-6.8 h 95.4 c 11.3,0 20.4,9.2 20.4,20.4 0,11.2 -9.1,20.4 -20.4,20.4 z"
           class="st0"
           inkscape:connector-curvature="0"
           style="fill:#b59243;fill-opacity:1;stroke-width:1.28556776" />
        <path
           id="path5121"
           d="m 207.2,147.6 -31.2,99 c -0.2,0.8 -0.3,1.7 -0.3,2.6 l -33.3,92.1 c -1.9,5.1 -1.6,10.7 0.7,15.6 2.4,4.9 6.5,8.6 11.6,10.5 2.3,0.8 4.6,1.2 6.9,1.2 8.4,0 16.2,-5.2 19.2,-13.5 l 32.7,-90.5 c 0.5,0.1 1,0.2 1.4,0.2 2.7,0 5.2,-1.6 6.3,-4.2 L 232.4,234 c 2.6,-6.1 9.1,-9.6 15.6,-8.4 3.7,0.7 7.2,-1.8 7.9,-5.5 0.7,-3.7 -1.8,-7.3 -5.5,-7.9 -12.7,-2.3 -25.6,4.6 -30.6,16.6 l -8.8,21 -19.9,-5.7 37,-117.7 c 1.1,-4 3.8,-7.2 7.4,-9.2 3.6,-2 7.8,-2.4 11.7,-1.3 l 35.8,10.4 c 3.9,1.2 7.2,3.8 9.2,7.4 2,3.6 2.4,7.8 1.3,11.7 l -11.4,39.2 c -1,3.6 1,7.4 4.6,8.4 3.6,1.1 7.4,-1 8.4,-4.6 l 11.4,-39.2 c 2.3,-7.4 1.4,-15.2 -2.3,-22 -3.7,-6.8 -9.9,-11.7 -17.3,-13.9 L 251,102.8 c -7.4,-2.2 -15.3,-1.3 -22.1,2.4 -2.3,1.3 -4.4,2.8 -6.2,4.6 M 205,103.5 161.9,86.3 166.8,47.5 c 1.4,-11.2 -6.6,-21.4 -17.7,-22.8 -5.4,-0.7 -10.8,0.8 -15.1,4.1 -4.3,3.4 -7.1,8.2 -7.8,13.6 l -6.8,54.5 c -1.2,9.2 4.1,18.1 12.7,21.5 l 57.4,22.9"
           class="st0"
           inkscape:connector-curvature="0"
           style="fill:#b59243;fill-opacity:1;stroke-width:1.28556776" />
        <path
           id="path5123"
           d="m 300.3,193.5 c -2.4,-4.9 -6.5,-8.7 -11.6,-10.5 l -8.1,-2.9 c -5.1,-1.9 -10.6,-1.6 -15.6,0.7 -4.9,2.4 -8.6,6.5 -10.5,11.6 l -17.1,47.2 c -1.1,2.9 0.1,6.1 2.5,7.9 l -16.4,45.4 c -3.8,10.6 1.7,22.4 12.3,26.2 2.3,0.8 4.7,1.2 7,1.2 3,0 5.9,-0.6 8.7,-1.9 4.9,-2.4 8.7,-6.5 10.5,-11.6 l 16.5,-46 c 0.6,-0.1 1.3,-0.3 1.9,-0.6 1.6,-0.8 2.9,-2.2 3.5,-3.9 L 301,209.1 c 1.9,-5.1 1.6,-10.7 -0.7,-15.6 z m -12.1,11.1 -14.1,39 -20.9,-7.6 14.1,-38.9 c 1.3,-3.5 5.2,-5.4 8.7,-4.1 l 8.1,2.9 c 1.8,0.6 3.1,1.9 3.9,3.5 0.7,1.6 0.8,3.5 0.2,5.2 z"
           class="st0"
           inkscape:connector-curvature="0"
           style="fill:#b59243;fill-opacity:1;stroke-width:1.28556776" />
      </g>
      <g
         id="g5131"
         style="fill:#b59243;fill-opacity:1;stroke-width:1.28556776">
        <path
           id="path5127"
           d="m 254.8,154.9 c -11.2,9.1 -13.7,26.1 -12.7,39.8 16,2.1 25.7,-33.5 12.7,-39.8 z"
           class="st1"
           inkscape:connector-curvature="0"
           style="clip-rule:evenodd;fill:#b59243;fill-opacity:1;fill-rule:evenodd;stroke:#000000;stroke-width:1.28556776;stroke-miterlimit:10" />
        <path
           id="path5129"
           d="m 396.9,129.3 c -25.9,0.8 -51.7,1.4 -77.5,1.7 -1,0 -2,0.1 -3,0.4 -1.5,-0.1 -3,-0.1 -4.5,-0.2 -0.8,-0.1 -1.5,-0.2 -2.3,-0.2 -0.6,0 -1.1,0 -1.7,0.1 -4.2,-0.1 -8.4,-0.1 -12.5,-0.1 -8.3,-12.8 -22.1,-21.4 -38.7,-21.4 -9.4,0 -19.1,3.2 -27,8.7 -0.9,-0.7 -1.9,-1.4 -2.8,-2.2 -0.2,-0.1 -0.4,-0.2 -0.7,-0.4 -1.3,-0.9 -2.7,-1.7 -4.2,-2.2 -0.9,2.1 -1.3,4.1 -3,5.7 0,0.1 -0.5,1.1 -0.5,1.2 0.3,6.4 10.1,16.9 -3.5,17.1 0.3,1.2 -4.4,0.8 -4.3,2 0.2,3.5 -1.6,5.8 -3.4,8.7 0.7,0.3 1.4,0.5 2.2,0.7 0.3,0.1 0.6,0.2 0.9,0.2 -0.4,2.5 -0.6,4.9 -0.5,7.3 0.2,4.1 0.8,8 1.9,11.8 -2.4,4.6 -3.7,9.7 -3.4,15.1 0,1.1 0.2,2.2 0.3,3.3 -6.9,3.7 -11.9,10.9 -11.5,18.9 0.1,2.3 0.5,4.4 1.2,6.5 -7.6,3.4 -13.3,11 -12.9,19.6 0.5,11.6 9.4,21.5 21.4,21.5 11.1,0 21.9,-9.9 21.4,-21.5 -0.1,-2.3 -0.5,-4.4 -1.2,-6.5 4,-1.8 7.5,-4.7 9.7,-8.3 1.8,0.3 3.6,0.4 5.5,0.4 5,0 9.9,-1.3 14.5,-3.5 -4.2,3.9 -6.9,9.4 -6.6,15.4 0.5,11.6 9.4,21.5 21.4,21.5 11.1,0 21.9,-9.9 21.4,-21.5 -0.1,-1.6 -0.3,-3.2 -0.7,-4.7 4.9,-4 8.1,-9.9 7.8,-16.4 -0.3,-7.7 -4.3,-14.5 -10.3,-18.4 l 0.1,-0.1 c 6.9,-6.9 12.3,-17.6 13.4,-27.8 10.2,0.1 20.5,0.6 30.6,1.3 2.5,0.2 5,-0.5 7.2,-1.7 18.6,-0.3 37.1,-0.8 55.7,-1.4 8.1,-0.3 15.8,-6.9 15.4,-15.5 -0.2,-7.8 -6.6,-15.4 -15.3,-15.1 z"
           class="st0"
           inkscape:connector-curvature="0"
           style="fill:#b59243;fill-opacity:1;stroke-width:1.28556776" />
      </g>
    </g>
  </g>
</svg>
