<?xml version="1.0" encoding="utf-8"?>
<!-- Generator: Adobe Illustrator 23.0.3, SVG Export Plug-In . SVG Version: 6.00 Build 0)  -->
<svg version="1.1" id="Capa_1" xmlns="http://www.w3.org/2000/svg" xmlns:xlink="http://www.w3.org/1999/xlink" x="0px" y="0px"
	 viewBox="0 0 436 436" style="enable-background:new 0 0 436 436;" xml:space="preserve">
<style type="text/css">
	.st0{fill:#B59243;}
	.st1{fill:#B59243;stroke:#000000;stroke-miterlimit:10;}
</style>
<g>
	<path class="st0" d="M85.9,303.3c-24.4,0-44.3,19.9-44.3,44.3c0,24.4,19.9,44.3,44.3,44.3c24.4,0,44.2-19.9,44.3-44.3
		C130.2,323.2,110.3,303.3,85.9,303.3z"/>
	<ellipse class="st0" cx="286.8" cy="64.9" rx="40.9" ry="40.9"/>
	<path class="st0" d="M395.8,167.1h-95.4c-3.8,0-6.8-3-6.8-6.8s3-6.8,6.8-6.8h95.4c3.8,0,6.8-3.1,6.8-6.8c0-3.8-3.1-6.8-6.8-6.8
		h-95.4c-3.8,0-6.8-3-6.8-6.8s3-6.8,6.8-6.8h95.4c11.3,0,20.4,9.2,20.4,20.4C416.2,157.9,407.1,167.1,395.8,167.1z"/>
	<path class="st0" d="M207.2,147.6l-31.2,99c-0.2,0.8-0.3,1.7-0.3,2.6l-33.3,92.1c-1.9,5.1-1.6,10.7,0.7,15.6
		c2.4,4.9,6.5,8.6,11.6,10.5c2.3,0.8,4.6,1.2,6.9,1.2c8.4,0,16.2-5.2,19.2-13.5l32.7-90.5c0.5,0.1,1,0.2,1.4,0.2
		c2.7,0,5.2-1.6,6.3-4.2l11.2-26.6c2.6-6.1,9.1-9.6,15.6-8.4c3.7,0.7,7.2-1.8,7.9-5.5c0.7-3.7-1.8-7.3-5.5-7.9
		c-12.7-2.3-25.6,4.6-30.6,16.6l-8.8,21l-19.9-5.7l37-117.7c1.1-4,3.8-7.2,7.4-9.2c3.6-2,7.8-2.4,11.7-1.3l35.8,10.4
		c3.9,1.2,7.2,3.8,9.2,7.4c2,3.6,2.4,7.8,1.3,11.7l-11.4,39.2c-1,3.6,1,7.4,4.6,8.4c3.6,1.1,7.4-1,8.4-4.6l11.4-39.2
		c2.3-7.4,1.4-15.2-2.3-22c-3.7-6.8-9.9-11.7-17.3-13.9L251,102.8c-7.4-2.2-15.3-1.3-22.1,2.4c-2.3,1.3-4.4,2.8-6.2,4.6 M205,103.5
		l-43.1-17.2l4.9-38.8c1.4-11.2-6.6-21.4-17.7-22.8c-5.4-0.7-10.8,0.8-15.1,4.1c-4.3,3.4-7.1,8.2-7.8,13.6l-6.8,54.5
		c-1.2,9.2,4.1,18.1,12.7,21.5l57.4,22.9"/>
	<path class="st0" d="M300.3,193.5c-2.4-4.9-6.5-8.7-11.6-10.5l-8.1-2.9c-5.1-1.9-10.6-1.6-15.6,0.7c-4.9,2.4-8.6,6.5-10.5,11.6
		l-17.1,47.2c-1.1,2.9,0.1,6.1,2.5,7.9l-16.4,45.4c-3.8,10.6,1.7,22.4,12.3,26.2c2.3,0.8,4.7,1.2,7,1.2c3,0,5.9-0.6,8.7-1.9
		c4.9-2.4,8.7-6.5,10.5-11.6l16.5-46c0.6-0.1,1.3-0.3,1.9-0.6c1.6-0.8,2.9-2.2,3.5-3.9l17.1-47.2C302.9,204,302.6,198.4,300.3,193.5
		z M288.2,204.6l-14.1,39l-20.9-7.6l14.1-38.9c1.3-3.5,5.2-5.4,8.7-4.1l8.1,2.9c1.8,0.6,3.1,1.9,3.9,3.5
		C288.7,201,288.8,202.9,288.2,204.6z"/>
</g>
<g>
	<path class="st1" d="M254.8,154.9c-11.2,9.1-13.7,26.1-12.7,39.8C258.1,196.8,267.8,161.2,254.8,154.9z"/>
	<path class="st0" d="M396.9,129.3c-25.9,0.8-51.7,1.4-77.5,1.7c-1,0-2,0.1-3,0.4c-1.5-0.1-3-0.1-4.5-0.2c-0.8-0.1-1.5-0.2-2.3-0.2
		c-0.6,0-1.1,0-1.7,0.1c-4.2-0.1-8.4-0.1-12.5-0.1c-8.3-12.8-22.1-21.4-38.7-21.4c-9.4,0-19.1,3.2-27,8.7c-0.9-0.7-1.9-1.4-2.8-2.2
		c-0.2-0.1-0.4-0.2-0.7-0.4c-1.3-0.9-2.7-1.7-4.2-2.2c-0.9,2.1-1.3,4.1-3,5.7c0,0.1-0.5,1.1-0.5,1.2c0.3,6.4,10.1,16.9-3.5,17.1
		c0.3,1.2-4.4,0.8-4.3,2c0.2,3.5-1.6,5.8-3.4,8.7c0.7,0.3,1.4,0.5,2.2,0.7c0.3,0.1,0.6,0.2,0.9,0.2c-0.4,2.5-0.6,4.9-0.5,7.3
		c0.2,4.1,0.8,8,1.9,11.8c-2.4,4.6-3.7,9.7-3.4,15.1c0,1.1,0.2,2.2,0.3,3.3c-6.9,3.7-11.9,10.9-11.5,18.9c0.1,2.3,0.5,4.4,1.2,6.5
		c-7.6,3.4-13.3,11-12.9,19.6c0.5,11.6,9.4,21.5,21.4,21.5c11.1,0,21.9-9.9,21.4-21.5c-0.1-2.3-0.5-4.4-1.2-6.5
		c4-1.8,7.5-4.7,9.7-8.3c1.8,0.3,3.6,0.4,5.5,0.4c5,0,9.9-1.3,14.5-3.5c-4.2,3.9-6.9,9.4-6.6,15.4c0.5,11.6,9.4,21.5,21.4,21.5
		c11.1,0,21.9-9.9,21.4-21.5c-0.1-1.6-0.3-3.2-0.7-4.7c4.9-4,8.1-9.9,7.8-16.4c-0.3-7.7-4.3-14.5-10.3-18.4l0.1-0.1
		c6.9-6.9,12.3-17.6,13.4-27.8c10.2,0.1,20.5,0.6,30.6,1.3c2.5,0.2,5-0.5,7.2-1.7c18.6-0.3,37.1-0.8,55.7-1.4
		c8.1-0.3,15.8-6.9,15.4-15.5C412,136.6,405.6,129,396.9,129.3z"/>
</g>
</svg>
