<?xml version="1.0" encoding="utf-8"?>
<!-- Generator: Adobe Illustrator 23.0.3, SVG Export Plug-In . SVG Version: 6.00 Build 0)  -->
<svg version="1.1" id="Capa_1" xmlns="http://www.w3.org/2000/svg" xmlns:xlink="http://www.w3.org/1999/xlink" x="0px" y="0px"
	 viewBox="0 0 100 81.9" style="enable-background:new 0 0 100 81.9;" xml:space="preserve">
<style type="text/css">
	.st0{fill:#A7D1CA;}
	.st1{fill:#A7D1CA;stroke:#A7D1CA;stroke-width:4;stroke-miterlimit:10;}
</style>
<path class="st0" d="M64,22.7c4.9,0,8.9-4,8.9-8.9c0-4.9-4-8.9-8.9-8.9c-4.9,0-9,4-9,8.9C55,18.7,59,22.7,64,22.7z"/>
<image style="overflow:visible;" width="919" height="518" xlink:href="E7D1CAD8.jpg"  transform="matrix(0.2303 0 0 0.2303 -111.9464 120.2941)">
</image>
<path class="st0" d="M65.1,26.2c-8.7-5.3-12.3,3.5-12.3,3.5L40.6,52.2l-32,0c1,6.4,6.3,15,8.9,19c1.6-0.8,3.5-1.3,5.4-1.3
	c2,0,3.9,0.5,5.6,1.4c1.7,0.8,3.5,1.3,5.4,1.3c1.9,0,3.8-0.5,5.4-1.3c1.7-0.9,3.6-1.4,5.6-1.4s3.9,0.5,5.6,1.4
	c1.7,0.8,3.5,1.3,5.4,1.3c1.9,0,3.8-0.5,5.4-1.3c1.1-0.6,2.2-0.9,3.4-1.2l14.1-17.6H60.7l7.5-14.1"/>
<path class="st0" d="M71.9,39.4l18,9.8c5.9,3.4,10.3-4.4,4.4-7.8L68.5,27.3"/>
<path class="st0" d="M68.9,70.1c1.3,0.2,2.5,0.6,3.6,1.2c1.6,0.8,3.5,1.3,5.4,1.3c1.9,0,3.8-0.5,5.4-1.3c1.7-0.9,3.6-1.4,5.6-1.4
	c2,0,3.9,0.5,5.6,1.4c1.6,0.8,3.5,1.3,5.4,1.3l0-20l-17,0L68.9,70.1z"/>
<line class="st1" x1="86.5" y1="44.5" x2="80.2" y2="53.8"/>
</svg>
