<?xml version="1.0" encoding="UTF-8" standalone="no"?>
<!-- Created with Inkscape (http://www.inkscape.org/) -->

<svg
   xmlns:dc="http://purl.org/dc/elements/1.1/"
   xmlns:cc="http://creativecommons.org/ns#"
   xmlns:rdf="http://www.w3.org/1999/02/22-rdf-syntax-ns#"
   xmlns:svg="http://www.w3.org/2000/svg"
   xmlns="http://www.w3.org/2000/svg"
   xmlns:sodipodi="http://sodipodi.sourceforge.net/DTD/sodipodi-0.dtd"
   xmlns:inkscape="http://www.inkscape.org/namespaces/inkscape"
   width="80.675758mm"
   height="80.675758mm"
   viewBox="0 0 80.675758 80.675758"
   version="1.1"
   id="svg8"
   inkscape:version="0.92.1 r15371"
   sodipodi:docname="kayak.svg">
  <defs
     id="defs2" />
  <sodipodi:namedview
     id="base"
     pagecolor="#ffffff"
     bordercolor="#666666"
     borderopacity="1.0"
     inkscape:pageopacity="0.0"
     inkscape:pageshadow="2"
     inkscape:zoom="0.35"
     inkscape:cx="-188.97045"
     inkscape:cy="127.07679"
     inkscape:document-units="mm"
     inkscape:current-layer="layer1"
     showgrid="false"
     fit-margin-top="0"
     fit-margin-left="0"
     fit-margin-right="0"
     fit-margin-bottom="0"
     inkscape:window-width="1366"
     inkscape:window-height="705"
     inkscape:window-x="-8"
     inkscape:window-y="-8"
     inkscape:window-maximized="1" />
  <metadata
     id="metadata5">
    <rdf:RDF>
      <cc:Work
         rdf:about="">
        <dc:format>image/svg+xml</dc:format>
        <dc:type
           rdf:resource="http://purl.org/dc/dcmitype/StillImage" />
        <dc:title></dc:title>
      </cc:Work>
    </rdf:RDF>
  </metadata>
  <g
     inkscape:label="Layer 1"
     inkscape:groupmode="layer"
     id="layer1"
     transform="translate(-29.965693,-117.56688)">
    <rect
       style="opacity:1;vector-effect:none;fill:none;fill-opacity:1;fill-rule:evenodd;stroke:none;stroke-width:0.1;stroke-linecap:butt;stroke-linejoin:miter;stroke-miterlimit:4;stroke-dasharray:none;stroke-dashoffset:0;stroke-opacity:1"
       id="rect5477-8-183"
       width="80.675758"
       height="80.675758"
       x="29.693291"
       y="117.08333"
       rx="0"
       ry="0"
       inkscape:export-filename="C:\Users\Pablo\Desktop\CARTOMETRICS\9 PROYECTOS\ANTIGUOS\10 Webgis MalagaActiva\logosUlt\kayak.png"
       inkscape:export-xdpi="11.019427"
       inkscape:export-ydpi="11.019427" />
    <g
       id="g4626"
       transform="matrix(0.24962544,0,0,0.24962544,32.55523,118.74388)"
       style="fill:#cb8672;fill-opacity:1;stroke-width:1.05992126"
       inkscape:export-filename="C:\Users\Pablo\Desktop\CARTOMETRICS\9 PROYECTOS\ANTIGUOS\10 Webgis MalagaActiva\logosUlt\kayak.png"
       inkscape:export-xdpi="11.019427"
       inkscape:export-ydpi="11.019427">
      <g
         id="g4624"
         style="fill:#cb8672;fill-opacity:1;stroke-width:1.05992126">
        <g
           id="g4622"
           style="fill:#cb8672;fill-opacity:1;stroke-width:1.05992126">
          <path
             id="path4614"
             d="m 105.9,135.1 -56.5,67.6 -13,4.9 c -2.8,1.1 -6.7,3.7 -8.6,6 L 2.4,242.9 c -2,2.3 -3.2,6.5 -2,9.3 3.2,7.5 9.6,11.2 14.2,13 2.8,1.1 7.5,0.7 9.9,-1.2 8.7,-7 21.1,-25 26.7,-33.5 1.6,-2.5 3.2,-7 3.5,-10 l 1.5,-13.4 49.2,-59.5"
             class="st0"
             inkscape:connector-curvature="0"
             style="fill:#cb8672;fill-opacity:1;stroke-width:1.05992126" />
          <path
             id="path4616"
             d="m 115.9,135.8 v 27.4 l 20.5,-13.7 c 9.2,-5.5 22.4,-5.3 30.8,-0.2 l 21,14 v -26.4 l 58.8,70.4 1.5,13.4 c 0.3,3 1.9,7.4 3.5,10 5.6,8.5 18,26.6 26.7,33.5 2.3,1.9 7.1,2.3 9.9,1.2 4.6,-1.8 11,-5.5 14.2,-13 1.2,-2.7 0,-7 -2,-9.3 l -25.3,-29.3 c -2,-2.3 -5.8,-5 -8.6,-6 l -13,-4.9 -65.7,-78.9 v -7.1 C 188.2,104 177.8,93.6 164.9,93.6 H 139.3 C 126.4,93.6 116,104 116,116.9 v 6.2"
             class="st0"
             inkscape:connector-curvature="0"
             style="fill:#cb8672;fill-opacity:1;stroke-width:1.05992126" />
          <path
             id="path4618"
             d="m 162.4,157.2 c -5.8,-3.4 -15.1,-3.4 -20.8,0 l -71.1,47.4 c -5.8,3.4 -9.4,11.6 -7.3,18 7.1,20.6 28.7,56.5 88.8,57.1 60.3,0.6 81.8,-36.1 88.8,-57.1 2.1,-6.4 -1.6,-14.5 -7.3,-18 z"
             class="st0"
             inkscape:connector-curvature="0"
             style="fill:#cb8672;fill-opacity:1;stroke-width:1.05992126" />
          <circle
             id="ellipse4620"
             cy="56.299999"
             cx="152"
             class="st0"
             transform="matrix(0.1091,-0.994,0.994,0.1091,79.4504,201.2491)"
             r="32.599998"
             style="fill:#cb8672;fill-opacity:1;stroke-width:1.05992126" />
        </g>
      </g>
    </g>
  </g>
</svg>
