<?xml version="1.0" encoding="utf-8"?>
<!-- Generator: Adobe Illustrator 23.0.3, SVG Export Plug-In . SVG Version: 6.00 Build 0)  -->
<svg version="1.1" id="Capa_1" xmlns="http://www.w3.org/2000/svg" xmlns:xlink="http://www.w3.org/1999/xlink" x="0px" y="0px"
	 viewBox="0 -2 10 22" style="enable-background:new 0 0 10.8 22;" xml:space="preserve">
<style type="text/css">
	.st0{fill:#8F4B62;}
	.st1{fill-rule:evenodd;clip-rule:evenodd;fill:#8F4B62;}
</style>
<g>
	<g>
		<path class="st0" d="M3.5,12.8c-1.1,2.7-1.6,4.2-1.6,4.5C3.1,17.4,2.7,18,2.5,18H0.8c-0.1,0-0.2-0.1-0.2-0.2
			c0-0.6,1.1-6.8,1.3-6.6C2.3,11.5,3.1,12.2,3.5,12.8z"/>
		<path class="st0" d="M5.2,4.7C6.4,6.1,7.5,7,8.3,7.3c0.2,0,0.5,0.9,0.8,2.8c0,0.1,0.6,2.6,1.7,7.5l-0.5,0.1
			c-0.1-0.2-2.1-8.7-2.4-9.6C5.3,7.2,5.5,7,5.2,4.7C5.1,4.7,5.2,4.7,5.2,4.7z"/>
		<path class="st0" d="M3,4.4c1.6,0,2,0.2,2,2.1c0.2,2.2,0.6,3.9,1,5.1"/>
		<path class="st0" d="M6,11.6c0,0,0,0.1,0,0.1c0.7,1.1,0.8,4.2,0.8,5.7c1.4,0.1,0.9,0.7,0.8,0.7H5.8c-0.1,0-0.4-1.2-0.8-3.6
			c-0.4-1.3-1.1-2.4-2-3.2c-0.6-0.4-0.9-0.8-0.9-1.2C2.3,8.7,2.4,7.6,2.4,7c-0.5,0.4-0.9,1.4-1.2,3.1c0,1.1-1,0.4-1,0.3
			c0.3-3.3,1.3-5.3,2.9-6"/>
		<circle class="st1" cx="4" cy="2.1" r="1.7"/>
	</g>
</g>
<rect x="1.9" y="10.3" transform="matrix(0.962 0.2729 -0.2729 0.962 3.2214 -0.3349)" class="st0" width="1.9" height="2.3"/>
<rect x="2.3" y="13.7" class="st0" width="0.2" height="0.2"/>
<rect x="0.6" y="10.1" transform="matrix(0.9993 -3.757863e-02 3.757863e-02 0.9993 -0.5265 4.281438e-02)" class="st0" width="0.5" height="7.9"/>
</svg>
