<?xml version="1.0" encoding="UTF-8" standalone="no"?>
<!-- Created with Inkscape (http://www.inkscape.org/) -->

<svg
   xmlns:dc="http://purl.org/dc/elements/1.1/"
   xmlns:cc="http://creativecommons.org/ns#"
   xmlns:rdf="http://www.w3.org/1999/02/22-rdf-syntax-ns#"
   xmlns:svg="http://www.w3.org/2000/svg"
   xmlns="http://www.w3.org/2000/svg"
   xmlns:sodipodi="http://sodipodi.sourceforge.net/DTD/sodipodi-0.dtd"
   xmlns:inkscape="http://www.inkscape.org/namespaces/inkscape"
   width="80.675758mm"
   height="80.675758mm"
   viewBox="0 0 80.675758 80.675758"
   version="1.1"
   id="svg8"
   inkscape:version="0.92.1 r15371"
   sodipodi:docname="marchadeportiva.svg">
  <defs
     id="defs2" />
  <sodipodi:namedview
     id="base"
     pagecolor="#ffffff"
     bordercolor="#666666"
     borderopacity="1.0"
     inkscape:pageopacity="0.0"
     inkscape:pageshadow="2"
     inkscape:zoom="0.35"
     inkscape:cx="-188.97045"
     inkscape:cy="127.07679"
     inkscape:document-units="mm"
     inkscape:current-layer="layer1"
     showgrid="false"
     fit-margin-top="0"
     fit-margin-left="0"
     fit-margin-right="0"
     fit-margin-bottom="0"
     inkscape:window-width="1366"
     inkscape:window-height="705"
     inkscape:window-x="-8"
     inkscape:window-y="-8"
     inkscape:window-maximized="1" />
  <metadata
     id="metadata5">
    <rdf:RDF>
      <cc:Work
         rdf:about="">
        <dc:format>image/svg+xml</dc:format>
        <dc:type
           rdf:resource="http://purl.org/dc/dcmitype/StillImage" />
        <dc:title></dc:title>
      </cc:Work>
    </rdf:RDF>
  </metadata>
  <g
     inkscape:label="Layer 1"
     inkscape:groupmode="layer"
     id="layer1"
     transform="translate(-29.965693,-117.56688)">
    <rect
       style="opacity:1;vector-effect:none;fill:none;fill-opacity:1;fill-rule:evenodd;stroke:none;stroke-width:0.1;stroke-linecap:butt;stroke-linejoin:miter;stroke-miterlimit:4;stroke-dasharray:none;stroke-dashoffset:0;stroke-opacity:1"
       id="rect5477-8-63"
       width="80.675758"
       height="80.675758"
       x="31.205196"
       y="117.97273"
       rx="0"
       ry="0"
       inkscape:export-filename="C:\Users\Pablo\Desktop\CARTOMETRICS\9 PROYECTOS\ANTIGUOS\10 Webgis MalagaActiva\logosUlt\marchadeportiva.png"
       inkscape:export-xdpi="11.019427"
       inkscape:export-ydpi="11.019427" />
    <g
       id="g5196"
       transform="matrix(0.90998852,0,0,0.90998852,26.172251,112.42789)"
       style="fill:#f3d48a;fill-opacity:1;stroke-width:0.29075459"
       inkscape:export-filename="C:\Users\Pablo\Desktop\CARTOMETRICS\9 PROYECTOS\ANTIGUOS\10 Webgis MalagaActiva\logosUlt\marchadeportiva.png"
       inkscape:export-xdpi="11.019427"
       inkscape:export-ydpi="11.019427">
      <g
         id="g5194"
         style="fill:#f3d48a;fill-opacity:1;stroke-width:0.29075459">
        <g
           id="g5192"
           style="fill:#f3d48a;fill-opacity:1;stroke-width:0.29075459">
          <path
             id="path5184"
             d="m 35.4,65.8 7.5,7.5 -6.5,17.6 c -0.7,2 -2.6,3.2 -4.6,3.2 -0.6,0 -1.1,-0.1 -1.7,-0.3 -2.5,-0.9 -3.8,-3.7 -2.9,-6.2 z"
             class="st0"
             inkscape:connector-curvature="0"
             style="fill:#f3d48a;fill-opacity:1;stroke-width:0.29075459" />
          <path
             id="path5186"
             d="m 54.8,28 c 2.1,0.1 3.6,0.7 10.8,11.1 0.3,0.4 0.7,0.7 1.2,0.7 l 8.5,1.3 c 2.3,0.4 3.9,2.5 3.5,4.8 -0.4,2.3 -2.5,3.9 -4.8,3.5 l -8.5,-1.3 c -2.8,-0.5 -5.3,-2 -6.9,-4.3 -0.4,-0.6 -0.7,-1 -1,-1.5"
             class="st0"
             inkscape:connector-curvature="0"
             style="fill:#f3d48a;fill-opacity:1;stroke-width:0.29075459" />
          <path
             id="path5188"
             d="m 53.6,41.6 -5.5,17.4 7.6,7.6 c 1.1,1.1 2,2.6 2.6,4.1 l 5.9,17.1 c 0.9,2.5 -0.5,5.3 -3,6.1 -0.6,0.2 -1,0.3 -1.6,0.3 -2,0 -3.9,-1.3 -4.6,-3.3 L 49.1,73.8 C 49,73.6 48.9,73.5 48.8,73.3 L 35.3,59.8 c -2,-2 -2.7,-4.6 -2.1,-7.2 l 3,-13.2 c -0.3,0.2 -0.6,0.4 -0.9,0.6 -0.8,0.5 -1.5,1.2 -2,2 l -4.5,8.5 c -0.7,1.4 -2.2,2.2 -3.7,2.2 -0.7,0 -1.3,-0.2 -2,-0.5 -2,-1.1 -2.8,-3.6 -1.8,-5.7 L 25.8,38 c 1.2,-2.2 3,-4.1 5.1,-5.4 10.3,-6.1 11.6,-6 12.9,-5.9 l 7,0.5"
             class="st0"
             inkscape:connector-curvature="0"
             style="fill:#f3d48a;fill-opacity:1;stroke-width:0.29075459" />
          <circle
             id="ellipse5190"
             cy="15.2"
             cx="48.799999"
             class="st0"
             r="9.3999996"
             style="fill:#f3d48a;fill-opacity:1;stroke-width:0.29075459" />
        </g>
      </g>
    </g>
  </g>
</svg>
