<?xml version="1.0" encoding="utf-8"?>
<!-- Generator: Adobe Illustrator 23.0.3, SVG Export Plug-In . SVG Version: 6.00 Build 0)  -->
<svg version="1.1" id="Capa_1" xmlns="http://www.w3.org/2000/svg" xmlns:xlink="http://www.w3.org/1999/xlink" x="0px" y="0px"
	 viewBox="0 0 95 105" style="enable-background:new 0 0 100 125;" xml:space="preserve">
<style type="text/css">
	.st0{fill:#F3D48A;}
</style>
<g>
	<g>
		<g>
			<path class="st0" d="M35.4,65.8l7.5,7.5l-6.5,17.6c-0.7,2-2.6,3.2-4.6,3.2c-0.6,0-1.1-0.1-1.7-0.3c-2.5-0.9-3.8-3.7-2.9-6.2
				L35.4,65.8z"/>
			<path class="st0" d="M54.8,28c2.1,0.1,3.6,0.7,10.8,11.1c0.3,0.4,0.7,0.7,1.2,0.7l8.5,1.3c2.3,0.4,3.9,2.5,3.5,4.8
				s-2.5,3.9-4.8,3.5l-8.5-1.3c-2.8-0.5-5.3-2-6.9-4.3c-0.4-0.6-0.7-1-1-1.5"/>
			<path class="st0" d="M53.6,41.6L48.1,59l7.6,7.6c1.1,1.1,2,2.6,2.6,4.1l5.9,17.1c0.9,2.5-0.5,5.3-3,6.1c-0.6,0.2-1,0.3-1.6,0.3
				c-2,0-3.9-1.3-4.6-3.3l-5.9-17.1c-0.1-0.2-0.2-0.3-0.3-0.5L35.3,59.8c-2-2-2.7-4.6-2.1-7.2l3-13.2c-0.3,0.2-0.6,0.4-0.9,0.6
				c-0.8,0.5-1.5,1.2-2,2l-4.5,8.5c-0.7,1.4-2.2,2.2-3.7,2.2c-0.7,0-1.3-0.2-2-0.5c-2-1.1-2.8-3.6-1.8-5.7l4.5-8.5
				c1.2-2.2,3-4.1,5.1-5.4c10.3-6.1,11.6-6,12.9-5.9l7,0.5"/>
			<ellipse class="st0" cx="48.8" cy="15.2" rx="9.4" ry="9.4"/>
		</g>
	</g>
</g>
</svg>
