<?xml version="1.0" encoding="UTF-8" standalone="no"?>
<!-- Created with Inkscape (http://www.inkscape.org/) -->

<svg
   xmlns:dc="http://purl.org/dc/elements/1.1/"
   xmlns:cc="http://creativecommons.org/ns#"
   xmlns:rdf="http://www.w3.org/1999/02/22-rdf-syntax-ns#"
   xmlns:svg="http://www.w3.org/2000/svg"
   xmlns="http://www.w3.org/2000/svg"
   xmlns:sodipodi="http://sodipodi.sourceforge.net/DTD/sodipodi-0.dtd"
   xmlns:inkscape="http://www.inkscape.org/namespaces/inkscape"
   width="80.675758mm"
   height="80.675758mm"
   viewBox="0 0 80.675758 80.675758"
   version="1.1"
   id="svg8"
   inkscape:version="0.92.1 r15371"
   sodipodi:docname="nadolibre.svg">
  <defs
     id="defs2" />
  <sodipodi:namedview
     id="base"
     pagecolor="#ffffff"
     bordercolor="#666666"
     borderopacity="1.0"
     inkscape:pageopacity="0.0"
     inkscape:pageshadow="2"
     inkscape:zoom="0.35"
     inkscape:cx="-188.97045"
     inkscape:cy="127.07679"
     inkscape:document-units="mm"
     inkscape:current-layer="layer1"
     showgrid="false"
     fit-margin-top="0"
     fit-margin-left="0"
     fit-margin-right="0"
     fit-margin-bottom="0"
     inkscape:window-width="1366"
     inkscape:window-height="705"
     inkscape:window-x="-8"
     inkscape:window-y="-8"
     inkscape:window-maximized="1" />
  <metadata
     id="metadata5">
    <rdf:RDF>
      <cc:Work
         rdf:about="">
        <dc:format>image/svg+xml</dc:format>
        <dc:type
           rdf:resource="http://purl.org/dc/dcmitype/StillImage" />
        <dc:title></dc:title>
      </cc:Work>
    </rdf:RDF>
  </metadata>
  <g
     inkscape:label="Layer 1"
     inkscape:groupmode="layer"
     id="layer1"
     transform="translate(-29.965693,-117.56688)">
    <rect
       style="opacity:1;vector-effect:none;fill:none;fill-opacity:1;fill-rule:evenodd;stroke:none;stroke-width:0.1;stroke-linecap:butt;stroke-linejoin:miter;stroke-miterlimit:4;stroke-dasharray:none;stroke-dashoffset:0;stroke-opacity:1"
       id="rect5477-8-44"
       width="80.675758"
       height="80.675758"
       x="30.449242"
       y="117.83929"
       rx="0"
       ry="0"
       inkscape:export-filename="C:\Users\Pablo\Desktop\CARTOMETRICS\9 PROYECTOS\ANTIGUOS\10 Webgis MalagaActiva\logosUlt\nadolibre.png"
       inkscape:export-xdpi="11.019427"
       inkscape:export-ydpi="11.019427" />
    <g
       id="g5433"
       transform="matrix(0.3774182,0,0,0.3774182,-89.221862,62.556943)"
       style="fill:#bd8746;fill-opacity:1;stroke-width:2.64958072"
       inkscape:export-filename="C:\Users\Pablo\Desktop\CARTOMETRICS\9 PROYECTOS\ANTIGUOS\10 Webgis MalagaActiva\logosUlt\nadolibre.png"
       inkscape:export-xdpi="11.019427"
       inkscape:export-ydpi="11.019427">
      <path
         id="path5215"
         d="m 507.44,276.71272 c -3.98608,-1.25878 -7.97223,-1.6784 -12.1682,-1.6784 -4.19596,0 -7.97231,0.62958 -12.16819,1.6784 -3.56654,1.04897 -7.34288,1.67832 -11.32903,1.67832 -4.19597,0 -7.7625,-0.62959 -11.32904,-1.67832 -3.98615,-1.25878 -7.97231,-1.6784 -11.95846,-1.6784 -4.19589,0 -7.97223,0.62958 -11.95839,1.6784 -3.98615,1.04897 -7.7625,1.67832 -11.95846,1.67832 -3.98616,0 -7.7625,-0.62959 -11.74858,-1.67832 -3.98615,-1.25878 -7.7625,-1.6784 -11.95846,-1.6784 -3.98616,0 -7.97231,0.62958 -11.95839,1.6784 -3.56661,1.04897 -7.34295,1.67832 -11.32903,1.67832 -3.98615,0 -7.7625,-0.62959 -11.32903,-1.67832 -4.19597,-1.25878 -7.97231,-1.6784 -12.16828,-1.6784 -4.19588,0 -7.97223,0.62958 -11.74857,1.6784 -4.19597,1.04897 -7.97231,1.67832 -11.95847,1.67832 v 11.95846 c 3.98616,0 7.7625,-0.62959 11.95847,-1.88821 3.56653,-1.25878 7.55269,-1.67832 11.74857,-1.67832 4.19597,0 7.97231,0.62959 12.16828,1.67832 3.56653,1.25878 7.34288,1.88821 11.32903,1.88821 3.98608,0 7.76242,-0.62959 11.32903,-1.88821 3.98608,-1.25878 7.97223,-1.67832 12.1682,-1.67832 4.19596,0 7.97231,0.62959 11.74865,1.67832 3.98608,1.25878 7.76242,1.88821 11.74858,1.88821 4.19596,0 7.97231,-0.62959 11.95846,-1.88821 3.56654,-1.25878 7.55269,-1.67832 11.74858,-1.67832 4.19596,0 8.39193,0.62959 12.16827,1.67832 3.56654,1.25878 7.34288,1.88821 11.32904,1.88821 4.19588,0 7.76249,-0.62959 11.32903,-1.88821 4.19588,-1.25878 7.97223,-1.67832 12.16819,-1.67832 4.19597,0 8.39185,0.62959 12.1682,1.67832 3.56661,1.25878 7.55269,1.88821 11.32903,1.88821 v -11.95846 c -3.77634,-0.21013 -7.55269,-0.62959 -11.32903,-1.67832 z"
         class="st0"
         inkscape:connector-curvature="0"
         style="fill:#bd8746;fill-opacity:1;stroke-width:0.70103496" />
      <path
         id="path5219"
         d="m 428.76619,230.76715 c -5.87428,-2.51756 -41.12017,-19.09153 -41.12017,-19.09153 -2.09802,-0.83916 -4.40577,-0.83916 -6.2939,-0.21013 l -36.71448,13.8466 c -4.19596,1.46859 -6.50372,6.29391 -5.03513,10.48987 1.4686,4.40578 6.50372,6.50372 10.69961,4.82532 l 33.56756,-12.58782 19.93069,9.02128"
         class="st0"
         inkscape:connector-curvature="0"
         style="fill:#bd8746;fill-opacity:1;stroke-width:0.70103496" />
      <path
         id="path5221"
         d="m 410.72363,241.88637 -41.7496,18.88173 c 1.88821,0.83924 3.3568,1.46859 5.03513,2.51756 8.60174,-6.29391 58.53338,-6.29391 66.92523,0 2.30775,-1.88813 3.98615,-3.98615 5.03512,-6.71345 1.4686,-4.19596 1.4686,-8.60174 -0.21012,-12.37808 -1.25878,-2.93711 -4.4057,-6.29391 -9.86045,-8.60166"
         class="st0"
         inkscape:connector-curvature="0"
         style="fill:#bd8746;fill-opacity:1;stroke-width:0.70103496" />
      <path
         id="path5223"
         d="m 466.73945,254.89381 c 10.07025,-1.04897 17.62294,-9.65063 16.7837,-19.72088 -0.83916,-10.07026 -9.65063,-17.62295 -19.72088,-16.78378 -9.86045,0.83916 -17.41314,9.65063 -16.57397,19.72088 0.83924,10.07025 9.65071,17.62294 19.51115,16.78378 z"
         class="st0"
         inkscape:connector-curvature="0"
         style="fill:#bd8746;fill-opacity:1;stroke-width:0.70103496" />
    </g>
  </g>
</svg>
