<?xml version="1.0" encoding="utf-8"?>
<!-- Generator: Adobe Illustrator 23.0.3, SVG Export Plug-In . SVG Version: 6.00 Build 0)  -->
<svg version="1.1" id="Capa_1" xmlns="http://www.w3.org/2000/svg" xmlns:xlink="http://www.w3.org/1999/xlink" x="0px" y="0px"
	 viewBox="0 0 100 90" style="enable-background:new 0 0 100 125;" xml:space="preserve">
<style type="text/css">
	.st0{fill:#BD8746;}
</style>
<g>
	<path class="st0" d="M90.9,56c-1.9-0.6-3.8-0.8-5.8-0.8c-2,0-3.8,0.3-5.8,0.8c-1.7,0.5-3.5,0.8-5.4,0.8c-2,0-3.7-0.3-5.4-0.8
		c-1.9-0.6-3.8-0.8-5.7-0.8c-2,0-3.8,0.3-5.7,0.8c-1.9,0.5-3.7,0.8-5.7,0.8c-1.9,0-3.7-0.3-5.6-0.8c-1.9-0.6-3.7-0.8-5.7-0.8
		c-1.9,0-3.8,0.3-5.7,0.8c-1.7,0.5-3.5,0.8-5.4,0.8s-3.7-0.3-5.4-0.8c-2-0.6-3.8-0.8-5.8-0.8c-2,0-3.8,0.3-5.6,0.8
		c-2,0.5-3.8,0.8-5.7,0.8v5.7c1.9,0,3.7-0.3,5.7-0.9c1.7-0.6,3.6-0.8,5.6-0.8c2,0,3.8,0.3,5.8,0.8c1.7,0.6,3.5,0.9,5.4,0.9
		s3.7-0.3,5.4-0.9c1.9-0.6,3.8-0.8,5.8-0.8c2,0,3.8,0.3,5.6,0.8c1.9,0.6,3.7,0.9,5.6,0.9c2,0,3.8-0.3,5.7-0.9
		c1.7-0.6,3.6-0.8,5.6-0.8c2,0,4,0.3,5.8,0.8c1.7,0.6,3.5,0.9,5.4,0.9c2,0,3.7-0.3,5.4-0.9c2-0.6,3.8-0.8,5.8-0.8c2,0,4,0.3,5.8,0.8
		c1.7,0.6,3.6,0.9,5.4,0.9v-5.7C94.5,56.7,92.7,56.5,90.9,56z"/>
	
		<image style="overflow:visible;" width="919" height="518" xlink:href="841EDF22.jpg"  transform="matrix(1 0 0 1 -388.6236 156.2123)">
	</image>
	<path class="st0" d="M53.4,34.1C50.6,32.9,33.8,25,33.8,25c-1-0.4-2.1-0.4-3-0.1l-17.5,6.6c-2,0.7-3.1,3-2.4,5
		c0.7,2.1,3.1,3.1,5.1,2.3L32,32.8l9.5,4.3"/>
	<path class="st0" d="M44.8,39.4l-19.9,9c0.9,0.4,1.6,0.7,2.4,1.2c4.1-3,27.9-3,31.9,0c1.1-0.9,1.9-1.9,2.4-3.2
		c0.7-2,0.7-4.1-0.1-5.9c-0.6-1.4-2.1-3-4.7-4.1"/>
	<path class="st0" d="M71.5,45.6c4.8-0.5,8.4-4.6,8-9.4c-0.4-4.8-4.6-8.4-9.4-8c-4.7,0.4-8.3,4.6-7.9,9.4
		C62.6,42.4,66.8,46,71.5,45.6z"/>
</g>
</svg>
