<?xml version="1.0" encoding="utf-8"?>
<!-- Generator: Adobe Illustrator 23.0.3, SVG Export Plug-In . SVG Version: 6.00 Build 0)  -->
<svg version="1.1" id="Capa_1" xmlns="http://www.w3.org/2000/svg" xmlns:xlink="http://www.w3.org/1999/xlink" x="0px" y="0px"
	 viewBox="-10 -5 110 115" style="enable-background:new 0 0 100 125;" xml:space="preserve">
<style type="text/css">
	.st0{fill:#4AB9B2;}
</style>
<g>
	<g>
		<ellipse class="st0" cx="51.3" cy="11.5" rx="10" ry="10"/>
		<path class="st0" d="M77,97.6c0-0.2-0.1-0.4-0.1-0.6c0-0.2-0.1-0.4-0.1-0.5c-0.1-0.4-0.1-0.9-0.1-1.4c0-0.5,0-0.9,0-1.4
			c0-0.1,0-0.3,0-0.4c0-0.4,0.1-0.7,0.1-1.1c0-0.2,0.1-0.5,0.1-0.7c0,0,0,0,0,0c0,0,0-0.1,0-0.1c-0.3,0.1-0.6,0.1-0.9,0.1H65.6
			L73,53.8c1.5-0.7,2.7-2.1,3-3.9c0.4-2.8-1.5-5.3-4.2-5.7l-11.2-1.7l-9.3-13.7l9.3,13.7c0,0-8.8-12.8-9.3-13.7
			c-0.7-1.1-1.5-1.9-2.1-2.3c-2.1-1.6-4.8-2.2-7.4-1.7c-2.6,0.5-4.9,2.1-6.2,4.4c-0.2,0.4-0.4,0.8-0.5,1.2l-7.6,22.4
			c-0.7,2.2-0.2,4.5,1.4,6.2l13.3,13.6l-5.3,18.5v0.3H9.1c-2.1,0-3.8,1.7-3.8,3.8C5.3,97.3,7,99,9.1,99h67c0.4,0,0.8,0,1.3-0.1
			C77.2,98.5,77.1,98.1,77,97.6z M49.3,91.3l6.1-18.6c0.7-1.9,0.3-4-0.9-5.6l-8.2-10.8l3.6-11.6l3.5,5.2c0.8,1.2,2,2,3.4,2.2l11,1.6
			l-7.4,37.6H49.3z"/>
		<path class="st0" d="M49.9,44.7l3.5,5.2"/>
	</g>
</g>
</svg>
