<?xml version="1.0" encoding="UTF-8" standalone="no"?>
<!-- Created with Inkscape (http://www.inkscape.org/) -->

<svg
   xmlns:dc="http://purl.org/dc/elements/1.1/"
   xmlns:cc="http://creativecommons.org/ns#"
   xmlns:rdf="http://www.w3.org/1999/02/22-rdf-syntax-ns#"
   xmlns:svg="http://www.w3.org/2000/svg"
   xmlns="http://www.w3.org/2000/svg"
   xmlns:sodipodi="http://sodipodi.sourceforge.net/DTD/sodipodi-0.dtd"
   xmlns:inkscape="http://www.inkscape.org/namespaces/inkscape"
   width="80.675758mm"
   height="80.675758mm"
   viewBox="0 0 80.675758 80.675758"
   version="1.1"
   id="svg8"
   inkscape:version="0.92.1 r15371"
   sodipodi:docname="paddelsurf.svg">
  <defs
     id="defs2" />
  <sodipodi:namedview
     id="base"
     pagecolor="#ffffff"
     bordercolor="#666666"
     borderopacity="1.0"
     inkscape:pageopacity="0.0"
     inkscape:pageshadow="2"
     inkscape:zoom="0.35"
     inkscape:cx="-188.97045"
     inkscape:cy="127.07679"
     inkscape:document-units="mm"
     inkscape:current-layer="layer1"
     showgrid="false"
     fit-margin-top="0"
     fit-margin-left="0"
     fit-margin-right="0"
     fit-margin-bottom="0"
     inkscape:window-width="1366"
     inkscape:window-height="705"
     inkscape:window-x="-8"
     inkscape:window-y="-8"
     inkscape:window-maximized="1" />
  <metadata
     id="metadata5">
    <rdf:RDF>
      <cc:Work
         rdf:about="">
        <dc:format>image/svg+xml</dc:format>
        <dc:type
           rdf:resource="http://purl.org/dc/dcmitype/StillImage" />
        <dc:title></dc:title>
      </cc:Work>
    </rdf:RDF>
  </metadata>
  <g
     inkscape:label="Layer 1"
     inkscape:groupmode="layer"
     id="layer1"
     transform="translate(-29.965693,-117.56688)">
    <rect
       style="opacity:1;vector-effect:none;fill:none;fill-opacity:1;fill-rule:evenodd;stroke:none;stroke-width:0.1;stroke-linecap:butt;stroke-linejoin:miter;stroke-miterlimit:4;stroke-dasharray:none;stroke-dashoffset:0;stroke-opacity:1"
       id="rect5477-8-6"
       width="80.675758"
       height="80.675758"
       x="30.449242"
       y="117.83928"
       rx="0"
       ry="0"
       inkscape:export-filename="C:\Users\Pablo\Desktop\CARTOMETRICS\9 PROYECTOS\ANTIGUOS\10 Webgis MalagaActiva\logosUlt\paddelsurf.png"
       inkscape:export-xdpi="11.019427"
       inkscape:export-ydpi="11.019427" />
    <g
       id="g4495"
       transform="matrix(0.80879857,0,0,0.80879857,33.294185,117.5663)"
       style="fill:#4ab9b2;fill-opacity:0.99215686;stroke-width:0.3271313"
       inkscape:export-filename="C:\Users\Pablo\Desktop\CARTOMETRICS\9 PROYECTOS\ANTIGUOS\10 Webgis MalagaActiva\logosUlt\paddelsurf.png"
       inkscape:export-xdpi="11.019427"
       inkscape:export-ydpi="11.019427">
      <g
         id="g4493"
         style="fill:#4ab9b2;fill-opacity:0.99215686;stroke-width:0.3271313">
        <circle
           id="ellipse4487"
           cy="11.5"
           cx="51.299999"
           class="st0"
           r="10"
           style="fill:#4ab9b2;fill-opacity:0.99215686;stroke-width:0.3271313" />
        <path
           id="path4489"
           d="m 77,97.6 c 0,-0.2 -0.1,-0.4 -0.1,-0.6 0,-0.2 -0.1,-0.4 -0.1,-0.5 -0.1,-0.4 -0.1,-0.9 -0.1,-1.4 0,-0.5 0,-0.9 0,-1.4 0,-0.1 0,-0.3 0,-0.4 0,-0.4 0.1,-0.7 0.1,-1.1 0,-0.2 0.1,-0.5 0.1,-0.7 0,0 0,0 0,0 0,0 0,-0.1 0,-0.1 -0.3,0.1 -0.6,0.1 -0.9,0.1 H 65.6 L 73,53.8 c 1.5,-0.7 2.7,-2.1 3,-3.9 0.4,-2.8 -1.5,-5.3 -4.2,-5.7 L 60.6,42.5 51.3,28.8 60.6,42.5 c 0,0 -8.8,-12.8 -9.3,-13.7 -0.7,-1.1 -1.5,-1.9 -2.1,-2.3 -2.1,-1.6 -4.8,-2.2 -7.4,-1.7 -2.6,0.5 -4.9,2.1 -6.2,4.4 -0.2,0.4 -0.4,0.8 -0.5,1.2 l -7.6,22.4 c -0.7,2.2 -0.2,4.5 1.4,6.2 l 13.3,13.6 -5.3,18.5 v 0.3 H 9.1 C 7,91.4 5.3,93.1 5.3,95.2 5.3,97.3 7,99 9.1,99 h 67 c 0.4,0 0.8,0 1.3,-0.1 C 77.2,98.5 77.1,98.1 77,97.6 Z M 49.3,91.3 55.4,72.7 c 0.7,-1.9 0.3,-4 -0.9,-5.6 l -8.2,-10.8 3.6,-11.6 3.5,5.2 c 0.8,1.2 2,2 3.4,2.2 l 11,1.6 -7.4,37.6 H 49.3 Z"
           class="st0"
           inkscape:connector-curvature="0"
           style="fill:#4ab9b2;fill-opacity:0.99215686;stroke-width:0.3271313" />
        <path
           id="path4491"
           d="m 49.9,44.7 3.5,5.2"
           class="st0"
           inkscape:connector-curvature="0"
           style="fill:#4ab9b2;fill-opacity:0.99215686;stroke-width:0.3271313" />
      </g>
    </g>
  </g>
</svg>
