<?xml version="1.0" encoding="utf-8"?>
<svg version="1.1" xmlns="http://www.w3.org/2000/svg" xmlns:xlink="http://www.w3.org/1999/xlink" x="0px" y="0px" viewBox="-100 0 1100 1000" enable-background="new 0 0 1000 1000" xml:space="preserve" fill="#3C7899">
<metadata> Svg Vector Icons : http://www.onlinewebfonts.com/icon </metadata>
<g><circle cx="248.5" cy="446.6" r="99.2"/><path d="M838.8,323.8L676,366.5l-9.8-65c-1.7-11-6.4-21.3-13.8-29.7l-40-45.6l43-124.4c10.5-30.4-5.6-63.5-36-74c-13.1-4.5-26.7-3.8-38.8,0.6c-3.7-5.4-8.5-10.1-14.7-13.4c-20.2-10.8-45.5-3.2-56.3,17.1L352.7,325.7c-3.3,6.2-4.7,12.9-4.7,19.5l-0.3,0.1l0.3,2.2c0.1,2.4,0.5,4.7,1,7l25.1,172v247.2H121.4c-18.4,0-33.3,14.9-33.3,33.3v149.7c0,18.4,14.9,33.3,33.3,33.3h291.1c18.4,0,33.3-14.9,33.3-33.3V807.1c0-1.4-0.3-2.8-0.4-4.2c7.4-7.5,11.9-17.8,11.9-29.1V509.1L577,466.7c4.5,8.4,10.9,15.9,19,21.3c9.6,6.3,20.7,9.6,32,9.6c4.9,0,9.9-0.6,14.8-1.9l225.5-59.2c31.1-8.2,49.7-40,41.5-71.1C901.7,334.2,869.9,315.7,838.8,323.8z M488.8,247.5c1.6,10.9,6.2,21.4,13.7,30l9,10.2l-54.4,19.1L488.8,247.5z"/></g>
</svg>