<?xml version="1.0" encoding="utf-8"?>
<!-- Generator: Adobe Illustrator 23.0.3, SVG Export Plug-In . SVG Version: 6.00 Build 0)  -->
<svg version="1.1" id="Capa_1" xmlns="http://www.w3.org/2000/svg" xmlns:xlink="http://www.w3.org/1999/xlink" x="0px" y="0px"
	 viewBox="5 0 90 118.8" style="enable-background:new 0 0 95 118.8;" xml:space="preserve">
<style type="text/css">
	.st0{fill:#F2D389;}
</style>
<g>
	<circle class="st0" cx="48.2" cy="20.4" r="9.7"/>
</g>
<path class="st0" d="M53.3,69.4c0.2-0.6,0.3-1.2,0.3-1.9l1-21.1l9.8,7.5c1.7,1.3,4.2,1.2,5.7-0.4l8.8-9c-0.3-0.2-0.5-0.5-0.6-0.8
	c-0.9,0-1.5-0.5-1.7-1.2c-0.8-0.2-1.3-0.9-1.4-1.6c-0.8,0-1.3-0.4-1.6-1c-0.5-0.3-0.7-0.9-0.8-1.5l-6.3,6.4l-12.3-9.5
	c-3.6-2.7-8.3-3.2-12.4-1.2l-14.5,7.4c-1.5,0.8-2.4,2.3-2.3,4l0.7,14.6L24.1,60l0.2-2.6c0.1-0.9-0.5-1.5-1.3-1.6l-2.7-0.2
	c-0.8-0.1-1.5,0.5-1.6,1.3l-0.8,8.5c-0.1,0.8,0.5,1.5,1.3,1.6l2.7,0.2c0.8,0.1,1.5-0.5,1.6-1.3l0.2-2.6l2.3,0.2
	c0.5,1.9,2.2,3.3,4.2,3.3c0.1,0,0.1,0,0.2,0c1.7-0.1,3-1.1,3.7-2.5l1.7,0.2l-0.2,2.8c-0.1,0.8,0.5,1.5,1.3,1.6l2.7,0.2
	c0.1,0,0.1,0,0.2,0c0.7,0,1.3-0.6,1.4-1.3l0.8-8.5c0.1-0.9-0.5-1.6-1.3-1.6L38,57.5c-0.1,0-0.1,0-0.2,0c-0.7,0-1.3,0.6-1.4,1.3
	l-0.3,2.4L34.4,61l-0.6-13.1l4.8-2.4l-0.5,10.3c0,0,0,0,0.1,0l2.6,0.2c0.8,0,1.5,0.4,2.1,1c0.6,0.7,0.9,1.5,0.8,2.4L43,67.9
	c-0.2,1.5-1.5,2.7-3,2.7h-0.3l-2.5-0.2l-8.8,13L15.7,94c-2,1.7-2.3,4.8-0.5,6.8c1,1.1,2.3,1.7,3.7,1.7c1.1,0,2.2-0.4,3.1-1.2
	l12.9-11.1c0.3-0.3,0.6-0.6,0.9-1l9.3-13.7"/>
<path class="st0" d="M47.2,77.2l11.1,7.5l-3.7,14.5c-0.7,2.6,0.9,5.2,3.5,5.9c0.4,0.1,0.8,0.1,1.2,0.1c2.2,0,4.1-1.5,4.7-3.6
	l4.5-17.8c0.5-2-0.3-4-2-5.2l-11.1-7.5"/>
<path class="st0" d="M91.6,41.9L89.7,40c-0.5-0.6-1.5-0.5-2,0l-1.9,1.9l-9.9-9.6l1.9-1.9c0.4-0.5,0.5-1.5,0-2l-1.9-1.9
	c-0.5-0.6-1.5-0.5-2,0l-6,6.1c-0.6,0.5-0.5,1.5,0,2l1.9,1.9c0.5,0.6,1.5,0.5,2,0l1.8-1.8l1.6,1.5c0.7,0.1,1.2,0.6,1.4,1.1
	c0.4,0.4,0.6,0.9,0.6,1.4c0.9,0.1,1.4,0.7,1.6,1.3c0.6,0.2,0.9,0.7,1.1,1.2c0.6,0.1,1.1,0.4,1.4,0.8c0,0,0,0,0,0l2.4,2.3l-1.9,1.9
	c-0.6,0.5-0.5,1.5,0,2l1.9,1.9c0.5,0.6,1.5,0.5,2,0l6-6.1C92.3,43.3,92.2,42.5,91.6,41.9z"/>
<rect x="70.1" y="40.6" transform="matrix(0.7071 0.7071 -0.7071 0.7071 52.1927 -40.0322)" class="st0" width="8.6" height="4.8"/>
<rect x="74.1" y="43.4" class="st0" width="0" height="0.9"/>
<rect x="72.7" y="35.7" transform="matrix(0.744 0.6681 -0.6681 0.744 45.8559 -43.5275)" class="st0" width="14.1" height="4.8"/>
</svg>
