<?xml version="1.0" encoding="utf-8"?>
<!-- Generator: Adobe Illustrator 23.0.3, SVG Export Plug-In . SVG Version: 6.00 Build 0)  -->
<svg version="1.1" id="Capa_1" xmlns="http://www.w3.org/2000/svg" xmlns:xlink="http://www.w3.org/1999/xlink" x="0px" y="0px"
	 viewBox="0 0 496.5 496.5" style="enable-background:new 0 0 496.5 496.5;" xml:space="preserve">
<style type="text/css">
	.st0{fill:#9E8B61;}
</style>
<g id="XMLID_243_">
	<path id="XMLID_1_" class="st0" d="M184.1,121.1l-63.8,22.8c-7.5,2.7-13.3,8.8-15.6,16.4l-14.1,46.9c-4,13.2,3.5,27.2,16.8,31.2
		c13.4,4,27.3-3.7,31.2-16.8l10.4-34.8l25-8.9"/>
	<path id="XMLID_252_" class="st0" d="M192.9,172.2c0,16.2,0.3,66.5,0.5,83.7c0,3.9,0.6,7.7,1.8,11.4l14,43.6h-21v50.1h24.6
		l-8.8,53.2h50.7h0.1l8.8-53.2h18.5c8.6,0,16.5-4.4,21.1-11.6c4.6-7.2,5.2-16.3,1.5-24.1l-36.9-78.8c0.3-8.3,0.2-30.7,0.2-39.1
		l6.5,5.1c4.5,3.5,9.9,5.3,15.4,5.3c4.3,0,8.6-1.1,12.5-3.4l48.5-28c12-6.9,16.1-22.2,9.2-34.2c-6.9-12-22.3-16.1-34.2-9.1
		L292,162.6l-24-18.7v-2.4c0-20.3-15.8-37.4-36.1-38.2c-11.5-0.4-21.8,4.4-28.9,12.1"/>
	<path id="XMLID_251_" class="st0" d="M242.9,93.9c25.9,0,46.9-21,46.9-46.9c0-25.9-21-46.9-46.9-46.9C217,0,196,21,196,46.9
		C196,72.9,217,93.9,242.9,93.9z"/>
	<path id="XMLID_249_" class="st0" d="M198.7,470.7c-7.1,0-12.9,5.8-12.9,12.9s5.8,12.9,12.9,12.9c7.1,0,12.9-5.8,12.9-12.9
		C211.7,476.4,205.9,470.7,198.7,470.7z"/>
	<path id="XMLID_248_" class="st0" d="M233.9,470.7c-7.1,0-12.9,5.8-12.9,12.9s5.8,12.9,12.9,12.9s12.9-5.8,12.9-12.9
		C246.9,476.4,241.1,470.7,233.9,470.7z"/>
	<path id="XMLID_247_" class="st0" d="M269.2,470.7c-7.1,0-12.9,5.8-12.9,12.9s5.8,12.9,12.9,12.9c7.1,0,12.9-5.8,12.9-12.9
		C282.1,476.4,276.3,470.7,269.2,470.7z"/>
	<path id="XMLID_246_" class="st0" d="M118.8,320c7.1,0,12.9-5.8,12.9-12.9c0-7.1-5.8-12.9-12.9-12.9c-7.1,0-12.9,5.8-12.9,12.9
		C105.8,314.2,111.6,320,118.8,320z"/>
	<path id="XMLID_245_" class="st0" d="M118.8,355.2c7.1,0,12.9-5.8,12.9-12.9c0-7.1-5.8-12.9-12.9-12.9c-7.1,0-12.9,5.8-12.9,12.9
		C105.8,349.4,111.6,355.2,118.8,355.2z"/>
	<path id="XMLID_244_" class="st0" d="M118.8,364.6c-7.1,0-12.9,5.8-12.9,12.9s5.8,12.9,12.9,12.9c7.1,0,12.9-5.8,12.9-12.9
		C131.6,370.4,125.9,364.6,118.8,364.6z"/>
</g>
<path id="XMLID_2_" class="st0" d="M150.7,307.1c0,0.4,0.1,0.8,0.1,1.2c0,7.9-4.7,14.8-11.6,17.8c6.6,3,11.2,9.7,11.2,17.4
	c0,7.9-4.8,14.7-11.6,17.6c6.8,2.9,11.6,9.7,11.6,17.6c0,1-0.4,1.8-0.5,2.7h2.1c9.5,0,17.2-7.7,17.2-17.2h19v-57.1H150.7z"/>
<path id="XMLID_4_" class="st0" d="M273,452c0.9,0,1.8,0.1,2.8,0.2v-1.5c0-9.5-8-17.2-17-17.2v-19.3h-57v37.8c0,0,0.5-0.1,0.9-0.1
	c8,0,14.7,4.8,17.7,11.6c3-6.6,9.6-11.2,17.3-11.2c7.8,0,14.5,4.7,17.5,11.3C258.3,456.7,265.1,452,273,452z"/>
<image style="overflow:visible;" width="919" height="518" xlink:href="529E3D50.jpg"  transform="matrix(1 0 0 1 -500.9355 554.9474)">
</image>
</svg>
