<?xml version="1.0" encoding="utf-8"?>
<!-- Generator: Adobe Illustrator 23.0.3, SVG Export Plug-In . SVG Version: 6.00 Build 0)  -->
<svg version="1.1" id="Capa_1" xmlns="http://www.w3.org/2000/svg" xmlns:xlink="http://www.w3.org/1999/xlink" x="0px" y="0px"
	 viewBox="5 0 85 100" style="enable-background:new 0 0 96 120;" xml:space="preserve">
<style type="text/css">
	.st0{fill:#3F598E;}
</style>
<g>
	<path class="st0" d="M66.8,29.4l-26.4,4.7l0,0h-0.1c-2.1,0.5-3.4,2.7-2.9,4.9l5,19.8L24.7,85.6c-1.2,1.8-0.9,4.3,0.8,5.5
		c0.7,0.5,1.6,0.8,2.4,0.8c1.3,0,2.6-0.6,3.3-1.8L50,61.7l0.9,3.5l-3,22.2c-0.3,2.2,1.2,4.2,3.4,4.5c0.2,0,0.4,0,0.5,0
		c2,0,3.7-1.5,4-3.5l3.1-23c0.1-0.5,0-1-0.1-1.5l-6.5-26l17-3c1.7-0.2,3-1.9,2.6-3.6c-0.2-0.7-0.6-1.3-1.2-1.7
		c-1.5-0.5-2.8-0.4-2.8-0.4"/>
	<circle class="st0" cx="39" cy="24" r="7"/>
</g>
<circle class="st0" cx="79.1" cy="34.6" r="3"/>
<image style="overflow:visible;" width="920" height="519" xlink:href="../55399424.jpg"  transform="matrix(1 0 0 1 -412 149.8575)">
</image>
</svg>
