<?xml version="1.0" encoding="UTF-8" standalone="no"?>
<!-- Created with Inkscape (http://www.inkscape.org/) -->

<svg
   xmlns:dc="http://purl.org/dc/elements/1.1/"
   xmlns:cc="http://creativecommons.org/ns#"
   xmlns:rdf="http://www.w3.org/1999/02/22-rdf-syntax-ns#"
   xmlns:svg="http://www.w3.org/2000/svg"
   xmlns="http://www.w3.org/2000/svg"
   xmlns:sodipodi="http://sodipodi.sourceforge.net/DTD/sodipodi-0.dtd"
   xmlns:inkscape="http://www.inkscape.org/namespaces/inkscape"
   width="80.675758mm"
   height="80.675758mm"
   viewBox="0 0 80.675758 80.675758"
   version="1.1"
   id="svg8"
   inkscape:version="0.92.1 r15371"
   sodipodi:docname="petanca.svg">
  <defs
     id="defs2" />
  <sodipodi:namedview
     id="base"
     pagecolor="#ffffff"
     bordercolor="#666666"
     borderopacity="1.0"
     inkscape:pageopacity="0.0"
     inkscape:pageshadow="2"
     inkscape:zoom="0.35"
     inkscape:cx="-188.97045"
     inkscape:cy="127.07679"
     inkscape:document-units="mm"
     inkscape:current-layer="layer1"
     showgrid="false"
     fit-margin-top="0"
     fit-margin-left="0"
     fit-margin-right="0"
     fit-margin-bottom="0"
     inkscape:window-width="1366"
     inkscape:window-height="705"
     inkscape:window-x="-8"
     inkscape:window-y="-8"
     inkscape:window-maximized="1" />
  <metadata
     id="metadata5">
    <rdf:RDF>
      <cc:Work
         rdf:about="">
        <dc:format>image/svg+xml</dc:format>
        <dc:type
           rdf:resource="http://purl.org/dc/dcmitype/StillImage" />
        <dc:title></dc:title>
      </cc:Work>
    </rdf:RDF>
  </metadata>
  <g
     inkscape:label="Layer 1"
     inkscape:groupmode="layer"
     id="layer1"
     transform="translate(-29.965693,-117.56688)">
    <rect
       style="opacity:1;vector-effect:none;fill:none;fill-opacity:1;fill-rule:evenodd;stroke:none;stroke-width:0.1;stroke-linecap:butt;stroke-linejoin:miter;stroke-miterlimit:4;stroke-dasharray:none;stroke-dashoffset:0;stroke-opacity:1"
       id="rect5477-8-0"
       width="80.675758"
       height="80.675758"
       x="29.693289"
       y="117.83928"
       rx="0"
       ry="0"
       inkscape:export-filename="C:\Users\Pablo\Desktop\CARTOMETRICS\9 PROYECTOS\ANTIGUOS\10 Webgis MalagaActiva\logosUlt\petanca.png"
       inkscape:export-xdpi="11.019427"
       inkscape:export-ydpi="11.019427" />
    <g
       id="g5365"
       transform="matrix(4.0002973,0,0,4.0002973,2572.2447,-51.92548)"
       style="fill:#3f598e;fill-opacity:1;stroke-width:0.24998139"
       inkscape:export-filename="C:\Users\Pablo\Desktop\CARTOMETRICS\9 PROYECTOS\ANTIGUOS\10 Webgis MalagaActiva\logosUlt\petanca.png"
       inkscape:export-xdpi="11.019427"
       inkscape:export-ydpi="11.019427">
      <g
         transform="matrix(0.26458333,0,0,0.26458333,-638.15362,38.070857)"
         id="g4591"
         style="fill:#3f598e;fill-opacity:1;stroke-width:0.24998139">
        <path
           id="path4587"
           d="m 66.8,29.4 -26.4,4.7 v 0 h -0.1 c -2.1,0.5 -3.4,2.7 -2.9,4.9 l 5,19.8 -17.7,26.8 c -1.2,1.8 -0.9,4.3 0.8,5.5 0.7,0.5 1.6,0.8 2.4,0.8 1.3,0 2.6,-0.6 3.3,-1.8 L 50,61.7 l 0.9,3.5 -3,22.2 c -0.3,2.2 1.2,4.2 3.4,4.5 0.2,0 0.4,0 0.5,0 2,0 3.7,-1.5 4,-3.5 l 3.1,-23 c 0.1,-0.5 0,-1 -0.1,-1.5 l -6.5,-26 17,-3 C 71,34.7 72.3,33 71.9,31.3 71.7,30.6 71.3,30 70.7,29.6 69.2,29.1 67.9,29.2 67.9,29.2"
           class="st0"
           inkscape:connector-curvature="0"
           style="fill:#3f598e;fill-opacity:1;stroke-width:0.24998139" />
        <circle
           id="circle4589"
           r="7"
           cy="24"
           cx="39"
           class="st0"
           style="fill:#3f598e;fill-opacity:1;stroke-width:0.24998139" />
      </g>
      <circle
         id="circle4593"
         r="0.79374999"
         cy="47.225441"
         cx="-617.2251"
         class="st0"
         style="fill:#3f598e;fill-opacity:1;stroke-width:0.06614091" />
    </g>
  </g>
</svg>
