<?xml version="1.0" encoding="utf-8"?>
<!-- Generator: Adobe Illustrator 23.0.3, SVG Export Plug-In . SVG Version: 6.00 Build 0)  -->
<svg version="1.1" id="Capa_1" xmlns="http://www.w3.org/2000/svg" xmlns:xlink="http://www.w3.org/1999/xlink" x="0px" y="0px"
	 viewBox="-10 0 320 303.3" style="enable-background:new 0 0 303.3 303.3;" xml:space="preserve">
<style type="text/css">
	.st0{fill:#CB8672;}
</style>
<g>
	<g>
		<g>
			<path class="st0" d="M105.9,135.1l-56.5,67.6l-13,4.9c-2.8,1.1-6.7,3.7-8.6,6L2.4,242.9c-2,2.3-3.2,6.5-2,9.3
				c3.2,7.5,9.6,11.2,14.2,13c2.8,1.1,7.5,0.7,9.9-1.2c8.7-7,21.1-25,26.7-33.5c1.6-2.5,3.2-7,3.5-10l1.5-13.4l49.2-59.5"/>
			<path class="st0" d="M115.9,135.8v27.4l20.5-13.7c9.2-5.5,22.4-5.3,30.8-0.2l21,14v-26.4l58.8,70.4l1.5,13.4
				c0.3,3,1.9,7.4,3.5,10c5.6,8.5,18,26.6,26.7,33.5c2.3,1.9,7.1,2.3,9.9,1.2c4.6-1.8,11-5.5,14.2-13c1.2-2.7,0-7-2-9.3l-25.3-29.3
				c-2-2.3-5.8-5-8.6-6l-13-4.9L188.2,124v-7.1c0-12.9-10.4-23.3-23.3-23.3h-25.6c-12.9,0-23.3,10.4-23.3,23.3v6.2"/>
			<path class="st0" d="M162.4,157.2c-5.8-3.4-15.1-3.4-20.8,0l-71.1,47.4c-5.8,3.4-9.4,11.6-7.3,18c7.1,20.6,28.7,56.5,88.8,57.1
				c60.3,0.6,81.8-36.1,88.8-57.1c2.1-6.4-1.6-14.5-7.3-18L162.4,157.2z"/>
			<ellipse transform="matrix(0.1091 -0.994 0.994 0.1091 79.4504 201.2491)" class="st0" cx="152" cy="56.3" rx="32.6" ry="32.6"/>
		</g>
	</g>
</g>
</svg>
