<?xml version="1.0" encoding="UTF-8" standalone="no"?>
<!-- Created with Inkscape (http://www.inkscape.org/) -->

<svg
   xmlns:dc="http://purl.org/dc/elements/1.1/"
   xmlns:cc="http://creativecommons.org/ns#"
   xmlns:rdf="http://www.w3.org/1999/02/22-rdf-syntax-ns#"
   xmlns:svg="http://www.w3.org/2000/svg"
   xmlns="http://www.w3.org/2000/svg"
   xmlns:sodipodi="http://sodipodi.sourceforge.net/DTD/sodipodi-0.dtd"
   xmlns:inkscape="http://www.inkscape.org/namespaces/inkscape"
   width="80.675758mm"
   height="80.675758mm"
   viewBox="0 0 80.675758 80.675758"
   version="1.1"
   id="svg8"
   inkscape:version="0.92.1 r15371"
   sodipodi:docname="remo.svg">
  <defs
     id="defs2" />
  <sodipodi:namedview
     id="base"
     pagecolor="#ffffff"
     bordercolor="#666666"
     borderopacity="1.0"
     inkscape:pageopacity="0.0"
     inkscape:pageshadow="2"
     inkscape:zoom="0.35"
     inkscape:cx="-188.97045"
     inkscape:cy="127.07679"
     inkscape:document-units="mm"
     inkscape:current-layer="layer1"
     showgrid="false"
     fit-margin-top="0"
     fit-margin-left="0"
     fit-margin-right="0"
     fit-margin-bottom="0"
     inkscape:window-width="1366"
     inkscape:window-height="705"
     inkscape:window-x="-8"
     inkscape:window-y="-8"
     inkscape:window-maximized="1" />
  <metadata
     id="metadata5">
    <rdf:RDF>
      <cc:Work
         rdf:about="">
        <dc:format>image/svg+xml</dc:format>
        <dc:type
           rdf:resource="http://purl.org/dc/dcmitype/StillImage" />
        <dc:title></dc:title>
      </cc:Work>
    </rdf:RDF>
  </metadata>
  <g
     inkscape:label="Layer 1"
     inkscape:groupmode="layer"
     id="layer1"
     transform="translate(-29.965693,-117.56688)">
    <rect
       style="opacity:1;vector-effect:none;fill:none;fill-opacity:1;fill-rule:evenodd;stroke:none;stroke-width:0.1;stroke-linecap:butt;stroke-linejoin:miter;stroke-miterlimit:4;stroke-dasharray:none;stroke-dashoffset:0;stroke-opacity:1"
       id="rect5477-8-18"
       width="80.675758"
       height="80.675758"
       x="30.449242"
       y="119.35119"
       rx="0"
       ry="0"
       inkscape:export-filename="C:\Users\Pablo\Desktop\CARTOMETRICS\9 PROYECTOS\ANTIGUOS\10 Webgis MalagaActiva\logosUlt\remo.png"
       inkscape:export-xdpi="11.019427"
       inkscape:export-ydpi="11.019427" />
    <g
       id="g5446"
       transform="matrix(0.93131193,0,0,0.93131193,-560.95832,110.17078)"
       style="fill:#ffdd55;fill-opacity:1;stroke-width:1.07375395"
       inkscape:export-filename="C:\Users\Pablo\Desktop\CARTOMETRICS\9 PROYECTOS\ANTIGUOS\10 Webgis MalagaActiva\logosUlt\remo.png"
       inkscape:export-xdpi="11.019427"
       inkscape:export-ydpi="11.019427">
      <path
         id="path5154"
         d="m 686.53362,34.817463 c 4.42138,0 8.03068,-3.609294 8.03068,-8.03068 0,-4.421385 -3.6093,-8.03068 -8.03068,-8.03068 -4.42139,0 -8.12091,3.609295 -8.12091,8.03068 0,4.421386 3.60929,8.03068 8.12091,8.03068 z"
         class="st0"
         inkscape:connector-curvature="0"
         style="fill:#ffdd55;fill-opacity:1;stroke-width:0.2840974" />
      <path
         id="path5158"
         d="m 687.52617,37.975595 c -7.85021,-4.782315 -11.09858,3.158133 -11.09858,3.158133 l -11.00834,20.30228 h -28.87436 c 0.90233,5.774871 5.68464,13.534853 8.03068,17.144147 1.44372,-0.721858 3.15813,-1.17302 4.87255,-1.17302 1.80465,0 3.51906,0.451162 5.05301,1.263253 1.53395,0.721859 3.15813,1.17302 4.87255,1.17302 1.71441,0 3.42883,-0.451161 4.87255,-1.17302 1.53395,-0.812091 3.24836,-1.263253 5.05301,-1.263253 1.80464,0 3.51906,0.451162 5.05301,1.263253 1.53395,0.721859 3.15813,1.17302 4.87255,1.17302 1.71441,0 3.42883,-0.451161 4.87254,-1.17302 0.99256,-0.541394 1.98512,-0.812091 3.0679,-1.082788 l 12.72277,-15.880895 h -16.33206 l 6.76743,-12.722762"
         class="st0"
         inkscape:connector-curvature="0"
         style="fill:#ffdd55;fill-opacity:1;stroke-width:0.2840974" />
      <path
         id="path5160"
         d="m 693.66197,49.886266 16.24183,8.842771 c 5.32371,3.0679 9.29393,-3.970224 3.97022,-7.038124 L 690.59407,38.968151"
         class="st0"
         inkscape:connector-curvature="0"
         style="fill:#ffdd55;fill-opacity:1;stroke-width:0.2840974" />
      <path
         id="path5162"
         d="m 690.955,77.5876 c 1.17302,0.180464 2.25581,0.541394 3.24837,1.082788 1.44372,0.721859 3.15813,1.17302 4.87255,1.17302 1.71441,0 3.42882,-0.451161 4.87254,-1.17302 1.53395,-0.812091 3.24837,-1.263253 5.05301,-1.263253 1.80465,0 3.51907,0.451162 5.05302,1.263253 1.44371,0.721859 3.15813,1.17302 4.87254,1.17302 V 61.796937 h -15.3395 z"
         class="st0"
         inkscape:connector-curvature="0"
         style="fill:#ffdd55;fill-opacity:1;stroke-width:0.2840974" />
      <line
         id="line5164"
         y2="62.879726"
         x2="701.15125"
         y1="54.488117"
         x1="706.83588"
         class="st1"
         style="clip-rule:evenodd;fill:#ffdd55;fill-opacity:1;fill-rule:evenodd;stroke:#a7d1ca;stroke-width:1.13638961;stroke-miterlimit:10" />
    </g>
  </g>
</svg>
