<?xml version="1.0" encoding="utf-8"?>
<!-- Generator: Adobe Illustrator 23.0.3, SVG Export Plug-In . SVG Version: 6.00 Build 0)  -->
<svg version="1.1" xmlns="http://www.w3.org/2000/svg" xmlns:xlink="http://www.w3.org/1999/xlink" x="0px" y="0px"
	 viewBox="0 0 100 125" style="enable-background:new 0 0 100 125;" xml:space="preserve">
<style type="text/css">
	.st0{fill:#894E66;}
	.st1{fill:#FFFFFF;}
</style>
<g id="Capa_2">
</g>
<g id="Capa_1">
	<g>
		<path class="st0" d="M60.6,68c2.4-5.7,6.1-13.7,9.7-18.2c1.2,1.8,2.1,4.2,2.8,6.1c1,2.5,2.6,7,6.3,7c0.6,0,1.2-0.1,1.9-0.4
			c2.5-0.9,12.7-5.4,13.9-6c2.2-0.9,3.2-3.5,2.2-5.7s-3.6-3.2-5.8-2.2c-3,1.3-7.2,3.2-10.1,4.4c0,0,0-0.1-0.1-0.1
			c-1.7-4.4-4.2-11.1-10.5-13.6c-2.7-1.1-6.3-2.7-6.7-2.9c-8.9-3.8-23.9-1.7-26.3-0.8c-1.3,0.5-3.5,1.3-10.9,15.2
			c-1.1,2.2-0.3,4.8,1.8,6c0.7,0.3,1.4,0.5,2.1,0.5c1.6,0,3.1-0.9,3.9-2.3c2.3-4.3,5.3-9.5,6.7-11.2c1.6-0.3,5.1-0.7,8.8-0.7
			c-3.9,5.3-7.5,13.8-8.5,19.1c-1.6,4.5-5.5,16.8-9.4,23.4c-4.7,8-9.9,15.5-10,15.6c-1.6,2.3-1,5.5,1.3,7.2c0.8,0.3,1.9,0.6,2.9,0.6
			c1.6,0,3.2-0.8,4.2-2.2c0.2-0.3,5.5-7.9,10.4-16.2c3-5.1,5.8-12.1,7.8-18"/>
		<path class="st0" d="M51.6,75c3.5,2.3,10.3,6.8,12.4,9.1c-0.6,3.5-3.5,13-6.1,20.9c-0.9,2.7,0.6,5.6,3.3,6.5
			c0.5,0.2,1.1,0.3,1.6,0.3c2.2,0,4.2-1.4,4.9-3.5c2.6-7.8,6.9-21.4,6.8-25.3c-0.1-3.9-3.6-7.3-11.3-12.6"/>
		<ellipse class="st0" cx="71.5" cy="24.9" rx="10.3" ry="10.3"/>
		<ellipse class="st0" cx="12.8" cy="67.7" rx="9.2" ry="13"/>
		<ellipse class="st1" cx="14.6" cy="67.7" rx="9.2" ry="13"/>
		<ellipse class="st0" cx="22.9" cy="74.4" rx="9.2" ry="13"/>
		<ellipse class="st1" cx="24.7" cy="74.4" rx="9.2" ry="13"/>
		
			<image style="overflow:visible;" width="919" height="518" xlink:href="F9762827.jpg"  transform="matrix(1 0 0 1 -480.7742 433.3414)">
		</image>
	</g>
</g>
</svg>
