<?xml version="1.0" encoding="UTF-8" standalone="no"?>
<!-- Created with Inkscape (http://www.inkscape.org/) -->

<svg
   xmlns:dc="http://purl.org/dc/elements/1.1/"
   xmlns:cc="http://creativecommons.org/ns#"
   xmlns:rdf="http://www.w3.org/1999/02/22-rdf-syntax-ns#"
   xmlns:svg="http://www.w3.org/2000/svg"
   xmlns="http://www.w3.org/2000/svg"
   xmlns:sodipodi="http://sodipodi.sourceforge.net/DTD/sodipodi-0.dtd"
   xmlns:inkscape="http://www.inkscape.org/namespaces/inkscape"
   width="80.675758mm"
   height="80.675758mm"
   viewBox="0 0 80.675758 80.675758"
   version="1.1"
   id="svg8"
   inkscape:version="0.92.1 r15371"
   sodipodi:docname="running.svg">
  <defs
     id="defs2" />
  <sodipodi:namedview
     id="base"
     pagecolor="#ffffff"
     bordercolor="#666666"
     borderopacity="1.0"
     inkscape:pageopacity="0.0"
     inkscape:pageshadow="2"
     inkscape:zoom="0.35"
     inkscape:cx="-188.97045"
     inkscape:cy="127.07679"
     inkscape:document-units="mm"
     inkscape:current-layer="layer1"
     showgrid="false"
     fit-margin-top="0"
     fit-margin-left="0"
     fit-margin-right="0"
     fit-margin-bottom="0"
     inkscape:window-width="1366"
     inkscape:window-height="705"
     inkscape:window-x="-8"
     inkscape:window-y="-8"
     inkscape:window-maximized="1" />
  <metadata
     id="metadata5">
    <rdf:RDF>
      <cc:Work
         rdf:about="">
        <dc:format>image/svg+xml</dc:format>
        <dc:type
           rdf:resource="http://purl.org/dc/dcmitype/StillImage" />
        <dc:title></dc:title>
      </cc:Work>
    </rdf:RDF>
  </metadata>
  <g
     inkscape:label="Layer 1"
     inkscape:groupmode="layer"
     id="layer1"
     transform="translate(-29.965693,-117.56688)">
    <g
       id="g6245"
       transform="matrix(0.05537578,0,0,0.05537578,104.91933,-11.649004)"
       style="stroke-width:4.77796173"
       inkscape:export-filename="C:\Users\Pablo\Desktop\CARTOMETRICS\9 PROYECTOS\ANTIGUOS\10 Webgis MalagaActiva\logosUlt\running.png"
       inkscape:export-xdpi="11.019427"
       inkscape:export-ydpi="11.019427">
      <path
         id="path4827"
         d="m -582.89034,3184.6855 c 27.25752,-64.7366 69.27952,-155.5949 110.16579,-206.7028 13.62876,20.4432 23.85033,47.7007 31.80044,69.2795 11.3573,28.3933 29.52897,79.5011 71.55098,79.5011 6.81438,0 13.62875,-1.1357 21.57886,-4.5429 28.39325,-10.2216 144.23769,-61.3294 157.86644,-68.1438 24.98606,-10.2216 36.34336,-39.7505 24.98606,-64.7366 -11.3573,-24.986 -40.88627,-36.3433 -65.87233,-24.986 -34.07189,14.7644 -81.77254,36.3433 -114.70871,49.9721 0,0 0,-1.1358 -1.13573,-1.1358 -19.3074,-49.9721 -47.70065,-126.066 -119.25163,-154.4592 -30.6647,-12.493 -71.55097,-30.6647 -76.09389,-32.9362 -101.07996,-43.1577 -271.43946,-19.3074 -298.69696,-9.0858 -14.7645,5.6786 -39.7505,14.7645 -123.7945,172.6309 -12.4931,24.9861 -3.4072,54.515 20.4431,68.1438 7.9501,3.4072 15.9002,5.6787 23.8503,5.6787 18.1717,0 35.2077,-10.2216 44.2935,-26.1218 26.1218,-48.8364 60.1937,-107.8944 76.0939,-127.2018 18.1717,-3.4072 57.9222,-7.9501 99.9442,-7.9501 -44.2934,60.1937 -85.1797,156.7307 -96.537,216.9244 -18.1717,51.1079 -62.4652,190.8026 -106.7586,265.7608 -53.3793,90.8584 -112.43728,176.0381 -113.57298,177.1738 -18.1717,26.1218 -11.3573,62.4652 14.7645,81.7726 9.08578,3.4072 21.57888,6.8144 32.93618,6.8144 18.1716,0 36.3433,-9.0859 47.7006,-24.9861 2.2715,-3.4072 62.4651,-89.7226 118.1159,-183.9882 34.0719,-57.9222 65.8723,-137.4233 88.5869,-204.4314"
         class="st0"
         inkscape:connector-curvature="0"
         style="fill:#894e66;stroke-width:4.77796173" />
      <path
         id="path4829"
         d="m -685.10602,3264.1866 c 39.75055,26.1218 116.98017,77.2297 140.8305,103.3514 -6.81438,39.7506 -39.75055,147.6449 -69.27952,237.3676 -10.22157,30.6647 6.81438,63.6008 37.47908,73.8224 5.67865,2.2715 12.49303,3.4072 18.17168,3.4072 24.98606,0 47.70065,-15.9002 55.65076,-39.7505 29.52897,-88.587 78.36536,-243.0462 77.22963,-287.3397 -1.13573,-44.2934 -40.88628,-82.9083 -128.33747,-143.1019"
         class="st0"
         inkscape:connector-curvature="0"
         style="fill:#894e66;stroke-width:4.77796173" />
      <circle
         id="ellipse4831"
         cy="2695.1873"
         cx="-459.09619"
         class="st0"
         r="116.98017"
         style="fill:#894e66;stroke-width:4.77796173" />
      <ellipse
         id="ellipse4833"
         ry="147.64487"
         rx="104.48714"
         cy="3181.2773"
         cx="-1125.769"
         class="st0"
         style="fill:#894e66;stroke-width:4.77796173" />
      <ellipse
         id="ellipse4835"
         ry="147.64487"
         rx="104.48714"
         cy="3181.2773"
         cx="-1105.3268"
         class="st1"
         style="fill:#ffffff;stroke-width:4.77796173" />
      <ellipse
         id="ellipse4837"
         ry="147.64487"
         rx="104.48714"
         cy="3257.3735"
         cx="-1011.0606"
         class="st0"
         style="fill:#894e66;stroke-width:4.77796173" />
      <ellipse
         id="ellipse4839"
         ry="147.64487"
         rx="104.48714"
         cy="3257.3735"
         cx="-990.61688"
         class="st1"
         style="fill:#ffffff;stroke-width:4.77796173" />
    </g>
    <rect
       style="opacity:1;vector-effect:none;fill:none;fill-opacity:1;fill-rule:evenodd;stroke:none;stroke-width:0.1;stroke-linecap:butt;stroke-linejoin:miter;stroke-miterlimit:4;stroke-dasharray:none;stroke-dashoffset:0;stroke-opacity:1"
       id="rect5477-8-5"
       width="80.675758"
       height="80.675758"
       x="29.693291"
       y="117.83929"
       rx="0"
       ry="0"
       inkscape:export-filename="C:\Users\Pablo\Desktop\CARTOMETRICS\9 PROYECTOS\ANTIGUOS\10 Webgis MalagaActiva\logosUlt\running.png"
       inkscape:export-xdpi="11.019427"
       inkscape:export-ydpi="11.019427" />
  </g>
</svg>
