<?xml version="1.0" encoding="UTF-8" standalone="no"?>
<!-- Created with Inkscape (http://www.inkscape.org/) -->

<svg
   xmlns:dc="http://purl.org/dc/elements/1.1/"
   xmlns:cc="http://creativecommons.org/ns#"
   xmlns:rdf="http://www.w3.org/1999/02/22-rdf-syntax-ns#"
   xmlns:svg="http://www.w3.org/2000/svg"
   xmlns="http://www.w3.org/2000/svg"
   xmlns:sodipodi="http://sodipodi.sourceforge.net/DTD/sodipodi-0.dtd"
   xmlns:inkscape="http://www.inkscape.org/namespaces/inkscape"
   width="80.675758mm"
   height="80.675758mm"
   viewBox="0 0 80.675758 80.675758"
   version="1.1"
   id="svg8"
   inkscape:version="0.92.1 r15371"
   sodipodi:docname="skate.svg">
  <defs
     id="defs2" />
  <sodipodi:namedview
     id="base"
     pagecolor="#ffffff"
     bordercolor="#666666"
     borderopacity="1.0"
     inkscape:pageopacity="0.0"
     inkscape:pageshadow="2"
     inkscape:zoom="0.35"
     inkscape:cx="-188.97045"
     inkscape:cy="127.07679"
     inkscape:document-units="mm"
     inkscape:current-layer="layer1"
     showgrid="false"
     fit-margin-top="0"
     fit-margin-left="0"
     fit-margin-right="0"
     fit-margin-bottom="0"
     inkscape:window-width="1366"
     inkscape:window-height="705"
     inkscape:window-x="-8"
     inkscape:window-y="-8"
     inkscape:window-maximized="1" />
  <metadata
     id="metadata5">
    <rdf:RDF>
      <cc:Work
         rdf:about="">
        <dc:format>image/svg+xml</dc:format>
        <dc:type
           rdf:resource="http://purl.org/dc/dcmitype/StillImage" />
        <dc:title></dc:title>
      </cc:Work>
    </rdf:RDF>
  </metadata>
  <g
     inkscape:label="Layer 1"
     inkscape:groupmode="layer"
     id="layer1"
     transform="translate(-29.965693,-117.56688)">
    <rect
       style="opacity:1;vector-effect:none;fill:none;fill-opacity:1;fill-rule:evenodd;stroke:none;stroke-width:0.1;stroke-linecap:butt;stroke-linejoin:miter;stroke-miterlimit:4;stroke-dasharray:none;stroke-dashoffset:0;stroke-opacity:1"
       id="rect5477"
       width="80.675758"
       height="80.675758"
       x="30.449244"
       y="117.83928"
       rx="0"
       ry="0"
       inkscape:export-filename="C:\Users\Pablo\Desktop\CARTOMETRICS\9 PROYECTOS\ANTIGUOS\10 Webgis MalagaActiva\logosUlt\skate.png"
       inkscape:export-xdpi="11.019427"
       inkscape:export-ydpi="11.019427" />
    <g
       id="g4705"
       transform="matrix(0.16071671,0,0,0.16071671,30.718695,118.56475)"
       style="fill:#3c7899;fill-opacity:1;stroke-width:1.64627147"
       inkscape:export-filename="C:\Users\Pablo\Desktop\CARTOMETRICS\9 PROYECTOS\ANTIGUOS\10 Webgis MalagaActiva\logosUlt\skate.png"
       inkscape:export-xdpi="11.019427"
       inkscape:export-ydpi="11.019427">
      <g
         id="g4703"
         style="fill:#3c7899;fill-opacity:1;stroke-width:1.64627147">
        <path
           id="path4689"
           d="m 173,472.5 c 0,4.9 1.8,9.4 5.4,13.4 3.6,4 7.8,6.1 12.8,6.1 4.9,0 9.2,-2 12.8,-6.1 3.6,-4 5.4,-8.5 5.4,-13.4 0,-4.9 -1.8,-9.4 -5.4,-13.4 -3.6,-4 -7.8,-6.1 -12.8,-6.1 -5,0 -9.2,2 -12.8,6.1 -3.6,4 -5.4,8.5 -5.4,13.4 z"
           class="st0"
           inkscape:connector-curvature="0"
           style="fill:#3c7899;fill-opacity:1;stroke-width:1.64627147" />
        <path
           id="path4691"
           d="m 270.2,85.9 c 11.3,0 21.1,-4.1 29.4,-12.4 C 307.9,65.1 312,55 312,42.9 312,30.8 307.9,20.7 299.6,12.4 291.3,4.1 281.3,0 269.6,0 c -11.7,0 -21.5,4.1 -29.4,12.4 -7.9,8.3 -11.9,18.5 -11.9,30.5 0,12 4.1,22.2 12.4,30.5 8.3,8.3 18.2,12.5 29.5,12.5 z"
           class="st0"
           inkscape:connector-curvature="0"
           style="fill:#3c7899;fill-opacity:1;stroke-width:1.64627147" />
        <path
           id="path4693"
           d="m 75,418 c -2,3.3 -3,7 -3,11 0,6.7 2.3,12.3 7,17 4.7,4.7 10.3,7 17,7 9.3,0 16.3,-4.3 21,-13 l 80,-143 -33,-34 z"
           class="st0"
           inkscape:connector-curvature="0"
           style="fill:#3c7899;fill-opacity:1;stroke-width:1.64627147" />
        <path
           id="path4695"
           d="m 302,92 h 111 c 5.3,0 9.8,2 13.5,6 3.7,4 5.5,8.8 5.5,14.5 0,5.7 -1.8,10.5 -5.5,14.5 -3.7,4 -8.2,6 -13.5,6 H 300"
           class="st0"
           inkscape:connector-curvature="0"
           style="fill:#3c7899;fill-opacity:1;stroke-width:1.64627147" />
        <path
           id="path4697-5"
           d="m 288,133 -54,97 55,56 c 6,5.3 9.5,11.3 10.5,18 1,6.7 0.5,12 -1.5,16 l -2,6 -47,85 c -4,9.3 -11,14 -21,14 -6.7,0 -12.3,-2.3 -17,-7 -4.7,-4.7 -7,-10.3 -7,-17 0,-4 1,-7.7 3,-11 l 35,-64 -68,-70 c -8,-8 -12.7,-16.7 -14,-26 -1.3,-9.3 -0.7,-16.7 2,-22 l 4,-8 37,-67 h -98 c -5.3,0 -9.8,-2 -13.5,-6 -3.7,-4 -5.5,-8.8 -5.5,-14.5 0,-5.7 1.8,-10.5 5.5,-14.5 3.7,-4 8.2,-6 13.5,-6 h 185"
           class="st0"
           inkscape:connector-curvature="0"
           style="fill:#3c7899;fill-opacity:1;stroke-width:1.64627147" />
        <path
           id="path4699-6"
           d="m 338,440.5 c 0,7 -3.3,10.5 -10,10.5 H 154 c -6.7,0 -10,-3.5 -10,-10.5 0,-7 3.3,-10.5 10,-10.5 h 174 c 6.7,0 10,3.5 10,10.5 z"
           class="st0"
           inkscape:connector-curvature="0"
           style="fill:#3c7899;fill-opacity:1;stroke-width:1.64627147" />
        <path
           id="path4701-0"
           d="m 270.7,472.5 c 0,4.9 1.8,9.4 5.4,13.4 3.6,4 7.8,6.1 12.8,6.1 4.9,0 9.2,-2 12.8,-6.1 3.6,-4 5.4,-8.5 5.4,-13.4 0,-4.9 -1.8,-9.4 -5.4,-13.4 -3.6,-4 -7.8,-6.1 -12.8,-6.1 -4.9,0 -9.2,2 -12.8,6.1 -3.6,4.1 -5.4,8.5 -5.4,13.4 z"
           class="st0"
           inkscape:connector-curvature="0"
           style="fill:#3c7899;fill-opacity:1;stroke-width:1.64627147" />
      </g>
    </g>
  </g>
</svg>
