<?xml version="1.0" encoding="utf-8"?>
<!-- Generator: Adobe Illustrator 23.0.3, SVG Export Plug-In . SVG Version: 6.00 Build 0)  -->
<svg version="1.1" id="Capa_1" xmlns="http://www.w3.org/2000/svg" xmlns:xlink="http://www.w3.org/1999/xlink" x="0px" y="0px"
	 viewBox="-20 0 530 492" style="enable-background:new 0 0 492 492;" xml:space="preserve">
<style type="text/css">
	.st0{fill:#3C7899;}
</style>
<g>
	<g>
		<path class="st0" d="M173,472.5c0,4.9,1.8,9.4,5.4,13.4c3.6,4,7.8,6.1,12.8,6.1c4.9,0,9.2-2,12.8-6.1c3.6-4,5.4-8.5,5.4-13.4
			c0-4.9-1.8-9.4-5.4-13.4c-3.6-4-7.8-6.1-12.8-6.1s-9.2,2-12.8,6.1C174.8,463.1,173,467.6,173,472.5z"/>
		<path class="st0" d="M270.2,85.9c11.3,0,21.1-4.1,29.4-12.4C307.9,65.1,312,55,312,42.9s-4.1-22.2-12.4-30.5
			C291.3,4.1,281.3,0,269.6,0c-11.7,0-21.5,4.1-29.4,12.4s-11.9,18.5-11.9,30.5s4.1,22.2,12.4,30.5S258.9,85.9,270.2,85.9z"/>
		<path class="st0" d="M75,418c-2,3.3-3,7-3,11c0,6.7,2.3,12.3,7,17s10.3,7,17,7c9.3,0,16.3-4.3,21-13l80-143l-33-34L75,418z"/>
		<path class="st0" d="M302,92h111c5.3,0,9.8,2,13.5,6s5.5,8.8,5.5,14.5s-1.8,10.5-5.5,14.5c-3.7,4-8.2,6-13.5,6H300"/>
		<path class="st0" d="M288,133l-54,97l55,56c6,5.3,9.5,11.3,10.5,18s0.5,12-1.5,16l-2,6l-47,85c-4,9.3-11,14-21,14
			c-6.7,0-12.3-2.3-17-7s-7-10.3-7-17c0-4,1-7.7,3-11l35-64l-68-70c-8-8-12.7-16.7-14-26c-1.3-9.3-0.7-16.7,2-22l4-8l37-67h-98
			c-5.3,0-9.8-2-13.5-6c-3.7-4-5.5-8.8-5.5-14.5S87.8,102,91.5,98s8.2-6,13.5-6h185"/>
		<path class="st0" d="M338,440.5c0,7-3.3,10.5-10,10.5H154c-6.7,0-10-3.5-10-10.5s3.3-10.5,10-10.5h174
			C334.7,430,338,433.5,338,440.5z"/>
		<path class="st0" d="M270.7,472.5c0,4.9,1.8,9.4,5.4,13.4c3.6,4,7.8,6.1,12.8,6.1c4.9,0,9.2-2,12.8-6.1c3.6-4,5.4-8.5,5.4-13.4
			c0-4.9-1.8-9.4-5.4-13.4s-7.8-6.1-12.8-6.1c-4.9,0-9.2,2-12.8,6.1S270.7,467.6,270.7,472.5z"/>
	</g>
</g>
</svg>
