<?xml version="1.0" encoding="UTF-8" standalone="no"?>
<!-- Generator: Adobe Illustrator 23.0.3, SVG Export Plug-In . SVG Version: 6.00 Build 0)  -->

<svg
   xmlns:dc="http://purl.org/dc/elements/1.1/"
   xmlns:cc="http://creativecommons.org/ns#"
   xmlns:rdf="http://www.w3.org/1999/02/22-rdf-syntax-ns#"
   xmlns:svg="http://www.w3.org/2000/svg"
   xmlns="http://www.w3.org/2000/svg"
   xmlns:sodipodi="http://sodipodi.sourceforge.net/DTD/sodipodi-0.dtd"
   xmlns:inkscape="http://www.inkscape.org/namespaces/inkscape"
   version="1.1"
   id="Capa_1"
   x="0px"
   y="0px"
   viewBox="0 0 54.2 54.2"
   style="enable-background:new 0 0 54.2 54.2;"
   xml:space="preserve"
   sodipodi:docname="surf1.svg"
   inkscape:version="0.92.4 (5da689c313, 2019-01-14)"><metadata
   id="metadata851"><rdf:RDF><cc:Work
       rdf:about=""><dc:format>image/svg+xml</dc:format><dc:type
         rdf:resource="http://purl.org/dc/dcmitype/StillImage" /><dc:title></dc:title></cc:Work></rdf:RDF></metadata><defs
   id="defs849" /><sodipodi:namedview
   pagecolor="#ffffff"
   bordercolor="#666666"
   borderopacity="1"
   objecttolerance="10"
   gridtolerance="10"
   guidetolerance="10"
   inkscape:pageopacity="0"
   inkscape:pageshadow="2"
   inkscape:window-width="1920"
   inkscape:window-height="1017"
   id="namedview847"
   showgrid="false"
   inkscape:zoom="15.682657"
   inkscape:cx="27.1"
   inkscape:cy="27.1"
   inkscape:window-x="-8"
   inkscape:window-y="-8"
   inkscape:window-maximized="1"
   inkscape:current-layer="Capa_1" />
<style
   type="text/css"
   id="style834">
	.st0{fill:#8E3A5C;}
	.st1{fill:#010002;}
</style>
<g
   id="g844">
	<g
   id="g842">
		<circle
   class="st0"
   cx="18.7"
   cy="9.2"
   r="4"
   id="circle836" />
		<path
   class="st0"
   d="M38,0c-1.8,0.2-5.6,7.6-7.2,17.6v0.1c-0.6,0.5-1.3,0.9-2,1.3h-0.1c-1.5-0.5-3-1.3-4-2.5    c-0.2-0.3-0.5-0.5-0.8-0.6h-0.2c-2-0.4-7.5-0.9-10.4,0.2l-0.1,0.1c0.2,2.1,0,4.4,0,6.6v6c-0.4-0.5-0.7-1-1-1.6    c-0.3-0.5-0.6-1.1-0.8-1.6c0-0.1-0.1-0.2-0.1-0.3c0.2-0.6,0.4-1.1,0.6-1.6v-1c0-1.6,0.1-3.8,0-5.5c0-0.1-0.1-0.1-0.2-0.1    c-1.1,1.2-2.4,3.1-3,4.4c-0.5,1.1-1.3,2.6-1.3,3.9c0,1.2,1,2.7,1.5,3.8c1,1.9,2.4,3.6,4.2,4.7v17.6c0,1.3,0.9,2.3,2.2,2.3    s2.3-1,2.3-2.3V35.6c0,0,0.1-0.8,0.9-0.8s0.8,0.8,0.8,0.8v15.9c0,1.3,1,2.3,2.3,2.3c1.3,0,2.3-1,2.3-2.3L24,35.1V21    c1.3,0.8,2.8,1.4,4.3,1.8c0.6,0.1,1.1,0,1.6-0.3c0.1,0,0.2,0,0.2,0.1c-0.1,1.5-0.2,3-0.2,4.5c0.1,13.1,2.9,27.1,8,27.1    c5.2,0,8.2-9.6,8.5-27.1C46.5,12.9,40.4,0,38,0z"
   id="path838" />
		<path
   class="st1"
   d="M11,25.1C11,24.9,11,24.9,11,25.1L11,25.1z"
   id="path840" />
	</g>
</g>
</svg>