<?xml version="1.0" encoding="UTF-8" standalone="no"?>
<!-- Created with Inkscape (http://www.inkscape.org/) -->

<svg
   xmlns:dc="http://purl.org/dc/elements/1.1/"
   xmlns:cc="http://creativecommons.org/ns#"
   xmlns:rdf="http://www.w3.org/1999/02/22-rdf-syntax-ns#"
   xmlns:svg="http://www.w3.org/2000/svg"
   xmlns="http://www.w3.org/2000/svg"
   xmlns:sodipodi="http://sodipodi.sourceforge.net/DTD/sodipodi-0.dtd"
   xmlns:inkscape="http://www.inkscape.org/namespaces/inkscape"
   width="80.675758mm"
   height="80.675758mm"
   viewBox="0 0 80.675758 80.675758"
   version="1.1"
   id="svg8"
   inkscape:version="0.92.1 r15371"
   sodipodi:docname="vela.svg">
  <defs
     id="defs2" />
  <sodipodi:namedview
     id="base"
     pagecolor="#ffffff"
     bordercolor="#666666"
     borderopacity="1.0"
     inkscape:pageopacity="0.0"
     inkscape:pageshadow="2"
     inkscape:zoom="0.35"
     inkscape:cx="-188.97045"
     inkscape:cy="127.07679"
     inkscape:document-units="mm"
     inkscape:current-layer="layer1"
     showgrid="false"
     fit-margin-top="0"
     fit-margin-left="0"
     fit-margin-right="0"
     fit-margin-bottom="0"
     inkscape:window-width="1366"
     inkscape:window-height="705"
     inkscape:window-x="-8"
     inkscape:window-y="-8"
     inkscape:window-maximized="1" />
  <metadata
     id="metadata5">
    <rdf:RDF>
      <cc:Work
         rdf:about="">
        <dc:format>image/svg+xml</dc:format>
        <dc:type
           rdf:resource="http://purl.org/dc/dcmitype/StillImage" />
        <dc:title></dc:title>
      </cc:Work>
    </rdf:RDF>
  </metadata>
  <g
     inkscape:label="Layer 1"
     inkscape:groupmode="layer"
     id="layer1"
     transform="translate(-29.965693,-117.56688)">
    <rect
       style="opacity:1;vector-effect:none;fill:none;fill-opacity:1;fill-rule:evenodd;stroke:none;stroke-width:0.1;stroke-linecap:butt;stroke-linejoin:miter;stroke-miterlimit:4;stroke-dasharray:none;stroke-dashoffset:0;stroke-opacity:1"
       id="rect5477-8-31"
       width="80.675758"
       height="80.675758"
       x="31.205194"
       y="117.83928"
       rx="0"
       ry="0"
       inkscape:export-filename="C:\Users\Pablo\Desktop\CARTOMETRICS\9 PROYECTOS\ANTIGUOS\10 Webgis MalagaActiva\logosUlt\vela.png"
       inkscape:export-xdpi="11.019427"
       inkscape:export-ydpi="11.019427" />
    <g
       id="g5353"
       transform="matrix(6.0056181,0,0,6.0056181,847.41641,-1990.0264)"
       style="fill:#00ff66;fill-opacity:1;stroke-width:0.16651073"
       inkscape:export-filename="C:\Users\Pablo\Desktop\CARTOMETRICS\9 PROYECTOS\ANTIGUOS\10 Webgis MalagaActiva\logosUlt\vela.png"
       inkscape:export-xdpi="11.019427"
       inkscape:export-ydpi="11.019427">
      <g
         transform="matrix(0.26458333,0,0,0.26458333,-135.88018,351.28416)"
         id="g4763"
         style="fill:#00ff66;fill-opacity:1;stroke-width:0.16651073">
        <g
           id="g4761"
           style="fill:#00ff66;fill-opacity:1;stroke-width:0.16651073">
          <path
             id="path4751"
             d="M 48.7,42.5 C 48.1,42.1 46.9,42 46,42.2 l -3.2,1 c -4.7,1.4 -7.1,-1.8 -14.1,-0.1 -1.2,0.3 -3.5,1 -6.2,0.2 -3.3,-0.9 -6.5,-0.7 -9.8,0.1 -1.6,0.4 -3.6,0.4 -5.1,-0.1 L 4,42.2 C 3.1,41.9 1.9,42 1.3,42.5 0.7,42.9 1,43.5 1.9,43.7 l 3.5,1.1 c 2.7,0.8 6.2,0.9 9.1,0.2 1,-0.3 3.3,-0.9 5.9,-0.2 2.6,0.8 6,0.8 8.8,0.1 1.7,-0.4 3.4,-1 6.5,-0.2 5.3,1.4 9.3,-0.1 12.4,-1.1 0.9,-0.2 1.2,-0.7 0.6,-1.1 z"
             class="st0"
             inkscape:connector-curvature="0"
             style="fill:#00ff66;fill-opacity:1;stroke-width:0.16651073" />
          <path
             id="path4753"
             d="M 25.9,32.7 H 10.8 c 0.2,8.6 5.9,9.2 9.5,8.7 2.4,-0.4 4.9,-0.3 7.3,0.1 14.4,1.9 18.7,-8.7 18.7,-8.7 H 27 L 26.3,31.3 46.2,26.8 C 39,5.7 25.9,1 25.9,1 V 2.2 L 19.7,18.6 Z M 26,5 V 30.5 L 20.8,18.6 Z"
             class="st0"
             inkscape:connector-curvature="0"
             style="fill:#00ff66;fill-opacity:1;stroke-width:0.16651073" />
          <path
             id="path4755"
             d="M 11.1,20.4 C 8,20 8,20 7.1,20.3 5.2,21 4.2,23.1 4.9,25 L 7,30.9 c 0.3,0.9 1,1.7 1.8,2.1 v -0.1 -1 h 12.1 l -2,-2.3 C 18.5,29.2 18,28.9 17.4,28.9 H 14 c 0,-0.1 -0.1,-0.3 -0.1,-0.4 l -1.7,-4.9"
             class="st0"
             inkscape:connector-curvature="0"
             style="fill:#00ff66;fill-opacity:1;stroke-width:0.16651073" />
          <path
             id="path4757"
             d="m 13.6,23.6 2.2,0.2 c 0.1,0 0.1,0 0.2,0 0.3,0 0.6,-0.1 0.9,-0.3 l 3.5,-2.4 -1.1,-2.5 0.2,-0.5 -3.8,2.6 c -1.2,-0.1 -2.2,-0.3 -2.9,-0.3"
             class="st0"
             inkscape:connector-curvature="0"
             style="fill:#00ff66;fill-opacity:1;stroke-width:0.16651073" />
          <circle
             id="circle4759"
             r="3.2"
             cy="16.1"
             cx="7.1999998"
             class="st0"
             style="fill:#00ff66;fill-opacity:1;stroke-width:0.16651073" />
        </g>
      </g>
    </g>
  </g>
</svg>
