<?xml version="1.0" encoding="utf-8"?>
<!-- Generator: Adobe Illustrator 23.0.3, SVG Export Plug-In . SVG Version: 6.00 Build 0)  -->
<svg version="1.1" xmlns="http://www.w3.org/2000/svg" xmlns:xlink="http://www.w3.org/1999/xlink" x="0px" y="0px"
	 viewBox="25 15 50 70" style="enable-background:new 0 0 100 125;" xml:space="preserve">
<style type="text/css">
	.st0{fill:#CE7F49;}
</style>
<g id="Capa_2">
</g>
<g id="Capa_1">
	<g>
		<path class="st0" d="M51.9,60L51.9,60c0.8,3,1.7,6.8,1.8,8.2c0,1.3-2.2,7-4.2,11.4c-0.6,1.4,0,3,1.3,3.6c0.4,0.2,0.8,0.2,1.1,0.2
			c1,0,2-0.6,2.5-1.6c1.8-4,4.9-11.2,4.7-14c-0.2-2.2-1.5-7.7-2.1-10.1l0,0c0.9-7.7-0.5-13.1-1.2-15.2c5.7-1.4,15.5-4.5,16.8-4.9
			c1.2-0.4,1.9-1.7,1.5-2.9s-1.7-1.9-2.9-1.5c-4.1,1.3-15.5,4.9-18.8,5.3l-5.8,0.6c-4.1,0.5-6.7,0.4-8.2-1.3c-1-1.2-2.1-5.3-2.6-7.8
			c-0.2-1.3-1.4-2.1-2.7-1.9s-2.1,1.4-1.9,2.7c0.2,1.3,1.4,7.5,3.7,10.1c2.2,2.5,5.2,3.1,8.2,3.1c0.5,0,1,0,1.6-0.1
			c0.7,2.5,2.1,8.3,2.2,12.8"/>
		<path class="st0" d="M46.3,58.7c-0.6,3.3-1.5,6.7-2,7.8c-1.2,0.7-5.5,2.2-8.9,3.2c-1.4,0.4-2.2,2-1.8,3.4s2,2.2,3.4,1.8
			c6.2-1.9,10-3.4,11.1-4.5c0.4-0.4,1.7-1.5,3.2-8.4"/>
		<ellipse class="st0" cx="50.5" cy="30.6" rx="5.5" ry="5.5"/>
		<ellipse class="st0" cx="68.4" cy="22" rx="5.4" ry="5.4"/>
	</g>
	
		<image style="overflow:visible;" width="919" height="518" xlink:href="558F73AC.jpg"  transform="matrix(1 0 0 1 -459.5 336.8898)">
	</image>
</g>
</svg>
