<?xml version="1.0" encoding="UTF-8" standalone="no"?>
<!-- Created with Inkscape (http://www.inkscape.org/) -->

<svg
   xmlns:dc="http://purl.org/dc/elements/1.1/"
   xmlns:cc="http://creativecommons.org/ns#"
   xmlns:rdf="http://www.w3.org/1999/02/22-rdf-syntax-ns#"
   xmlns:svg="http://www.w3.org/2000/svg"
   xmlns="http://www.w3.org/2000/svg"
   xmlns:sodipodi="http://sodipodi.sourceforge.net/DTD/sodipodi-0.dtd"
   xmlns:inkscape="http://www.inkscape.org/namespaces/inkscape"
   width="80.675758mm"
   height="80.675758mm"
   viewBox="0 0 80.675758 80.675758"
   version="1.1"
   id="svg8"
   inkscape:version="0.92.1 r15371"
   sodipodi:docname="voley.svg">
  <defs
     id="defs2" />
  <sodipodi:namedview
     id="base"
     pagecolor="#ffffff"
     bordercolor="#666666"
     borderopacity="1.0"
     inkscape:pageopacity="0.0"
     inkscape:pageshadow="2"
     inkscape:zoom="0.35"
     inkscape:cx="-188.97045"
     inkscape:cy="127.07679"
     inkscape:document-units="mm"
     inkscape:current-layer="layer1"
     showgrid="false"
     fit-margin-top="0"
     fit-margin-left="0"
     fit-margin-right="0"
     fit-margin-bottom="0"
     inkscape:window-width="1366"
     inkscape:window-height="705"
     inkscape:window-x="-8"
     inkscape:window-y="-8"
     inkscape:window-maximized="1" />
  <metadata
     id="metadata5">
    <rdf:RDF>
      <cc:Work
         rdf:about="">
        <dc:format>image/svg+xml</dc:format>
        <dc:type
           rdf:resource="http://purl.org/dc/dcmitype/StillImage" />
        <dc:title></dc:title>
      </cc:Work>
    </rdf:RDF>
  </metadata>
  <g
     inkscape:label="Layer 1"
     inkscape:groupmode="layer"
     id="layer1"
     transform="translate(-29.965693,-117.56688)">
    <g
       id="g13"
       transform="matrix(1.0984768,0,0,1.0984768,12.344603,102.41455)"
       style="stroke-width:0.24086383"
       inkscape:export-filename="C:\Users\Pablo\Desktop\CARTOMETRICS\9 PROYECTOS\ANTIGUOS\10 Webgis MalagaActiva\logosUlt\voley.png"
       inkscape:export-xdpi="11.019427"
       inkscape:export-ydpi="11.019427">
      <path
         style="fill:#ce7f49;stroke-width:0.24086383"
         inkscape:connector-curvature="0"
         id="path5"
         d="m 51.9,60 v 0 c 0.8,3 1.7,6.8 1.8,8.2 0,1.3 -2.2,7 -4.2,11.4 -0.6,1.4 0,3 1.3,3.6 0.4,0.2 0.8,0.2 1.1,0.2 1,0 2,-0.6 2.5,-1.6 1.8,-4 4.9,-11.2 4.7,-14 C 58.9,65.6 57.6,60.1 57,57.7 v 0 C 57.9,50 56.5,44.6 55.8,42.5 61.5,41.1 71.3,38 72.6,37.6 c 1.2,-0.4 1.9,-1.7 1.5,-2.9 -0.4,-1.2 -1.7,-1.9 -2.9,-1.5 -4.1,1.3 -15.5,4.9 -18.8,5.3 l -5.8,0.6 c -4.1,0.5 -6.7,0.4 -8.2,-1.3 -1,-1.2 -2.1,-5.3 -2.6,-7.8 -0.2,-1.3 -1.4,-2.1 -2.7,-1.9 -1.3,0.2 -2.1,1.4 -1.9,2.7 0.2,1.3 1.4,7.5 3.7,10.1 2.2,2.5 5.2,3.1 8.2,3.1 0.5,0 1,0 1.6,-0.1 0.7,2.5 2.1,8.3 2.2,12.8"
         class="st0" />
      <path
         style="fill:#ce7f49;stroke-width:0.24086383"
         inkscape:connector-curvature="0"
         id="path7"
         d="m 46.3,58.7 c -0.6,3.3 -1.5,6.7 -2,7.8 -1.2,0.7 -5.5,2.2 -8.9,3.2 -1.4,0.4 -2.2,2 -1.8,3.4 0.4,1.4 2,2.2 3.4,1.8 6.2,-1.9 10,-3.4 11.1,-4.5 0.4,-0.4 1.7,-1.5 3.2,-8.4"
         class="st0" />
      <circle
         style="fill:#ce7f49;stroke-width:0.24086383"
         r="5.5"
         id="ellipse9"
         cy="30.6"
         cx="50.5"
         class="st0" />
      <circle
         style="fill:#ce7f49;stroke-width:0.24086383"
         r="5.4000001"
         id="ellipse11"
         cy="22"
         cx="68.400002"
         class="st0" />
    </g>
    <rect
       style="opacity:1;vector-effect:none;fill:none;fill-opacity:1;fill-rule:evenodd;stroke:none;stroke-width:0.1;stroke-linecap:butt;stroke-linejoin:miter;stroke-miterlimit:4;stroke-dasharray:none;stroke-dashoffset:0;stroke-opacity:1"
       id="rect5477-8-432"
       width="80.675758"
       height="80.675758"
       x="30.449244"
       y="117.83929"
       rx="0"
       ry="0"
       inkscape:export-filename="C:\Users\Pablo\Desktop\CARTOMETRICS\9 PROYECTOS\ANTIGUOS\10 Webgis MalagaActiva\logosUlt\voley.png"
       inkscape:export-xdpi="11.019427"
       inkscape:export-ydpi="11.019427" />
  </g>
</svg>
