<?xml version="1.0" encoding="UTF-8" standalone="no"?>
<!-- Created with Inkscape (http://www.inkscape.org/) -->

<svg
   xmlns:dc="http://purl.org/dc/elements/1.1/"
   xmlns:cc="http://creativecommons.org/ns#"
   xmlns:rdf="http://www.w3.org/1999/02/22-rdf-syntax-ns#"
   xmlns:svg="http://www.w3.org/2000/svg"
   xmlns="http://www.w3.org/2000/svg"
   xmlns:sodipodi="http://sodipodi.sourceforge.net/DTD/sodipodi-0.dtd"
   xmlns:inkscape="http://www.inkscape.org/namespaces/inkscape"
   width="80.675758mm"
   height="80.675758mm"
   viewBox="0 0 80.675758 80.675758"
   version="1.1"
   id="svg8"
   inkscape:version="0.92.1 r15371"
   sodipodi:docname="windsurf.svg">
  <defs
     id="defs2" />
  <sodipodi:namedview
     id="base"
     pagecolor="#ffffff"
     bordercolor="#666666"
     borderopacity="1.0"
     inkscape:pageopacity="0.0"
     inkscape:pageshadow="2"
     inkscape:zoom="0.35"
     inkscape:cx="-188.97045"
     inkscape:cy="127.07679"
     inkscape:document-units="mm"
     inkscape:current-layer="layer1"
     showgrid="false"
     fit-margin-top="0"
     fit-margin-left="0"
     fit-margin-right="0"
     fit-margin-bottom="0"
     inkscape:window-width="1366"
     inkscape:window-height="705"
     inkscape:window-x="-8"
     inkscape:window-y="-8"
     inkscape:window-maximized="1" />
  <metadata
     id="metadata5">
    <rdf:RDF>
      <cc:Work
         rdf:about="">
        <dc:format>image/svg+xml</dc:format>
        <dc:type
           rdf:resource="http://purl.org/dc/dcmitype/StillImage" />
        <dc:title></dc:title>
      </cc:Work>
    </rdf:RDF>
  </metadata>
  <g
     inkscape:label="Layer 1"
     inkscape:groupmode="layer"
     id="layer1"
     transform="translate(-29.965693,-117.56688)">
    <rect
       style="opacity:1;vector-effect:none;fill:none;fill-opacity:1;fill-rule:evenodd;stroke:none;stroke-width:0.1;stroke-linecap:butt;stroke-linejoin:miter;stroke-miterlimit:4;stroke-dasharray:none;stroke-dashoffset:0;stroke-opacity:1"
       id="rect5477-8-09"
       width="80.675758"
       height="80.675758"
       x="31.205194"
       y="117.08332"
       rx="0"
       ry="0"
       inkscape:export-filename="C:\Users\Pablo\Desktop\CARTOMETRICS\9 PROYECTOS\ANTIGUOS\10 Webgis MalagaActiva\logosUlt\windsurf.png"
       inkscape:export-xdpi="11.019427"
       inkscape:export-ydpi="11.019427" />
    <g
       id="g4854"
       transform="matrix(0.76379985,0,0,0.76379985,36.267666,120.35295)"
       style="stroke-width:0.34640402"
       inkscape:export-filename="C:\Users\Pablo\Desktop\CARTOMETRICS\9 PROYECTOS\ANTIGUOS\10 Webgis MalagaActiva\logosUlt\windsurf.png"
       inkscape:export-xdpi="11.019427"
       inkscape:export-ydpi="11.019427">
      <path
         id="path4822"
         d="m 93.3,95.9 c -2,0 -4,-0.4 -5.7,-1 -1.8,-0.7 -3.8,-1 -5.9,-1 -2.1,0 -4.1,0.4 -5.9,1 -1.8,0.6 -3.7,1 -5.8,1 -2.1,0 -4,-0.4 -5.7,-1 -1.8,-0.7 -3.8,-1 -5.9,-1 -2.1,0 -4.1,0.4 -5.9,1 -1.7,0.6 -3.7,1 -5.7,1 -2,0 -4,-0.4 -5.7,-1 -1.8,-0.7 -3.8,-1 -5.9,-1 -2.1,0 -4.1,0.4 -5.9,1 -1.8,0.6 -3.7,1 -5.8,1 -2.1,0 -4,-0.4 -5.7,-1 -1.8,-0.7 -3.8,-1 -5.9,-1 -2.1,0 -4.1,0.4 -5.9,1 -1.8,0.6 -3.7,1 -5.7,1 v -6.7 c 2,0 4,-0.4 5.7,-1 1.8,-0.6 3.8,-1 5.9,-1 2.1,0 4.1,0.4 5.9,1 1.8,0.6 3.7,1 5.7,1 2,0 4,-0.4 5.8,-1 1.8,-0.6 3.8,-1 5.9,-1 2.1,0 4.1,0.4 5.9,1 1.7,0.6 3.7,1 5.7,1 2,0 4,-0.4 5.7,-1 1.8,-0.6 3.8,-1 5.9,-1 2.1,0 4.1,0.4 5.9,1 1.7,0.6 3.7,1 5.7,1 2,0 4,-0.4 5.8,-1 1.8,-0.6 3.8,-1 5.9,-1 2.1,0 4.1,0.4 5.9,1 1.7,0.6 3.7,1 5.7,1 z"
         class="st0"
         inkscape:connector-curvature="0"
         style="fill:#68526d;stroke-width:0.34640402" />
      <path
         id="path4824"
         d="m 17.2,49.6 c 3.1,0 5.7,-2.6 5.7,-5.7 0,-3.2 -2.5,-5.7 -5.7,-5.7 -3.1,0 -5.6,2.6 -5.6,5.7 -0.1,3.2 2.5,5.7 5.6,5.7 z"
         class="st0"
         inkscape:connector-curvature="0"
         style="fill:#68526d;stroke-width:0.34640402" />
      <path
         id="path4826"
         d="M 23.9,50 H 37 l 9,-4.1 c 0.1,-0.1 0.5,-0.2 0.9,-0.2 1.5,0 2.8,1.3 2.8,2.8 0,1 -0.5,1.8 -1.2,2.3 l -9.8,4.5 c -0.6,0.5 -1.9,0.6 -1.9,0.6 H 31"
         class="st0"
         inkscape:connector-curvature="0"
         style="fill:#68526d;stroke-width:0.34640402" />
      <path
         id="path4828"
         d="m 28.7,56.7 4.9,11.1 h 10.9 v 0 c 1.1,0 1.8,0.4 2.5,1 l 10.7,10.3 v 0 c 1.5,1.4 1.6,3.8 0.2,5.3 -1.4,1.5 -3.8,1.6 -5.3,0.2 v 0 l -9.3,-9 H 27.2 c -2.4,0 -4.5,-1.4 -5.4,-3.5 l -6,-13.8 c -0.1,-0.5 -0.2,-0.9 -0.2,-1.4 0,-3.3 2.7,-6 5.9,-6"
         class="st0"
         inkscape:connector-curvature="0"
         style="fill:#68526d;stroke-width:0.34640402" />
      <path
         id="path4830"
         d="m 85.9,54.6 c 0.2,0.3 0.6,0.5 1,0.5 0.8,0 1.4,-0.7 1.4,-1.6 0,-0.4 -0.2,-0.8 -0.4,-1.2 C 79.4,33.6 56.4,39.2 53.6,40.4 c -0.5,0.2 -0.7,0.8 -0.7,1.4 0,0.9 0.6,1.6 1.4,1.6 0.2,0 0.3,0 0.6,-0.1 22.5,-5.9 29.9,8.9 31,11.3 z m 4,1.7 L 61.1,77.2 34.8,0 c 23.5,3.6 53.3,24.6 55.1,56.3 z"
         class="st0"
         inkscape:connector-curvature="0"
         style="fill:#68526d;stroke-width:0.34640402" />
      <ellipse
         id="ellipse4832"
         ry="7.5"
         rx="17.5"
         cy="44"
         cx="68.400002"
         class="st0"
         style="fill:#68526d;stroke-width:0.34640402" />
      <ellipse
         id="ellipse4834"
         ry="8.5"
         rx="9.6999998"
         cy="50.400002"
         cx="78.300003"
         class="st0"
         style="fill:#68526d;stroke-width:0.34640402" />
      <ellipse
         id="ellipse4836"
         ry="6.0999999"
         rx="3.9000001"
         cy="53.299999"
         cx="84.5"
         class="st0"
         style="fill:#68526d;stroke-width:0.34640402" />
    </g>
  </g>
</svg>
