<?xml version="1.0" encoding="utf-8"?>
<!-- Generator: Adobe Illustrator 23.0.3, SVG Export Plug-In . SVG Version: 6.00 Build 0)  -->
<svg version="1.1" id="Capa_1" xmlns="http://www.w3.org/2000/svg" xmlns:xlink="http://www.w3.org/1999/xlink" x="0px" y="0px"
	 viewBox="0 -5 100 100" style="enable-background:new 0 0 93.3 100;" xml:space="preserve">
<style type="text/css">
	.st0{fill:#68526D;}
</style>
<path class="st0" d="M93.3,95.9c-2,0-4-0.4-5.7-1c-1.8-0.7-3.8-1-5.9-1c-2.1,0-4.1,0.4-5.9,1c-1.8,0.6-3.7,1-5.8,1s-4-0.4-5.7-1
	c-1.8-0.7-3.8-1-5.9-1c-2.1,0-4.1,0.4-5.9,1c-1.7,0.6-3.7,1-5.7,1c-2,0-4-0.4-5.7-1c-1.8-0.7-3.8-1-5.9-1c-2.1,0-4.1,0.4-5.9,1
	c-1.8,0.6-3.7,1-5.8,1s-4-0.4-5.7-1c-1.8-0.7-3.8-1-5.9-1c-2.1,0-4.1,0.4-5.9,1c-1.8,0.6-3.7,1-5.7,1v-6.7c2,0,4-0.4,5.7-1
	c1.8-0.6,3.8-1,5.9-1c2.1,0,4.1,0.4,5.9,1c1.8,0.6,3.7,1,5.7,1c2,0,4-0.4,5.8-1c1.8-0.6,3.8-1,5.9-1c2.1,0,4.1,0.4,5.9,1
	c1.7,0.6,3.7,1,5.7,1c2,0,4-0.4,5.7-1c1.8-0.6,3.8-1,5.9-1c2.1,0,4.1,0.4,5.9,1c1.7,0.6,3.7,1,5.7,1s4-0.4,5.8-1
	c1.8-0.6,3.8-1,5.9-1c2.1,0,4.1,0.4,5.9,1c1.7,0.6,3.7,1,5.7,1V95.9z"/>
<path class="st0" d="M17.2,49.6c3.1,0,5.7-2.6,5.7-5.7c0-3.2-2.5-5.7-5.7-5.7c-3.1,0-5.6,2.6-5.6,5.7C11.5,47.1,14.1,49.6,17.2,49.6
	z"/>
<path class="st0" d="M23.9,50l13.1,0l9-4.1c0.1-0.1,0.5-0.2,0.9-0.2c1.5,0,2.8,1.3,2.8,2.8c0,1-0.5,1.8-1.2,2.3l-9.8,4.5
	c-0.6,0.5-1.9,0.6-1.9,0.6H31"/>
<path class="st0" d="M28.7,56.7l4.9,11.1h10.9l0,0c1.1,0,1.8,0.4,2.5,1l10.7,10.3l0,0c1.5,1.4,1.6,3.8,0.2,5.3
	c-1.4,1.5-3.8,1.6-5.3,0.2l0,0l-9.3-9H27.2c-2.4,0-4.5-1.4-5.4-3.5l-6-13.8c-0.1-0.5-0.2-0.9-0.2-1.4c0-3.3,2.7-6,5.9-6"/>
<path class="st0" d="M85.9,54.6c0.2,0.3,0.6,0.5,1,0.5c0.8,0,1.4-0.7,1.4-1.6c0-0.4-0.2-0.8-0.4-1.2c-8.5-18.7-31.5-13.1-34.3-11.9
	c-0.5,0.2-0.7,0.8-0.7,1.4c0,0.9,0.6,1.6,1.4,1.6c0.2,0,0.3,0,0.6-0.1C77.4,37.4,84.8,52.2,85.9,54.6z M89.9,56.3L61.1,77.2L34.8,0
	C58.3,3.6,88.1,24.6,89.9,56.3z"/>
<ellipse class="st0" cx="68.4" cy="44" rx="17.5" ry="7.5"/>
<ellipse class="st0" cx="78.3" cy="50.4" rx="9.7" ry="8.5"/>
<ellipse class="st0" cx="84.5" cy="53.3" rx="3.9" ry="6.1"/>
</svg>
