<?xml version="1.0" encoding="UTF-8" standalone="no"?>
<!-- Created with Inkscape (http://www.inkscape.org/) -->

<svg
   xmlns:dc="http://purl.org/dc/elements/1.1/"
   xmlns:cc="http://creativecommons.org/ns#"
   xmlns:rdf="http://www.w3.org/1999/02/22-rdf-syntax-ns#"
   xmlns:svg="http://www.w3.org/2000/svg"
   xmlns="http://www.w3.org/2000/svg"
   xmlns:sodipodi="http://sodipodi.sourceforge.net/DTD/sodipodi-0.dtd"
   xmlns:inkscape="http://www.inkscape.org/namespaces/inkscape"
   width="80.675758mm"
   height="80.675758mm"
   viewBox="0 0 80.675758 80.675758"
   version="1.1"
   id="svg8"
   inkscape:version="0.92.1 r15371"
   sodipodi:docname="yoga.svg">
  <defs
     id="defs2" />
  <sodipodi:namedview
     id="base"
     pagecolor="#ffffff"
     bordercolor="#666666"
     borderopacity="1.0"
     inkscape:pageopacity="0.0"
     inkscape:pageshadow="2"
     inkscape:zoom="0.35"
     inkscape:cx="-188.97045"
     inkscape:cy="127.07679"
     inkscape:document-units="mm"
     inkscape:current-layer="layer1"
     showgrid="false"
     fit-margin-top="0"
     fit-margin-left="0"
     fit-margin-right="0"
     fit-margin-bottom="0"
     inkscape:window-width="1366"
     inkscape:window-height="705"
     inkscape:window-x="-8"
     inkscape:window-y="-8"
     inkscape:window-maximized="1" />
  <metadata
     id="metadata5">
    <rdf:RDF>
      <cc:Work
         rdf:about="">
        <dc:format>image/svg+xml</dc:format>
        <dc:type
           rdf:resource="http://purl.org/dc/dcmitype/StillImage" />
        <dc:title></dc:title>
      </cc:Work>
    </rdf:RDF>
  </metadata>
  <g
     inkscape:label="Layer 1"
     inkscape:groupmode="layer"
     id="layer1"
     transform="translate(-29.965693,-117.56688)">
    <rect
       style="opacity:1;vector-effect:none;fill:none;fill-opacity:1;fill-rule:evenodd;stroke:none;stroke-width:0.1;stroke-linecap:butt;stroke-linejoin:miter;stroke-miterlimit:4;stroke-dasharray:none;stroke-dashoffset:0;stroke-opacity:1"
       id="rect5477-8"
       width="80.675758"
       height="80.675758"
       x="30.449244"
       y="116.4175"
       rx="0"
       ry="0"
       inkscape:export-filename="C:\Users\Pablo\Desktop\CARTOMETRICS\9 PROYECTOS\ANTIGUOS\10 Webgis MalagaActiva\logosUlt\yoga.png"
       inkscape:export-xdpi="11.019427"
       inkscape:export-ydpi="11.019427" />
    <g
       id="g5359"
       transform="matrix(3.9385856,0,0,3.9385856,1511.37,-1007.703)"
       style="fill:#cb8673;fill-opacity:0.73333333;stroke-width:0.25389823"
       inkscape:export-filename="C:\Users\Pablo\Desktop\CARTOMETRICS\9 PROYECTOS\ANTIGUOS\10 Webgis MalagaActiva\logosUlt\yoga.png"
       inkscape:export-xdpi="11.019427"
       inkscape:export-ydpi="11.019427">
      <path
         id="path4858"
         d="m -368.2455,297.33843 v 5.05354 c -0.84667,0.23812 -1.69334,0.50271 -2.54,0.82021 -0.66146,0.26458 -0.97896,0.97896 -0.74084,1.64041 0.18521,0.50271 0.66146,0.82021 1.19063,0.82021 h 5.34458 c 0.0529,0 0.13229,0 0.18521,-0.0265 0,0 0.0265,0 0.0265,0 0.0529,0 0.10583,0 0.15875,-0.0265 0.0794,0.0265 0.13229,0.0265 0.23812,0.0265 0,0 0.0265,0 0.0265,0 0,0 0.0265,0 0.0265,0 0.0794,0 0.13229,0 0.21167,-0.0265 0,0 -0.0265,0 -0.0265,0.0265 h 3.25437 c 0.71438,0 1.27,-0.58208 1.27,-1.27 0,-0.52916 -0.3175,-1.00541 -0.82021,-1.19062 -0.8202,-0.3175 -1.66687,-0.58208 -2.54,-0.82021 v -5.02708 c 3.06917,-2.40771 3.59834,-6.85271 1.19063,-9.92188 -0.635,-0.79375 -1.42875,-1.45521 -2.32833,-1.93146 -0.4498,-0.23812 -1.03188,-0.10583 -1.34938,0.29105 0.23813,0.42333 0.23813,0.92604 0,1.34937 0.10583,0.13229 0.21167,0.21167 0.34396,0.29104 0.37042,0.18521 0.74083,0.42334 1.03187,0.71438 2.01084,1.79916 2.16959,4.89479 0.34396,6.90562 h -3.78354"
         class="st0"
         inkscape:connector-curvature="0"
         style="fill:#cb8673;fill-opacity:0.73333333;stroke-width:0.06717724" />
      <path
         id="path4860"
         d="m -368.0603,295.03655 c -0.29104,-0.3175 -0.52916,-0.66146 -0.71437,-1.03187 -1.21708,-2.40771 -0.29104,-5.34459 2.11667,-6.56167 0.52916,-0.26458 0.74083,-0.92604 0.47625,-1.45521 -0.26459,-0.52916 -0.92605,-0.74083 -1.45521,-0.47625 -3.46604,1.77271 -4.84188,6.0325 -3.06917,9.49854 0.47625,0.89959 1.13771,1.7198 1.93146,2.32834"
         class="st0"
         inkscape:connector-curvature="0"
         style="fill:#cb8673;fill-opacity:0.73333333;stroke-width:0.06717724" />
      <g
         transform="matrix(0.26458333,0,0,0.26458333,-378.93467,282.07197)"
         id="g4864"
         style="fill:#cb8673;fill-opacity:0.73333333;stroke-width:0.25389823">
        <path
           id="path4862"
           d="m 58.9,36.5 c 0,-4.9 -4,-8.9 -8.9,-8.9 -4.9,0 -8.9,4 -8.9,8.9 0,4.9 4,8.9 8.9,8.9 4.9,0 8.9,-4 8.9,-8.9 z"
           class="st0"
           inkscape:connector-curvature="0"
           style="fill:#cb8673;fill-opacity:0.73333333;stroke-width:0.25389823" />
      </g>
    </g>
  </g>
</svg>
