<?xml version="1.0" encoding="utf-8"?>
<!-- Generator: Adobe Illustrator 23.0.3, SVG Export Plug-In . SVG Version: 6.00 Build 0)  -->
<svg version="1.1" id="Capa_1" xmlns="http://www.w3.org/2000/svg" xmlns:xlink="http://www.w3.org/1999/xlink" x="0px" y="0px"
	 viewBox="20 0 60 105" style="enable-background:new 0 0 100 125;" xml:space="preserve">
<style type="text/css">
	.st0{fill:#CB8672;}
</style>
<path class="st0" d="M40.4,57.7v19.1c-3.2,0.9-6.4,1.9-9.6,3.1c-2.5,1-3.7,3.7-2.8,6.2c0.7,1.9,2.5,3.1,4.5,3.1h20.2
	c0.2,0,0.5,0,0.7-0.1c0,0,0.1,0,0.1,0c0.2,0,0.4,0,0.6-0.1c0.3,0.1,0.5,0.1,0.9,0.1c0,0,0.1,0,0.1,0c0,0,0.1,0,0.1,0
	c0.3,0,0.5,0,0.8-0.1c0,0-0.1,0-0.1,0.1h12.3c2.7,0,4.8-2.2,4.8-4.8c0-2-1.2-3.8-3.1-4.5c-3.1-1.2-6.3-2.2-9.6-3.1V57.7
	c11.6-9.1,13.6-25.9,4.5-37.5c-2.4-3-5.4-5.5-8.8-7.3c-1.7-0.9-3.9-0.4-5.1,1.1c0.9,1.6,0.9,3.5,0,5.1c0.4,0.5,0.8,0.8,1.3,1.1
	c1.4,0.7,2.8,1.6,3.9,2.7c7.6,6.8,8.2,18.5,1.3,26.1H43.1"/>
<path class="st0" d="M41.1,49c-1.1-1.2-2-2.5-2.7-3.9c-4.6-9.1-1.1-20.2,8-24.8c2-1,2.8-3.5,1.8-5.5c-1-2-3.5-2.8-5.5-1.8
	c-13.1,6.7-18.3,22.8-11.6,35.9c1.8,3.4,4.3,6.5,7.3,8.8"/>
<g>
	<path class="st0" d="M58.9,36.5c0-4.9-4-8.9-8.9-8.9c-4.9,0-8.9,4-8.9,8.9c0,4.9,4,8.9,8.9,8.9C54.9,45.4,58.9,41.4,58.9,36.5
		L58.9,36.5z"/>
</g>
<image style="overflow:visible;" width="920" height="519" xlink:href="../55399424.jpg"  transform="matrix(1 0 0 1 -270.4516 354.664)">
</image>
</svg>
